<svg width="127" height="43" viewBox="0 0 127 43" fill="none" xmlns="http://www.w3.org/2000/svg">
<g clip-path="url(#clip0_34_2563)">
<rect width="126.74" height="42.2465" transform="translate(0.230591 0.701569)" fill="white"/>
<path d="M0.230591 11.7913C0.230591 8.34651 0.230591 6.62412 0.79336 5.26548C1.54372 3.45395 2.98297 2.0147 4.7945 1.26434C6.15314 0.701569 7.87553 0.701569 11.3203 0.701569H115.88C119.325 0.701569 121.048 0.701569 122.406 1.26434C124.218 2.0147 125.657 3.45395 126.407 5.26548C126.97 6.62412 126.97 8.34651 126.97 11.7913V31.8584C126.97 35.3031 126.97 37.0255 126.407 38.3842C125.657 40.1957 124.218 41.635 122.406 42.3853C121.048 42.9481 119.325 42.9481 115.88 42.9481H11.3203C7.87553 42.9481 6.15314 42.9481 4.7945 42.3853C2.98297 41.635 1.54372 40.1957 0.79336 38.3842C0.230591 37.0255 0.230591 35.3031 0.230591 31.8584V11.7913Z" fill="#8A48EF"/>
<path d="M86.3352 20.9809V23.4005H84.8186V24.9874H86.3352V30.3791C86.3352 32.2201 87.1681 32.9566 89.2634 32.9566C89.6316 32.9566 89.9823 32.9127 90.2891 32.8601V31.2908C90.0261 31.3171 89.8596 31.3347 89.5703 31.3347C88.6322 31.3347 88.2201 30.8963 88.2201 29.8969V24.9874H90.2891V23.4005H88.2201V20.9809H86.3352Z" fill="#FAFAFA"/>
<path d="M95.6268 33.0881C98.4147 33.0881 100.124 31.2207 100.124 28.1259C100.124 25.0487 98.406 23.1726 95.6268 23.1726C92.8389 23.1726 91.1206 25.0487 91.1206 28.1259C91.1206 31.2207 92.8302 33.0881 95.6268 33.0881ZM95.6268 31.4136C93.9874 31.4136 93.0669 30.2125 93.0669 28.1259C93.0669 26.0569 93.9874 24.8471 95.6268 24.8471C97.2575 24.8471 98.1868 26.0569 98.1868 28.1259C98.1868 30.2037 97.2575 31.4136 95.6268 31.4136Z" fill="#FAFAFA"/>
<path d="M101.587 32.9039H103.472V27.2668C103.472 25.9254 104.48 25.0224 105.909 25.0224C106.242 25.0224 106.803 25.0838 106.961 25.1364V23.2778C106.759 23.2252 106.4 23.1989 106.119 23.1989C104.875 23.1989 103.814 23.8827 103.542 24.8208H103.402V23.3567H101.587V32.9039Z" fill="#FAFAFA"/>
<path d="M111.641 24.777C113.035 24.777 113.947 25.7501 113.991 27.2492H109.169C109.274 25.7589 110.247 24.777 111.641 24.777ZM113.982 30.3265C113.631 31.0717 112.851 31.4837 111.711 31.4837C110.204 31.4837 109.23 30.4229 109.169 28.7484V28.6432H115.911V27.9857C115.911 24.9874 114.306 23.1726 111.65 23.1726C108.959 23.1726 107.249 25.1101 107.249 28.161C107.249 31.2119 108.924 33.0881 111.659 33.0881C113.842 33.0881 115.367 32.036 115.797 30.3265H113.982Z" fill="#FAFAFA"/>
<path d="M73.9743 29.3783C74.1197 31.7227 76.0734 33.222 78.9811 33.222C82.0888 33.222 84.0333 31.65 84.0333 29.142C84.0333 27.1702 82.9248 26.0798 80.2351 25.4528L78.7903 25.0985C77.082 24.6986 76.3914 24.1625 76.3914 23.2266C76.3914 22.0453 77.4636 21.273 79.072 21.273C80.5986 21.273 81.6526 22.0272 81.8434 23.2357H83.8243C83.7062 21.0276 81.7617 19.4738 79.0993 19.4738C76.2369 19.4738 74.3287 21.0276 74.3287 23.3629C74.3287 25.2893 75.41 26.4342 77.7817 26.9885L79.4718 27.3974C81.2074 27.8063 81.9707 28.406 81.9707 29.4056C81.9707 30.5687 80.7712 31.4137 79.1356 31.4137C77.3819 31.4137 76.1642 30.6232 75.9916 29.3783H73.9743Z" fill="#FAFAFA"/>
<path d="M54.4487 23.1989C53.1512 23.1989 52.029 23.8477 51.4504 24.9348H51.3101V23.3567H49.4954V36.0776H51.3803V31.4574H51.5293C52.029 32.4656 53.1074 33.0618 54.4662 33.0618C56.8772 33.0618 58.4114 31.1593 58.4114 28.1259C58.4114 25.0926 56.8772 23.1989 54.4487 23.1989ZM53.9139 31.3697C52.3359 31.3697 51.3452 30.1248 51.3452 28.1347C51.3452 26.1358 52.3359 24.8909 53.9227 24.8909C55.5183 24.8909 56.4739 26.1095 56.4739 28.1259C56.4739 30.1511 55.5183 31.3697 53.9139 31.3697Z" fill="#FAFAFA"/>
<path d="M65.007 23.1989C63.7094 23.1989 62.5873 23.8477 62.0087 24.9348H61.8684V23.3567H60.0536V36.0776H61.9385V31.4574H62.0876C62.5873 32.4656 63.6656 33.0618 65.0245 33.0618C67.4354 33.0618 68.9696 31.1593 68.9696 28.1259C68.9696 25.0926 67.4354 23.1989 65.007 23.1989ZM64.4722 31.3697C62.8941 31.3697 61.9034 30.1248 61.9034 28.1347C61.9034 26.1358 62.8941 24.8909 64.4809 24.8909C66.0765 24.8909 67.0321 26.1095 67.0321 28.1259C67.0321 30.1511 66.0765 31.3697 64.4722 31.3697Z" fill="#FAFAFA"/>
<path d="M46.1135 32.9039H48.2762L43.542 19.7918H41.3521L36.6179 32.9039H38.7079L39.9164 29.4237H44.9141L46.1135 32.9039ZM42.3425 22.1725H42.497L44.3961 27.7154H40.4343L42.3425 22.1725Z" fill="#FAFAFA"/>
<path d="M26.3907 22.1425C26.4136 20.3671 27.367 18.6872 28.8796 17.7573C27.9254 16.3945 26.3271 15.5304 24.6643 15.4784C22.8907 15.2923 21.1714 16.5397 20.2676 16.5397C19.3463 16.5397 17.9548 15.4969 16.4564 15.5277C14.5033 15.5908 12.6825 16.7013 11.7323 18.4088C9.68968 21.9453 11.2133 27.1427 13.1699 30.0013C14.1489 31.4011 15.293 32.9647 16.7901 32.9093C18.255 32.8485 18.8022 31.9751 20.5705 31.9751C22.3224 31.9751 22.8358 32.9093 24.3632 32.874C25.9352 32.8485 26.9256 31.468 27.8702 30.055C28.5736 29.0576 29.1148 27.9552 29.4739 26.7888C27.6265 26.0074 26.3929 24.1483 26.3907 22.1425Z" fill="#FAFAFA"/>
<path d="M23.5056 13.5985C24.3627 12.5695 24.785 11.247 24.6827 9.91179C23.3733 10.0493 22.1637 10.6752 21.295 11.6646C20.4456 12.6313 20.0035 13.9306 20.0871 15.2148C21.397 15.2283 22.6848 14.6194 23.5056 13.5985Z" fill="#FAFAFA"/>
<path d="M4.7945 42.3853L5.19867 41.4095L4.7945 42.3853ZM0.79336 38.3842L-0.182407 38.7883L0.79336 38.3842ZM126.407 38.3842L127.383 38.7883L126.407 38.3842ZM122.406 42.3853L122.002 41.4095L122.406 42.3853ZM122.406 1.26434L122.81 0.288571L122.406 1.26434ZM126.407 5.26548L125.432 5.66965L126.407 5.26548ZM11.3203 1.75773H115.88V-0.354594H11.3203V1.75773ZM125.914 11.7913V31.8584H128.026V11.7913H125.914ZM115.88 41.8919H11.3203V44.0042H115.88V41.8919ZM1.28675 31.8584V11.7913H-0.825572V31.8584H1.28675ZM11.3203 41.8919C9.58346 41.8919 8.33373 41.8913 7.347 41.824C6.36975 41.7573 5.72786 41.6287 5.19867 41.4095L4.39032 43.3611C5.21979 43.7047 6.11841 43.8574 7.20321 43.9314C8.27852 44.0048 9.61236 44.0042 11.3203 44.0042V41.8919ZM-0.825572 31.8584C-0.825572 33.5663 -0.826144 34.9002 -0.752776 35.9755C-0.678761 37.0603 -0.525982 37.9589 -0.182407 38.7883L1.76913 37.98C1.54993 37.4508 1.42133 36.8089 1.35465 35.8317C1.28733 34.8449 1.28675 33.5952 1.28675 31.8584H-0.825572ZM5.19867 41.4095C3.64594 40.7664 2.41229 39.5327 1.76913 37.98L-0.182407 38.7883C0.675146 40.8587 2.32001 42.5035 4.39032 43.3611L5.19867 41.4095ZM125.914 31.8584C125.914 33.5952 125.913 34.8449 125.846 35.8317C125.779 36.8089 125.651 37.4508 125.432 37.98L127.383 38.7883C127.727 37.9589 127.879 37.0603 127.953 35.9755C128.027 34.9001 128.026 33.5663 128.026 31.8584H125.914ZM115.88 44.0042C117.588 44.0042 118.922 44.0048 119.998 43.9314C121.082 43.8574 121.981 43.7047 122.81 43.3611L122.002 41.4095C121.473 41.6287 120.831 41.7573 119.854 41.824C118.867 41.8913 117.617 41.8919 115.88 41.8919V44.0042ZM125.432 37.98C124.788 39.5327 123.555 40.7664 122.002 41.4095L122.81 43.3611C124.881 42.5035 126.526 40.8587 127.383 38.7883L125.432 37.98ZM115.88 1.75773C117.617 1.75773 118.867 1.7583 119.854 1.82563C120.831 1.8923 121.473 2.02091 122.002 2.24011L122.81 0.288571C121.981 -0.0550045 121.082 -0.207783 119.998 -0.281798C118.922 -0.355166 117.588 -0.354594 115.88 -0.354594V1.75773ZM128.026 11.7913C128.026 10.0833 128.027 8.7495 127.953 7.67419C127.879 6.58939 127.727 5.69076 127.383 4.8613L125.432 5.66965C125.651 6.19883 125.779 6.84073 125.846 7.81797C125.913 8.80471 125.914 10.0544 125.914 11.7913H128.026ZM122.002 2.24011C123.555 2.88327 124.788 4.11691 125.432 5.66965L127.383 4.8613C126.526 2.79098 124.881 1.14612 122.81 0.288571L122.002 2.24011ZM11.3203 -0.354594C9.61237 -0.354594 8.27852 -0.355166 7.20321 -0.281798C6.11841 -0.207783 5.21979 -0.0550045 4.39032 0.288571L5.19867 2.24011C5.72786 2.02091 6.36975 1.8923 7.347 1.82563C8.33373 1.7583 9.58346 1.75773 11.3203 1.75773V-0.354594ZM1.28675 11.7913C1.28675 10.0545 1.28733 8.80471 1.35465 7.81798C1.42133 6.84073 1.54993 6.19883 1.76913 5.66965L-0.182407 4.8613C-0.525982 5.69076 -0.678761 6.58939 -0.752776 7.67419C-0.826144 8.7495 -0.825572 10.0834 -0.825572 11.7913H1.28675ZM4.39032 0.288571C2.32001 1.14612 0.675146 2.79098 -0.182407 4.8613L1.76913 5.66965C2.41229 4.11691 3.64594 2.88327 5.19867 2.24011L4.39032 0.288571Z" fill="#8A48EF"/>
<path d="M43.4674 13.8305C44.3828 13.8305 45.1848 13.3689 45.6615 12.6729L44.7384 12.0297C44.4661 12.4534 44.0651 12.7107 43.5127 12.7107C42.62 12.7107 42.0147 11.9844 42.0147 11.1218C42.0147 10.2593 42.6427 9.55566 43.5203 9.55566C44.0651 9.55566 44.4661 9.8129 44.7384 10.2366L45.6615 9.59349C45.1848 8.89741 44.3828 8.43589 43.4674 8.43589C41.9995 8.43589 40.8192 9.65402 40.8192 11.1218C40.8192 12.6048 41.9995 13.8305 43.4674 13.8305ZM47.9713 13.8305C48.9776 13.8305 49.8931 13.089 49.8931 11.9768C49.8931 10.857 48.9776 10.1155 47.9713 10.1155C46.965 10.1155 46.0571 10.857 46.0571 11.9768C46.0571 13.089 46.965 13.8305 47.9713 13.8305ZM47.9713 12.7939C47.5401 12.7939 47.192 12.461 47.192 11.9768C47.192 11.4926 47.5401 11.1521 47.9713 11.1521C48.4026 11.1521 48.7506 11.4926 48.7506 11.9768C48.7506 12.461 48.4026 12.7939 47.9713 12.7939ZM54.9712 10.1155C54.6005 10.1155 54.0557 10.3198 53.8136 10.7889C53.6017 10.3652 53.2159 10.1155 52.6938 10.1155C52.3382 10.1155 51.8086 10.3577 51.7405 10.8948V10.2063H50.6207V13.7397H51.7405V11.8936C51.7405 11.3034 52.0507 11.1521 52.3534 11.1521C52.6333 11.1521 52.9057 11.3488 52.9057 11.8936V13.7397H54.0254V12.0146C54.0254 11.3942 54.2827 11.1521 54.6307 11.1521C54.9182 11.1521 55.1906 11.3261 55.1906 11.8709V13.7397H56.3104V11.8406C56.3104 10.7587 55.8564 10.1155 54.9712 10.1155ZM57.7639 9.67671C58.1423 9.67671 58.4449 9.38164 58.4449 9.02604C58.4449 8.6553 58.1423 8.37536 57.7639 8.37536C57.3856 8.37536 57.0679 8.6553 57.0679 9.02604C57.0679 9.38164 57.3856 9.67671 57.7639 9.67671ZM57.2041 13.7397H58.3238V10.2063H57.2041V13.7397ZM61.3991 10.1155C61.0662 10.1155 60.5063 10.3425 60.3853 10.8419V10.2063H59.2655V13.7397H60.3853V11.9011C60.3853 11.311 60.7636 11.1521 61.0662 11.1521C61.3462 11.1521 61.6791 11.3639 61.6791 11.9087V13.7397H62.7988V11.8406C62.7988 10.7587 62.3373 10.1155 61.3991 10.1155ZM66.3016 10.2063V10.5922C66.0368 10.2593 65.5677 10.1155 65.2045 10.1155C64.3269 10.1155 63.4946 10.8267 63.4946 11.9692C63.4946 13.1117 64.3269 13.8305 65.2045 13.8305C65.5677 13.8305 66.0368 13.6791 66.3016 13.3462V13.4522C66.3016 14.2617 65.9309 14.5871 65.3483 14.5871C64.9776 14.5871 64.6371 14.3525 64.5085 14.065L63.5854 14.4357C63.8654 15.1016 64.5463 15.5706 65.3483 15.5706C66.627 15.5706 67.4138 14.814 67.4138 13.316V10.2063H66.3016ZM65.4467 12.7939C65.0078 12.7939 64.6295 12.4156 64.6295 11.9692C64.6295 11.5228 65.0078 11.1521 65.4467 11.1521C65.8704 11.1521 66.2562 11.5153 66.2562 11.9692C66.2562 12.4232 65.8779 12.7939 65.4467 12.7939ZM71.4587 13.8305C72.1699 13.8305 72.9795 13.4597 72.9795 12.6804C72.9795 12.4383 72.9038 11.8784 72.0186 11.6363L71.4057 11.4699C71.2241 11.4245 71.1031 11.3488 71.1031 11.2126C71.1031 11.0613 71.262 10.9705 71.4511 10.9705C71.6705 10.9705 71.8294 11.084 71.8294 11.311H72.8887C72.9038 10.4258 72.0942 10.1155 71.4284 10.1155C70.5735 10.1155 69.9833 10.6527 69.9833 11.1748C69.9833 11.4699 70.0136 12.06 71.0501 12.34L71.5117 12.461C71.7765 12.5215 71.8597 12.5745 71.8597 12.688C71.8597 12.8544 71.663 12.9755 71.4284 12.9755C71.1107 12.9755 70.982 12.7712 70.982 12.5972H69.9228C69.9228 13.3992 70.6718 13.8305 71.4587 13.8305ZM75.4277 13.8305C76.434 13.8305 77.3495 13.089 77.3495 11.9768C77.3495 10.857 76.434 10.1155 75.4277 10.1155C74.4214 10.1155 73.5135 10.857 73.5135 11.9768C73.5135 13.089 74.4214 13.8305 75.4277 13.8305ZM75.4277 12.7939C74.9965 12.7939 74.6484 12.461 74.6484 11.9768C74.6484 11.4926 74.9965 11.1521 75.4277 11.1521C75.859 11.1521 76.207 11.4926 76.207 11.9768C76.207 12.461 75.859 12.7939 75.4277 12.7939ZM79.7871 13.8305C80.7933 13.8305 81.7088 13.089 81.7088 11.9768C81.7088 10.857 80.7933 10.1155 79.7871 10.1155C78.7808 10.1155 77.8729 10.857 77.8729 11.9768C77.8729 13.089 78.7808 13.8305 79.7871 13.8305ZM79.7871 12.7939C79.3558 12.7939 79.0078 12.461 79.0078 11.9768C79.0078 11.4926 79.3558 11.1521 79.7871 11.1521C80.2183 11.1521 80.5664 11.4926 80.5664 11.9768C80.5664 12.461 80.2183 12.7939 79.7871 12.7939ZM84.5701 10.1155C84.2372 10.1155 83.6773 10.3425 83.5562 10.8419V10.2063H82.4365V13.7397H83.5562V11.9011C83.5562 11.311 83.9345 11.1521 84.2372 11.1521C84.5171 11.1521 84.85 11.3639 84.85 11.9087V13.7397H85.9698V11.8406C85.9698 10.7587 85.5083 10.1155 84.5701 10.1155Z" fill="#FAFAFA"/>
</g>
<defs>
<clipPath id="clip0_34_2563">
<rect width="126.74" height="42.2465" fill="white" transform="translate(0.230591 0.701569)"/>
</clipPath>
</defs>
</svg>
