<svg width="168" height="57" viewBox="0 0 168 57" fill="none" xmlns="http://www.w3.org/2000/svg">
<g clip-path="url(#clip0_16_2222)">
<path d="M0.450195 15.5635C0.450195 11.0105 0.450195 8.73408 1.19401 6.93836C2.18575 4.54407 4.08801 2.64181 6.4823 1.65006C8.27802 0.90625 10.5545 0.90625 15.1074 0.90625H153.304C157.857 0.90625 160.134 0.90625 161.929 1.65006C164.324 2.64181 166.226 4.54407 167.218 6.93836C167.962 8.73408 167.962 11.0105 167.962 15.5635V42.0861C167.962 46.6391 167.962 48.9156 167.218 50.7113C166.226 53.1056 164.324 55.0078 161.929 55.9996C160.134 56.7434 157.857 56.7434 153.304 56.7434H15.1074C10.5545 56.7434 8.27802 56.7434 6.4823 55.9996C4.08801 55.0078 2.18575 53.1056 1.19401 50.7113C0.450195 48.9156 0.450195 46.6391 0.450195 42.0861V15.5635Z" fill="white"/>
<path d="M114.254 27.7092V30.9073H112.25V33.0046H114.254V40.1308C114.254 42.5641 115.355 43.5374 118.125 43.5374C118.611 43.5374 119.075 43.4795 119.48 43.41V41.3358C119.133 41.3706 118.913 41.3938 118.53 41.3938C117.29 41.3938 116.746 40.8144 116.746 39.4935V33.0046H119.48V30.9073H116.746V27.7092H114.254Z" fill="#8A48EF"/>
<path d="M126.535 43.7112C130.22 43.7112 132.479 41.2431 132.479 37.1528C132.479 33.0857 130.208 30.606 126.535 30.606C122.85 30.606 120.579 33.0857 120.579 37.1528C120.579 41.2431 122.839 43.7112 126.535 43.7112ZM126.535 41.4981C124.368 41.4981 123.152 39.9106 123.152 37.1528C123.152 34.4182 124.368 32.8192 126.535 32.8192C128.69 32.8192 129.919 34.4182 129.919 37.1528C129.919 39.899 128.69 41.4981 126.535 41.4981Z" fill="#8A48EF"/>
<path d="M134.413 43.4679H136.904V36.0173C136.904 34.2444 138.236 33.0509 140.125 33.0509C140.565 33.0509 141.307 33.132 141.516 33.2016V30.7451C141.249 30.6755 140.774 30.6408 140.403 30.6408C138.758 30.6408 137.356 31.5446 136.997 32.7844H136.811V30.8493H134.413V43.4679Z" fill="#8A48EF"/>
<path d="M147.701 32.7265C149.544 32.7265 150.749 34.0127 150.807 35.9941H144.434C144.573 34.0243 145.859 32.7265 147.701 32.7265ZM150.795 40.0612C150.332 41.0462 149.3 41.5908 147.794 41.5908C145.801 41.5908 144.515 40.1887 144.434 37.9755V37.8365H153.344V36.9674C153.344 33.0046 151.224 30.606 147.713 30.606C144.156 30.606 141.896 33.1668 141.896 37.1992C141.896 41.2316 144.109 43.7112 147.725 43.7112C150.61 43.7112 152.626 42.3208 153.194 40.0612H150.795Z" fill="#8A48EF"/>
<path d="M97.9171 38.8081C98.1092 41.9066 100.691 43.8883 104.535 43.8883C108.642 43.8883 111.212 41.8105 111.212 38.4958C111.212 35.8897 109.747 34.4485 106.192 33.6198L104.282 33.1514C102.024 32.623 101.112 31.9144 101.112 30.6774C101.112 29.1161 102.529 28.0952 104.655 28.0952C106.672 28.0952 108.065 29.0921 108.318 30.6894H110.936C110.78 27.771 108.21 25.7173 104.691 25.7173C100.908 25.7173 98.3855 27.771 98.3855 30.8575C98.3855 33.4036 99.8146 34.9169 102.949 35.6495L105.183 36.1899C107.477 36.7304 108.486 37.523 108.486 38.8441C108.486 40.3814 106.9 41.4983 104.739 41.4983C102.421 41.4983 100.811 40.4534 100.583 38.8081H97.9171Z" fill="#8A48EF"/>
<path d="M72.1101 30.6408C70.3952 30.6408 68.912 31.4982 68.1472 32.9351H67.9618V30.8493H65.5633V47.6625H68.0545V41.556H68.2515C68.912 42.8885 70.3372 43.6765 72.1332 43.6765C75.3198 43.6765 77.3475 41.162 77.3475 37.1528C77.3475 33.1436 75.3198 30.6408 72.1101 30.6408ZM71.4032 41.4401C69.3175 41.4401 68.0082 39.7947 68.0082 37.1644C68.0082 34.5225 69.3175 32.8771 71.4148 32.8771C73.5237 32.8771 74.7867 34.4878 74.7867 37.1528C74.7867 39.8295 73.5237 41.4401 71.4032 41.4401Z" fill="#8A48EF"/>
<path d="M86.0649 30.6408C84.35 30.6408 82.8668 31.4982 82.102 32.9351H81.9166V30.8493H79.5181V47.6625H82.0093V41.556H82.2063C82.8668 42.8885 84.292 43.6765 86.0881 43.6765C89.2746 43.6765 91.3023 41.162 91.3023 37.1528C91.3023 33.1436 89.2746 30.6408 86.0649 30.6408ZM85.3581 41.4401C83.2723 41.4401 81.963 39.7947 81.963 37.1644C81.963 34.5225 83.2723 32.8771 85.3696 32.8771C87.4785 32.8771 88.7416 34.4878 88.7416 37.1528C88.7416 39.8295 87.4785 41.4401 85.3581 41.4401Z" fill="#8A48EF"/>
<path d="M61.0935 43.4679H63.9518L57.6947 26.1376H54.8003L48.5432 43.4679H51.3054L52.9027 38.8681H59.5082L61.0935 43.4679ZM56.1094 29.2842H56.3136L58.8236 36.6103H53.5873L56.1094 29.2842Z" fill="#8A48EF"/>
<path d="M35.0259 29.2447C35.0562 26.8981 36.3164 24.6778 38.3155 23.4487C37.0543 21.6475 34.9419 20.5055 32.7441 20.4368C30.4 20.1907 28.1275 21.8394 26.933 21.8394C25.7154 21.8394 23.8763 20.4612 21.8958 20.5019C19.3144 20.5853 16.9079 22.053 15.6519 24.3098C12.9522 28.984 14.966 35.8534 17.5521 39.6317C18.846 41.4818 20.3581 43.5484 22.3368 43.4751C24.273 43.3948 24.9962 42.2404 27.3334 42.2404C29.6489 42.2404 30.3274 43.4751 32.3462 43.4285C34.4238 43.3947 35.7329 41.5702 36.9814 39.7025C37.911 38.3843 38.6264 36.9273 39.101 35.3856C36.6593 34.3529 35.0288 31.8958 35.0259 29.2447Z" fill="#8A48EF"/>
<path d="M31.2127 17.952C32.3455 16.5921 32.9037 14.8441 32.7685 13.0793C31.0378 13.2611 29.4391 14.0883 28.291 15.396C27.1682 16.6738 26.584 18.391 26.6944 20.0883C28.4258 20.1061 30.1278 19.3014 31.2127 17.952Z" fill="#8A48EF"/>
<path d="M6.4823 55.9996L7.0165 54.7099L6.4823 55.9996ZM1.19401 50.7113L2.48368 50.1771L1.19401 50.7113ZM167.218 50.7113L165.928 50.1771L167.218 50.7113ZM161.929 55.9996L161.395 54.7099L161.929 55.9996ZM167.218 6.93836L168.507 6.40416L167.218 6.93836ZM6.4823 1.65006L5.9481 0.360391L6.4823 1.65006ZM1.19401 6.93836L-0.0956632 6.40416L1.19401 6.93836ZM15.1074 2.30218H153.304V-0.489678H15.1074V2.30218ZM166.566 15.5635V42.0861H169.358V15.5635H166.566ZM153.304 55.3475H15.1074V58.1393H153.304V55.3475ZM1.84612 42.0861V15.5635H-0.945733V42.0861H1.84612ZM15.1074 55.3475C12.8119 55.3475 11.1601 55.3467 9.85594 55.2577C8.56431 55.1696 7.71592 54.9996 7.0165 54.7099L5.9481 57.2892C7.0444 57.7433 8.23211 57.9453 9.66589 58.0431C11.0871 58.1401 12.8501 58.1393 15.1074 58.1393V55.3475ZM-0.945733 42.0861C-0.945733 44.3435 -0.946489 46.1064 -0.849519 47.5277C-0.751693 48.9615 -0.549766 50.1492 -0.0956632 51.2455L2.48368 50.1771C2.19397 49.4777 2.02399 48.6293 1.93586 47.3376C1.84688 46.0335 1.84612 44.3817 1.84612 42.0861H-0.945733ZM7.0165 54.7099C4.96425 53.8598 3.33375 52.2293 2.48368 50.1771L-0.0956632 51.2455C1.03776 53.9818 3.21177 56.1558 5.9481 57.2892L7.0165 54.7099ZM166.566 42.0861C166.566 44.3817 166.565 46.0335 166.476 47.3376C166.388 48.6293 166.218 49.4777 165.928 50.1771L168.507 51.2455C168.962 50.1492 169.163 48.9615 169.261 47.5277C169.358 46.1065 169.358 44.3435 169.358 42.0861H166.566ZM153.304 58.1393C155.562 58.1393 157.325 58.1401 158.746 58.0431C160.18 57.9453 161.367 57.7433 162.464 57.2892L161.395 54.7099C160.696 54.9996 159.847 55.1696 158.556 55.2577C157.252 55.3467 155.6 55.3475 153.304 55.3475V58.1393ZM165.928 50.1771C165.078 52.2293 163.448 53.8598 161.395 54.7099L162.464 57.2892C165.2 56.1558 167.374 53.9818 168.507 51.2455L165.928 50.1771ZM153.304 2.30218C155.6 2.30218 157.252 2.30293 158.556 2.39192C159.847 2.48004 160.696 2.65002 161.395 2.93973L162.464 0.360391C161.367 -0.0937112 160.18 -0.295638 158.746 -0.393464C157.325 -0.490434 155.562 -0.489678 153.304 -0.489678V2.30218ZM169.358 15.5635C169.358 13.3061 169.358 11.5432 169.261 10.1219C169.163 8.68817 168.962 7.50046 168.507 6.40416L165.928 7.47256C166.218 8.17197 166.388 9.02036 166.476 10.312C166.565 11.6162 166.566 13.2679 166.566 15.5635H169.358ZM161.395 2.93973C163.448 3.7898 165.078 5.42031 165.928 7.47256L168.507 6.40416C167.374 3.66783 165.2 1.49382 162.464 0.360391L161.395 2.93973ZM15.1074 -0.489678C12.8501 -0.489678 11.0871 -0.490434 9.66589 -0.393464C8.23211 -0.295638 7.0444 -0.0937112 5.9481 0.360391L7.0165 2.93973C7.71592 2.65002 8.56431 2.48004 9.85593 2.39192C11.1601 2.30293 12.8119 2.30218 15.1074 2.30218V-0.489678ZM1.84612 15.5635C1.84612 13.2679 1.84688 11.6162 1.93586 10.312C2.02399 9.02036 2.19397 8.17197 2.48368 7.47256L-0.0956632 6.40416C-0.549766 7.50046 -0.751693 8.68817 -0.849519 10.1219C-0.946489 11.5432 -0.945733 13.3061 -0.945733 15.5635H1.84612ZM5.9481 0.360391C3.21177 1.49382 1.03776 3.66783 -0.0956632 6.40416L2.48368 7.47256C3.33375 5.42031 4.96425 3.7898 7.0165 2.93973L5.9481 0.360391Z" fill="#8A48EF"/>
<path d="M57.5961 18.3983C58.8061 18.3983 59.8661 17.7883 60.4961 16.8683L59.2761 16.0183C58.9161 16.5783 58.3861 16.9183 57.6561 16.9183C56.4761 16.9183 55.6761 15.9583 55.6761 14.8183C55.6761 13.6783 56.5061 12.7483 57.6661 12.7483C58.3861 12.7483 58.9161 13.0883 59.2761 13.6483L60.4961 12.7983C59.8661 11.8783 58.8061 11.2683 57.5961 11.2683C55.6561 11.2683 54.0961 12.8783 54.0961 14.8183C54.0961 16.7783 55.6561 18.3983 57.5961 18.3983ZM63.5489 18.3983C64.8789 18.3983 66.0889 17.4183 66.0889 15.9483C66.0889 14.4683 64.8789 13.4883 63.5489 13.4883C62.2189 13.4883 61.0189 14.4683 61.0189 15.9483C61.0189 17.4183 62.2189 18.3983 63.5489 18.3983ZM63.5489 17.0283C62.9789 17.0283 62.5189 16.5883 62.5189 15.9483C62.5189 15.3083 62.9789 14.8583 63.5489 14.8583C64.1189 14.8583 64.5789 15.3083 64.5789 15.9483C64.5789 16.5883 64.1189 17.0283 63.5489 17.0283ZM72.8007 13.4883C72.3107 13.4883 71.5907 13.7583 71.2707 14.3783C70.9907 13.8183 70.4807 13.4883 69.7907 13.4883C69.3207 13.4883 68.6207 13.8083 68.5307 14.5183V13.6083H67.0507V18.2783H68.5307V15.8383C68.5307 15.0583 68.9407 14.8583 69.3407 14.8583C69.7107 14.8583 70.0707 15.1183 70.0707 15.8383V18.2783H71.5507V15.9983C71.5507 15.1783 71.8907 14.8583 72.3507 14.8583C72.7307 14.8583 73.0907 15.0883 73.0907 15.8083V18.2783H74.5707V15.7683C74.5707 14.3383 73.9707 13.4883 72.8007 13.4883ZM76.4918 12.9083C76.9918 12.9083 77.3918 12.5183 77.3918 12.0483C77.3918 11.5583 76.9918 11.1883 76.4918 11.1883C75.9918 11.1883 75.5718 11.5583 75.5718 12.0483C75.5718 12.5183 75.9918 12.9083 76.4918 12.9083ZM75.7518 18.2783H77.2318V13.6083H75.7518V18.2783ZM81.2964 13.4883C80.8564 13.4883 80.1164 13.7883 79.9564 14.4483V13.6083H78.4764V18.2783H79.9564V15.8483C79.9564 15.0683 80.4564 14.8583 80.8564 14.8583C81.2264 14.8583 81.6664 15.1383 81.6664 15.8583V18.2783H83.1464V15.7683C83.1464 14.3383 82.5364 13.4883 81.2964 13.4883ZM87.7761 13.6083V14.1183C87.4261 13.6783 86.8061 13.4883 86.3261 13.4883C85.1661 13.4883 84.0661 14.4283 84.0661 15.9383C84.0661 17.4483 85.1661 18.3983 86.3261 18.3983C86.8061 18.3983 87.4261 18.1983 87.7761 17.7583V17.8983C87.7761 18.9683 87.2861 19.3983 86.5161 19.3983C86.0261 19.3983 85.5761 19.0883 85.4061 18.7083L84.1861 19.1983C84.5561 20.0783 85.4561 20.6983 86.5161 20.6983C88.2061 20.6983 89.2461 19.6983 89.2461 17.7183V13.6083H87.7761ZM86.6461 17.0283C86.0661 17.0283 85.5661 16.5283 85.5661 15.9383C85.5661 15.3483 86.0661 14.8583 86.6461 14.8583C87.2061 14.8583 87.7161 15.3383 87.7161 15.9383C87.7161 16.5383 87.2161 17.0283 86.6461 17.0283ZM94.5921 18.3983C95.5321 18.3983 96.6021 17.9083 96.6021 16.8783C96.6021 16.5583 96.5021 15.8183 95.3321 15.4983L94.5221 15.2783C94.2821 15.2183 94.1221 15.1183 94.1221 14.9383C94.1221 14.7383 94.3321 14.6183 94.5821 14.6183C94.8721 14.6183 95.0821 14.7683 95.0821 15.0683H96.4821C96.5021 13.8983 95.4321 13.4883 94.5521 13.4883C93.4221 13.4883 92.6421 14.1983 92.6421 14.8883C92.6421 15.2783 92.6821 16.0583 94.0521 16.4283L94.6621 16.5883C95.0121 16.6683 95.1221 16.7383 95.1221 16.8883C95.1221 17.1083 94.8621 17.2683 94.5521 17.2683C94.1321 17.2683 93.9621 16.9983 93.9621 16.7683H92.5621C92.5621 17.8283 93.5521 18.3983 94.5921 18.3983ZM99.838 18.3983C101.168 18.3983 102.378 17.4183 102.378 15.9483C102.378 14.4683 101.168 13.4883 99.838 13.4883C98.508 13.4883 97.308 14.4683 97.308 15.9483C97.308 17.4183 98.508 18.3983 99.838 18.3983ZM99.838 17.0283C99.268 17.0283 98.808 16.5883 98.808 15.9483C98.808 15.3083 99.268 14.8583 99.838 14.8583C100.408 14.8583 100.868 15.3083 100.868 15.9483C100.868 16.5883 100.408 17.0283 99.838 17.0283ZM105.6 18.3983C106.93 18.3983 108.14 17.4183 108.14 15.9483C108.14 14.4683 106.93 13.4883 105.6 13.4883C104.27 13.4883 103.07 14.4683 103.07 15.9483C103.07 17.4183 104.27 18.3983 105.6 18.3983ZM105.6 17.0283C105.03 17.0283 104.57 16.5883 104.57 15.9483C104.57 15.3083 105.03 14.8583 105.6 14.8583C106.17 14.8583 106.63 15.3083 106.63 15.9483C106.63 16.5883 106.17 17.0283 105.6 17.0283ZM111.921 13.4883C111.481 13.4883 110.741 13.7883 110.581 14.4483V13.6083H109.101V18.2783H110.581V15.8483C110.581 15.0683 111.081 14.8583 111.481 14.8583C111.851 14.8583 112.291 15.1383 112.291 15.8583V18.2783H113.771V15.7683C113.771 14.3383 113.161 13.4883 111.921 13.4883Z" fill="#8A48EF"/>
</g>
<defs>
<clipPath id="clip0_16_2222">
<rect width="167.511" height="55.8371" fill="white" transform="translate(0.450195 0.90625)"/>
</clipPath>
</defs>
</svg>
