<svg width="1440" height="210" viewBox="0 0 1440 210" fill="none" xmlns="http://www.w3.org/2000/svg">
<path d="M-22.32 38.7236H-12.804C-3.756 38.7236 3.316 32.2756 3.316 20.5236C3.316 8.77163 -3.756 2.32363 -12.804 2.32363H-22.32V38.7236ZM-19.928 36.4876V4.55963H-12.752C-5.264 4.55963 0.872001 9.70763 0.872001 20.5236C0.872001 31.3396 -5.264 36.4876 -12.752 36.4876H-19.928ZM8.50381 25.6196C8.39981 32.4836 13.2358 39.2956 20.6198 39.1396C28.0038 39.2956 32.8398 32.4836 32.7358 25.6196C32.8398 18.7556 28.0038 11.9436 20.6198 12.0996C13.2358 11.9436 8.39981 18.7556 8.50381 25.6196ZM30.3958 25.6196C30.3958 31.4956 26.7558 37.0076 20.6198 37.0076C14.5358 37.0076 10.8958 31.4956 10.8958 25.6196C10.8958 19.6916 14.5358 14.2316 20.6198 14.2316C26.7558 14.2316 30.3958 19.6916 30.3958 25.6196ZM37.703 25.6196C37.703 32.7956 41.811 39.1396 49.039 39.1396C54.083 39.1396 57.515 36.7476 59.283 31.9116L57.255 31.1316C55.747 35.0836 53.251 37.0076 49.039 37.0076C43.215 37.0076 40.095 31.8076 40.095 25.6196C40.095 22.3956 40.875 19.6916 42.435 17.5076C43.995 15.3236 46.179 14.2316 49.039 14.2316C53.147 14.2316 55.747 16.1036 57.203 20.0556L59.231 19.2756C57.515 14.4396 54.187 12.0996 49.039 12.0996C41.811 12.0996 37.703 18.4436 37.703 25.6196ZM66.7649 31.8076C66.7649 36.7996 69.0009 39.1396 72.6929 39.1396C74.4089 39.1396 75.7609 38.8276 76.8529 38.1516L76.2289 36.1236C75.3449 36.6956 74.2529 37.0076 72.9529 37.0076C70.4569 37.0076 69.0529 35.4996 69.0529 32.3276V14.6476H76.1769V12.5156H69.0529V1.90763L66.7649 3.46763V12.5156H62.0849V14.6476H66.7649V31.8076ZM79.5468 25.6196C79.4428 32.4836 84.2788 39.2956 91.6628 39.1396C99.0468 39.2956 103.883 32.4836 103.779 25.6196C103.883 18.7556 99.0468 11.9436 91.6628 12.0996C84.2788 11.9436 79.4428 18.7556 79.5468 25.6196ZM101.439 25.6196C101.439 31.4956 97.7988 37.0076 91.6628 37.0076C85.5788 37.0076 81.9388 31.4956 81.9388 25.6196C81.9388 19.6916 85.5788 14.2316 91.6628 14.2316C97.7988 14.2316 101.439 19.6916 101.439 25.6196ZM110.306 38.7236H112.594V25.4116C112.594 18.4956 115.714 14.2316 119.562 14.2316C120.862 14.2316 121.954 14.4916 122.89 15.0116L123.462 12.8276C122.318 12.3596 121.122 12.0996 119.926 12.0996C116.598 12.0996 114.102 13.8156 112.594 17.1436V12.5156H110.306V38.7236Z" fill="#8C8C8C"/>
<path d="M157.496 25.6196C157.392 32.4836 162.228 39.2956 169.612 39.1396C176.996 39.2956 181.832 32.4836 181.728 25.6196C181.832 18.7556 176.996 11.9436 169.612 12.0996C162.228 11.9436 157.392 18.7556 157.496 25.6196ZM179.388 25.6196C179.388 31.4956 175.748 37.0076 169.612 37.0076C163.528 37.0076 159.888 31.4956 159.888 25.6196C159.888 19.6916 163.528 14.2316 169.612 14.2316C175.748 14.2316 179.388 19.6916 179.388 25.6196ZM185.982 32.1716C187.022 36.2796 189.986 39.1396 195.03 39.1396C199.606 39.1396 202.882 36.1756 202.882 31.5476C202.882 28.0636 200.698 25.6196 196.33 24.2156C191.962 22.7076 189.986 21.3036 189.986 18.6516C189.986 15.8956 192.066 14.2316 194.614 14.2316C197.006 14.2316 198.878 15.3236 200.178 17.5076L201.79 16.1556C200.23 13.4516 197.89 12.0996 194.77 12.0996C190.766 12.0996 187.698 14.6476 187.698 18.6516C187.698 22.3436 190.142 24.5276 194.666 25.9316C198.566 27.0236 200.542 28.8436 200.542 31.5996C200.542 34.9276 198.202 37.0076 195.03 37.0076C191.078 37.0076 189.05 34.9796 188.01 31.1836L185.982 32.1716ZM210.171 31.8076C210.171 36.7996 212.407 39.1396 216.099 39.1396C217.815 39.1396 219.167 38.8276 220.259 38.1516L219.635 36.1236C218.751 36.6956 217.659 37.0076 216.359 37.0076C213.863 37.0076 212.459 35.4996 212.459 32.3276V14.6476H219.583V12.5156H212.459V1.90763L210.171 3.46763V12.5156H205.491V14.6476H210.171V31.8076ZM245.573 25.4636V24.0076C245.573 16.9876 240.997 12.0996 234.445 12.0996C227.945 12.0996 222.953 17.6636 222.953 25.6196C222.953 33.2636 227.581 39.1396 234.393 39.1396C239.229 39.1396 242.401 37.1116 244.897 32.0676L242.869 31.1316C240.789 35.3436 238.501 37.0076 234.393 37.0076C228.777 37.0076 225.293 31.7556 225.293 25.6196V25.4636H245.573ZM225.449 23.3316C226.281 17.7156 230.025 14.2316 234.445 14.2316C239.645 14.2316 242.869 17.7156 243.233 23.3316H225.449ZM250.578 25.6196C250.474 32.4836 255.31 39.2956 262.694 39.1396C270.078 39.2956 274.914 32.4836 274.81 25.6196C274.914 18.7556 270.078 11.9436 262.694 12.0996C255.31 11.9436 250.474 18.7556 250.578 25.6196ZM272.47 25.6196C272.47 31.4956 268.83 37.0076 262.694 37.0076C256.61 37.0076 252.97 31.4956 252.97 25.6196C252.97 19.6916 256.61 14.2316 262.694 14.2316C268.83 14.2316 272.47 19.6916 272.47 25.6196ZM281.337 49.3316H283.625V35.8116C283.625 34.7196 283.625 33.9396 283.573 33.4716C285.393 36.8516 288.669 39.1396 292.777 39.1396C299.901 39.1396 304.165 33.3156 304.165 25.6196C304.165 17.9236 299.901 12.0996 292.777 12.0996C288.669 12.0996 284.977 14.4916 283.573 18.0276C283.625 17.4556 283.625 16.6756 283.625 15.5836V12.5156H281.337V49.3316ZM301.825 25.6196C301.825 32.0156 298.341 37.0076 292.621 37.0076C286.849 37.0076 283.417 32.0156 283.417 25.6196C283.417 22.2916 284.249 19.5876 285.861 17.4556C287.473 15.3236 289.761 14.2316 292.621 14.2316C295.481 14.2316 297.717 15.3236 299.329 17.4556C300.993 19.5876 301.825 22.2916 301.825 25.6196ZM308.979 31.2356C308.979 36.4356 312.411 39.1396 317.039 39.1396C320.835 39.1396 323.747 37.5276 325.723 34.3556L326.243 38.7236H328.011V20.9396C328.011 15.3756 324.475 12.0996 319.067 12.0996C314.491 12.0996 310.799 14.6476 309.915 19.0676L312.099 19.5876C312.931 16.2076 315.479 14.2316 319.067 14.2316C323.227 14.2316 325.723 16.4156 325.723 21.0436V22.9676H319.899C313.191 22.9676 308.979 25.8276 308.979 31.2356ZM325.723 28.0116C325.723 33.9916 321.251 37.0076 317.351 37.0076C313.763 37.0076 311.371 34.9276 311.371 31.2356C311.371 27.4396 314.335 25.0996 320.003 25.0996H325.723V28.0116ZM336.769 31.8076C336.769 36.7996 339.005 39.1396 342.697 39.1396C344.413 39.1396 345.765 38.8276 346.857 38.1516L346.233 36.1236C345.349 36.6956 344.257 37.0076 342.957 37.0076C340.461 37.0076 339.057 35.4996 339.057 32.3276V14.6476H346.181V12.5156H339.057V1.90763L336.769 3.46763V12.5156H332.089V14.6476H336.769V31.8076ZM351.822 38.7236H354.11V26.0876C354.11 19.1716 358.01 14.2316 363.21 14.2316C367.422 14.2316 369.658 16.6236 369.658 21.1476V38.7236H371.946V20.8876C371.946 15.2196 368.982 12.0996 363.626 12.0996C359.466 12.0996 355.826 14.2836 354.11 18.5996V1.90763H351.822V38.7236ZM393.449 12.5156L385.597 34.4076L377.745 12.5156H375.301L384.349 37.8396L380.241 49.3316H382.581L395.841 12.5156H393.449Z" fill="#8C8C8C"/>
<path d="M431.056 49.3316H433.344V35.8116C433.344 34.7196 433.344 33.9396 433.292 33.4716C435.112 36.8516 438.388 39.1396 442.496 39.1396C449.62 39.1396 453.884 33.3156 453.884 25.6196C453.884 17.9236 449.62 12.0996 442.496 12.0996C438.388 12.0996 434.696 14.4916 433.292 18.0276C433.344 17.4556 433.344 16.6756 433.344 15.5836V12.5156H431.056V49.3316ZM451.544 25.6196C451.544 32.0156 448.06 37.0076 442.34 37.0076C436.568 37.0076 433.136 32.0156 433.136 25.6196C433.136 22.2916 433.968 19.5876 435.58 17.4556C437.192 15.3236 439.48 14.2316 442.34 14.2316C445.2 14.2316 447.436 15.3236 449.048 17.4556C450.712 19.5876 451.544 22.2916 451.544 25.6196ZM458.898 25.6196C458.794 32.4836 463.63 39.2956 471.014 39.1396C478.398 39.2956 483.234 32.4836 483.13 25.6196C483.234 18.7556 478.398 11.9436 471.014 12.0996C463.63 11.9436 458.794 18.7556 458.898 25.6196ZM480.79 25.6196C480.79 31.4956 477.15 37.0076 471.014 37.0076C464.93 37.0076 461.29 31.4956 461.29 25.6196C461.29 19.6916 464.93 14.2316 471.014 14.2316C477.15 14.2316 480.79 19.6916 480.79 25.6196ZM488.098 25.6196C488.098 33.3156 492.362 39.1396 499.486 39.1396C503.594 39.1396 507.286 36.7476 508.69 33.2116L508.638 35.6556V38.7236H510.926V1.90763H508.638V15.4276L508.69 17.7156C506.87 14.2316 503.75 12.0996 499.538 12.0996C492.466 12.0996 488.098 17.9236 488.098 25.6196ZM508.846 25.6196C508.846 28.8956 508.014 31.6516 506.402 33.7836C504.79 35.9156 502.554 37.0076 499.694 37.0076C496.834 37.0076 494.598 35.9156 492.934 33.7836C491.322 31.6516 490.49 28.8956 490.49 25.6196C490.49 19.2236 493.922 14.2316 499.694 14.2316C505.362 14.2316 508.846 19.2236 508.846 25.6196ZM519.06 38.7236H521.348V12.5156H519.06V38.7236ZM518.176 4.97563C518.176 6.06763 519.112 7.00363 520.204 7.00363C521.4 7.00363 522.232 6.17163 522.232 4.97563C522.232 3.77963 521.4 2.94763 520.204 2.94763C519.008 2.94763 518.176 3.77963 518.176 4.97563ZM527.76 31.2356C527.76 36.4356 531.192 39.1396 535.82 39.1396C539.616 39.1396 542.528 37.5276 544.504 34.3556L545.024 38.7236H546.792V20.9396C546.792 15.3756 543.256 12.0996 537.848 12.0996C533.272 12.0996 529.58 14.6476 528.696 19.0676L530.88 19.5876C531.712 16.2076 534.26 14.2316 537.848 14.2316C542.008 14.2316 544.504 16.4156 544.504 21.0436V22.9676H538.68C531.972 22.9676 527.76 25.8276 527.76 31.2356ZM544.504 28.0116C544.504 33.9916 540.032 37.0076 536.132 37.0076C532.544 37.0076 530.152 34.9276 530.152 31.2356C530.152 27.4396 533.116 25.0996 538.784 25.0996H544.504V28.0116ZM555.55 31.8076C555.55 36.7996 557.786 39.1396 561.478 39.1396C563.194 39.1396 564.546 38.8276 565.638 38.1516L565.014 36.1236C564.13 36.6956 563.038 37.0076 561.738 37.0076C559.242 37.0076 557.838 35.4996 557.838 32.3276V14.6476H564.962V12.5156H557.838V1.90763L555.55 3.46763V12.5156H550.87V14.6476H555.55V31.8076ZM570.755 38.7236H573.043V25.4116C573.043 18.4956 576.163 14.2316 580.011 14.2316C581.311 14.2316 582.403 14.4916 583.339 15.0116L583.911 12.8276C582.767 12.3596 581.571 12.0996 580.375 12.0996C577.047 12.0996 574.551 13.8156 573.043 17.1436V12.5156H570.755V38.7236ZM588.783 38.7236H591.071V12.5156H588.783V38.7236ZM587.899 4.97563C587.899 6.06763 588.835 7.00363 589.927 7.00363C591.123 7.00363 591.955 6.17163 591.955 4.97563C591.955 3.77963 591.123 2.94763 589.927 2.94763C588.731 2.94763 587.899 3.77963 587.899 4.97563ZM596.818 32.1716C597.858 36.2796 600.822 39.1396 605.866 39.1396C610.442 39.1396 613.718 36.1756 613.718 31.5476C613.718 28.0636 611.534 25.6196 607.166 24.2156C602.798 22.7076 600.822 21.3036 600.822 18.6516C600.822 15.8956 602.902 14.2316 605.45 14.2316C607.842 14.2316 609.714 15.3236 611.014 17.5076L612.626 16.1556C611.066 13.4516 608.726 12.0996 605.606 12.0996C601.602 12.0996 598.534 14.6476 598.534 18.6516C598.534 22.3436 600.978 24.5276 605.502 25.9316C609.402 27.0236 611.378 28.8436 611.378 31.5996C611.378 34.9276 609.038 37.0076 605.866 37.0076C601.914 37.0076 599.886 34.9796 598.846 31.1836L596.818 32.1716ZM621.007 31.8076C621.007 36.7996 623.243 39.1396 626.935 39.1396C628.651 39.1396 630.003 38.8276 631.095 38.1516L630.471 36.1236C629.587 36.6956 628.495 37.0076 627.195 37.0076C624.699 37.0076 623.295 35.4996 623.295 32.3276V14.6476H630.419V12.5156H623.295V1.90763L621.007 3.46763V12.5156H616.327V14.6476H621.007V31.8076Z" fill="#8C8C8C"/>
<path d="M665.496 25.6196C665.496 33.3156 669.76 39.1396 676.884 39.1396C680.992 39.1396 684.684 36.7476 686.088 33.2116L686.036 35.6556V38.7236H688.324V1.90763H686.036V15.4276L686.088 17.7156C684.268 14.2316 681.148 12.0996 676.936 12.0996C669.864 12.0996 665.496 17.9236 665.496 25.6196ZM686.244 25.6196C686.244 28.8956 685.412 31.6516 683.8 33.7836C682.188 35.9156 679.952 37.0076 677.092 37.0076C674.232 37.0076 671.996 35.9156 670.332 33.7836C668.72 31.6516 667.888 28.8956 667.888 25.6196C667.888 19.2236 671.32 14.2316 677.092 14.2316C682.76 14.2316 686.244 19.2236 686.244 25.6196ZM717.518 25.4636V24.0076C717.518 16.9876 712.942 12.0996 706.39 12.0996C699.89 12.0996 694.898 17.6636 694.898 25.6196C694.898 33.2636 699.526 39.1396 706.338 39.1396C711.174 39.1396 714.346 37.1116 716.842 32.0676L714.814 31.1316C712.734 35.3436 710.446 37.0076 706.338 37.0076C700.722 37.0076 697.238 31.7556 697.238 25.6196V25.4636H717.518ZM697.394 23.3316C698.226 17.7156 701.97 14.2316 706.39 14.2316C711.59 14.2316 714.814 17.7156 715.178 23.3316H697.394ZM724.083 38.7236H726.371V25.9316C726.371 19.0676 730.011 14.2316 735.159 14.2316C739.267 14.2316 741.347 16.6236 741.347 21.1476V38.7236H743.635V20.8876C743.635 15.2716 740.723 12.0996 735.575 12.0996C731.467 12.0996 728.087 14.3876 726.371 18.3396V12.5156H724.083V38.7236ZM752.601 31.8076C752.601 36.7996 754.837 39.1396 758.529 39.1396C760.245 39.1396 761.597 38.8276 762.689 38.1516L762.065 36.1236C761.181 36.6956 760.089 37.0076 758.789 37.0076C756.293 37.0076 754.889 35.4996 754.889 32.3276V14.6476H762.013V12.5156H754.889V1.90763L752.601 3.46763V12.5156H747.921V14.6476H752.601V31.8076ZM768.212 38.7236H770.5V12.5156H768.212V38.7236ZM767.328 4.97563C767.328 6.06763 768.264 7.00363 769.356 7.00363C770.552 7.00363 771.384 6.17163 771.384 4.97563C771.384 3.77963 770.552 2.94763 769.356 2.94763C768.16 2.94763 767.328 3.77963 767.328 4.97563ZM776.247 32.1716C777.287 36.2796 780.251 39.1396 785.295 39.1396C789.871 39.1396 793.147 36.1756 793.147 31.5476C793.147 28.0636 790.963 25.6196 786.595 24.2156C782.227 22.7076 780.251 21.3036 780.251 18.6516C780.251 15.8956 782.331 14.2316 784.879 14.2316C787.271 14.2316 789.143 15.3236 790.443 17.5076L792.055 16.1556C790.495 13.4516 788.155 12.0996 785.035 12.0996C781.031 12.0996 777.963 14.6476 777.963 18.6516C777.963 22.3436 780.407 24.5276 784.931 25.9316C788.831 27.0236 790.807 28.8436 790.807 31.5996C790.807 34.9276 788.467 37.0076 785.295 37.0076C781.343 37.0076 779.315 34.9796 778.275 31.1836L776.247 32.1716ZM800.437 31.8076C800.437 36.7996 802.673 39.1396 806.365 39.1396C808.081 39.1396 809.433 38.8276 810.525 38.1516L809.901 36.1236C809.017 36.6956 807.925 37.0076 806.625 37.0076C804.129 37.0076 802.725 35.4996 802.725 32.3276V14.6476H809.849V12.5156H802.725V1.90763L800.437 3.46763V12.5156H795.757V14.6476H800.437V31.8076Z" fill="#8C8C8C"/>
<path d="M844.496 25.6196C844.496 32.7956 848.604 39.1396 855.832 39.1396C860.876 39.1396 864.308 36.7476 866.076 31.9116L864.048 31.1316C862.54 35.0836 860.044 37.0076 855.832 37.0076C850.008 37.0076 846.888 31.8076 846.888 25.6196C846.888 22.3956 847.668 19.6916 849.228 17.5076C850.788 15.3236 852.972 14.2316 855.832 14.2316C859.94 14.2316 862.54 16.1036 863.996 20.0556L866.024 19.2756C864.308 14.4396 860.98 12.0996 855.832 12.0996C848.604 12.0996 844.496 18.4436 844.496 25.6196ZM872.31 38.7236H874.598V26.0876C874.598 19.1716 878.498 14.2316 883.698 14.2316C887.91 14.2316 890.146 16.6236 890.146 21.1476V38.7236H892.434V20.8876C892.434 15.2196 889.47 12.0996 884.114 12.0996C879.954 12.0996 876.314 14.2836 874.598 18.5996V1.90763H872.31V38.7236ZM900.544 38.7236H902.832V12.5156H900.544V38.7236ZM899.66 4.97563C899.66 6.06763 900.596 7.00363 901.688 7.00363C902.884 7.00363 903.716 6.17163 903.716 4.97563C903.716 3.77963 902.884 2.94763 901.688 2.94763C900.492 2.94763 899.66 3.77963 899.66 4.97563ZM910.954 38.7236H913.242V25.4116C913.242 18.4956 916.362 14.2316 920.21 14.2316C921.51 14.2316 922.602 14.4916 923.538 15.0116L924.11 12.8276C922.966 12.3596 921.77 12.0996 920.574 12.0996C917.246 12.0996 914.75 13.8156 913.242 17.1436V12.5156H910.954V38.7236ZM925.898 25.6196C925.794 32.4836 930.63 39.2956 938.014 39.1396C945.398 39.2956 950.234 32.4836 950.13 25.6196C950.234 18.7556 945.398 11.9436 938.014 12.0996C930.63 11.9436 925.794 18.7556 925.898 25.6196ZM947.79 25.6196C947.79 31.4956 944.15 37.0076 938.014 37.0076C931.93 37.0076 928.29 31.4956 928.29 25.6196C928.29 19.6916 931.93 14.2316 938.014 14.2316C944.15 14.2316 947.79 19.6916 947.79 25.6196ZM956.658 49.3316H958.946V35.8116C958.946 34.7196 958.946 33.9396 958.894 33.4716C960.714 36.8516 963.99 39.1396 968.098 39.1396C975.222 39.1396 979.486 33.3156 979.486 25.6196C979.486 17.9236 975.222 12.0996 968.098 12.0996C963.99 12.0996 960.298 14.4916 958.894 18.0276C958.946 17.4556 958.946 16.6756 958.946 15.5836V12.5156H956.658V49.3316ZM977.146 25.6196C977.146 32.0156 973.662 37.0076 967.942 37.0076C962.17 37.0076 958.738 32.0156 958.738 25.6196C958.738 22.2916 959.57 19.5876 961.182 17.4556C962.794 15.3236 965.082 14.2316 967.942 14.2316C970.802 14.2316 973.038 15.3236 974.65 17.4556C976.314 19.5876 977.146 22.2916 977.146 25.6196ZM986.06 38.7236H988.348V25.4116C988.348 18.4956 991.468 14.2316 995.316 14.2316C996.616 14.2316 997.708 14.4916 998.644 15.0116L999.216 12.8276C998.072 12.3596 996.876 12.0996 995.68 12.0996C992.352 12.0996 989.856 13.8156 988.348 17.1436V12.5156H986.06V38.7236ZM1001.21 31.2356C1001.21 36.4356 1004.64 39.1396 1009.27 39.1396C1013.07 39.1396 1015.98 37.5276 1017.95 34.3556L1018.47 38.7236H1020.24V20.9396C1020.24 15.3756 1016.71 12.0996 1011.3 12.0996C1006.72 12.0996 1003.03 14.6476 1002.15 19.0676L1004.33 19.5876C1005.16 16.2076 1007.71 14.2316 1011.3 14.2316C1015.46 14.2316 1017.95 16.4156 1017.95 21.0436V22.9676H1012.13C1005.42 22.9676 1001.21 25.8276 1001.21 31.2356ZM1017.95 28.0116C1017.95 33.9916 1013.48 37.0076 1009.58 37.0076C1005.99 37.0076 1003.6 34.9276 1003.6 31.2356C1003.6 27.4396 1006.57 25.0996 1012.23 25.0996H1017.95V28.0116ZM1026.19 25.6196C1026.19 32.7956 1030.3 39.1396 1037.53 39.1396C1042.57 39.1396 1046 36.7476 1047.77 31.9116L1045.74 31.1316C1044.24 35.0836 1041.74 37.0076 1037.53 37.0076C1031.7 37.0076 1028.58 31.8076 1028.58 25.6196C1028.58 22.3956 1029.36 19.6916 1030.92 17.5076C1032.48 15.3236 1034.67 14.2316 1037.53 14.2316C1041.64 14.2316 1044.24 16.1036 1045.69 20.0556L1047.72 19.2756C1046 14.4396 1042.68 12.0996 1037.53 12.0996C1030.3 12.0996 1026.19 18.4436 1026.19 25.6196ZM1055.25 31.8076C1055.25 36.7996 1057.49 39.1396 1061.18 39.1396C1062.9 39.1396 1064.25 38.8276 1065.34 38.1516L1064.72 36.1236C1063.83 36.6956 1062.74 37.0076 1061.44 37.0076C1058.95 37.0076 1057.54 35.4996 1057.54 32.3276V14.6476H1064.67V12.5156H1057.54V1.90763L1055.25 3.46763V12.5156H1050.57V14.6476H1055.25V31.8076ZM1068.04 25.6196C1067.93 32.4836 1072.77 39.2956 1080.15 39.1396C1087.54 39.2956 1092.37 32.4836 1092.27 25.6196C1092.37 18.7556 1087.54 11.9436 1080.15 12.0996C1072.77 11.9436 1067.93 18.7556 1068.04 25.6196ZM1089.93 25.6196C1089.93 31.4956 1086.29 37.0076 1080.15 37.0076C1074.07 37.0076 1070.43 31.4956 1070.43 25.6196C1070.43 19.6916 1074.07 14.2316 1080.15 14.2316C1086.29 14.2316 1089.93 19.6916 1089.93 25.6196ZM1098.79 38.7236H1101.08V25.4116C1101.08 18.4956 1104.2 14.2316 1108.05 14.2316C1109.35 14.2316 1110.44 14.4916 1111.38 15.0116L1111.95 12.8276C1110.81 12.3596 1109.61 12.0996 1108.41 12.0996C1105.09 12.0996 1102.59 13.8156 1101.08 17.1436V12.5156H1098.79V38.7236Z" fill="#8C8C8C"/>
<path d="M1147.06 38.7236H1149.34V25.9316C1149.34 19.0676 1152.98 14.2316 1158.13 14.2316C1162.24 14.2316 1164.32 16.6236 1164.32 21.1476V38.7236H1166.61V20.8876C1166.61 15.2716 1163.7 12.0996 1158.55 12.0996C1154.44 12.0996 1151.06 14.3876 1149.34 18.3396V12.5156H1147.06V38.7236ZM1174.73 30.3516C1174.73 35.9676 1177.7 39.1396 1182.84 39.1396C1186.85 39.1396 1190.28 36.7996 1192 32.8476V38.7236H1194.28V12.5156H1192V25.3076C1192 32.1716 1188.36 37.0076 1183.26 37.0076C1179.1 37.0076 1177.02 34.6156 1177.02 30.0916V12.5156H1174.73V30.3516ZM1202.41 38.7236H1204.7V25.4116C1204.7 18.4956 1207.82 14.2316 1211.66 14.2316C1212.96 14.2316 1214.06 14.4916 1214.99 15.0116L1215.56 12.8276C1214.42 12.3596 1213.22 12.0996 1212.03 12.0996C1208.7 12.0996 1206.2 13.8156 1204.7 17.1436V12.5156H1202.41V38.7236ZM1217.81 32.1716C1218.85 36.2796 1221.81 39.1396 1226.85 39.1396C1231.43 39.1396 1234.71 36.1756 1234.71 31.5476C1234.71 28.0636 1232.52 25.6196 1228.15 24.2156C1223.79 22.7076 1221.81 21.3036 1221.81 18.6516C1221.81 15.8956 1223.89 14.2316 1226.44 14.2316C1228.83 14.2316 1230.7 15.3236 1232 17.5076L1233.61 16.1556C1232.05 13.4516 1229.71 12.0996 1226.59 12.0996C1222.59 12.0996 1219.52 14.6476 1219.52 18.6516C1219.52 22.3436 1221.97 24.5276 1226.49 25.9316C1230.39 27.0236 1232.37 28.8436 1232.37 31.5996C1232.37 34.9276 1230.03 37.0076 1226.85 37.0076C1222.9 37.0076 1220.87 34.9796 1219.83 31.1836L1217.81 32.1716ZM1261.66 25.4636V24.0076C1261.66 16.9876 1257.08 12.0996 1250.53 12.0996C1244.03 12.0996 1239.04 17.6636 1239.04 25.6196C1239.04 33.2636 1243.66 39.1396 1250.48 39.1396C1255.31 39.1396 1258.48 37.1116 1260.98 32.0676L1258.95 31.1316C1256.87 35.3436 1254.58 37.0076 1250.48 37.0076C1244.86 37.0076 1241.38 31.7556 1241.38 25.6196V25.4636H1261.66ZM1241.53 23.3316C1242.36 17.7156 1246.11 14.2316 1250.53 14.2316C1255.73 14.2316 1258.95 17.7156 1259.32 23.3316H1241.53Z" fill="#8C8C8C"/>
<path d="M1299.68 38.7236H1309.2C1318.24 38.7236 1325.32 32.2756 1325.32 20.5236C1325.32 8.77163 1318.24 2.32363 1309.2 2.32363H1299.68V38.7236ZM1302.07 36.4876V4.55963H1309.25C1316.74 4.55963 1322.87 9.70763 1322.87 20.5236C1322.87 31.3396 1316.74 36.4876 1309.25 36.4876H1302.07ZM1330.5 25.6196C1330.4 32.4836 1335.24 39.2956 1342.62 39.1396C1350 39.2956 1354.84 32.4836 1354.74 25.6196C1354.84 18.7556 1350 11.9436 1342.62 12.0996C1335.24 11.9436 1330.4 18.7556 1330.5 25.6196ZM1352.4 25.6196C1352.4 31.4956 1348.76 37.0076 1342.62 37.0076C1336.54 37.0076 1332.9 31.4956 1332.9 25.6196C1332.9 19.6916 1336.54 14.2316 1342.62 14.2316C1348.76 14.2316 1352.4 19.6916 1352.4 25.6196ZM1359.7 25.6196C1359.7 32.7956 1363.81 39.1396 1371.04 39.1396C1376.08 39.1396 1379.52 36.7476 1381.28 31.9116L1379.26 31.1316C1377.75 35.0836 1375.25 37.0076 1371.04 37.0076C1365.22 37.0076 1362.1 31.8076 1362.1 25.6196C1362.1 22.3956 1362.88 19.6916 1364.44 17.5076C1366 15.3236 1368.18 14.2316 1371.04 14.2316C1375.15 14.2316 1377.75 16.1036 1379.2 20.0556L1381.23 19.2756C1379.52 14.4396 1376.19 12.0996 1371.04 12.0996C1363.81 12.0996 1359.7 18.4436 1359.7 25.6196ZM1388.76 31.8076C1388.76 36.7996 1391 39.1396 1394.69 39.1396C1396.41 39.1396 1397.76 38.8276 1398.85 38.1516L1398.23 36.1236C1397.34 36.6956 1396.25 37.0076 1394.95 37.0076C1392.46 37.0076 1391.05 35.4996 1391.05 32.3276V14.6476H1398.18V12.5156H1391.05V1.90763L1388.76 3.46763V12.5156H1384.08V14.6476H1388.76V31.8076ZM1401.55 25.6196C1401.44 32.4836 1406.28 39.2956 1413.66 39.1396C1421.05 39.2956 1425.88 32.4836 1425.78 25.6196C1425.88 18.7556 1421.05 11.9436 1413.66 12.0996C1406.28 11.9436 1401.44 18.7556 1401.55 25.6196ZM1423.44 25.6196C1423.44 31.4956 1419.8 37.0076 1413.66 37.0076C1407.58 37.0076 1403.94 31.4956 1403.94 25.6196C1403.94 19.6916 1407.58 14.2316 1413.66 14.2316C1419.8 14.2316 1423.44 19.6916 1423.44 25.6196ZM1432.31 38.7236H1434.59V25.4116C1434.59 18.4956 1437.71 14.2316 1441.56 14.2316C1442.86 14.2316 1443.95 14.4916 1444.89 15.0116L1445.46 12.8276C1444.32 12.3596 1443.12 12.0996 1441.93 12.0996C1438.6 12.0996 1436.1 13.8156 1434.59 17.1436V12.5156H1432.31V38.7236Z" fill="#8C8C8C"/>
<path d="M-24.504 105.62C-24.608 112.484 -19.772 119.296 -12.388 119.14C-5.004 119.296 -0.167998 112.484 -0.272 105.62C-0.167998 98.7556 -5.004 91.9436 -12.388 92.0996C-19.772 91.9436 -24.608 98.7556 -24.504 105.62ZM-2.612 105.62C-2.612 111.496 -6.252 117.008 -12.388 117.008C-18.472 117.008 -22.112 111.496 -22.112 105.62C-22.112 99.6916 -18.472 94.2316 -12.388 94.2316C-6.252 94.2316 -2.612 99.6916 -2.612 105.62ZM6.25522 129.332H8.54322V115.812C8.54322 114.72 8.54322 113.94 8.49122 113.472C10.3112 116.852 13.5872 119.14 17.6952 119.14C24.8192 119.14 29.0832 113.316 29.0832 105.62C29.0832 97.9236 24.8192 92.0996 17.6952 92.0996C13.5872 92.0996 9.89522 94.4916 8.49122 98.0276C8.54322 97.4556 8.54322 96.6756 8.54322 95.5836V92.5156H6.25522V129.332ZM26.7432 105.62C26.7432 112.016 23.2592 117.008 17.5392 117.008C11.7672 117.008 8.33522 112.016 8.33522 105.62C8.33522 102.292 9.16722 99.5876 10.7792 97.4556C12.3912 95.3236 14.6792 94.2316 17.5392 94.2316C20.3992 94.2316 22.6352 95.3236 24.2472 97.4556C25.9112 99.5876 26.7432 102.292 26.7432 105.62ZM36.7024 111.808C36.7024 116.8 38.9384 119.14 42.6304 119.14C44.3464 119.14 45.6984 118.828 46.7904 118.152L46.1664 116.124C45.2824 116.696 44.1904 117.008 42.8904 117.008C40.3944 117.008 38.9904 115.5 38.9904 112.328V94.6476H46.1144V92.5156H38.9904V81.9076L36.7024 83.4676V92.5156H32.0224V94.6476H36.7024V111.808ZM49.4843 105.62C49.3803 112.484 54.2163 119.296 61.6003 119.14C68.9843 119.296 73.8203 112.484 73.7163 105.62C73.8203 98.7556 68.9843 91.9436 61.6003 92.0996C54.2163 91.9436 49.3803 98.7556 49.4843 105.62ZM71.3763 105.62C71.3763 111.496 67.7363 117.008 61.6003 117.008C55.5163 117.008 51.8763 111.496 51.8763 105.62C51.8763 99.6916 55.5163 94.2316 61.6003 94.2316C67.7363 94.2316 71.3763 99.6916 71.3763 105.62ZM80.2435 118.724H82.5315V105.152C82.5315 98.7556 86.2755 94.2316 90.4875 94.2316C94.0755 94.2316 95.7395 96.4676 95.7395 100.836V118.724H98.0275V105.152C98.0275 98.7556 101.876 94.2316 105.984 94.2316C109.676 94.2316 111.236 96.4676 111.236 100.836V118.724H113.524V100.576C113.524 94.9076 111.132 92.0996 106.4 92.0996C102.604 92.0996 99.5355 94.2836 97.8195 97.9756C97.1955 94.2316 94.6995 92.0996 90.9035 92.0996C87.0035 92.0996 84.0395 94.4396 82.5315 97.9756V92.5156H80.2435V118.724ZM142.69 105.464V104.008C142.69 96.9876 138.114 92.0996 131.562 92.0996C125.062 92.0996 120.07 97.6636 120.07 105.62C120.07 113.264 124.698 119.14 131.51 119.14C136.346 119.14 139.518 117.112 142.014 112.068L139.986 111.132C137.906 115.344 135.618 117.008 131.51 117.008C125.894 117.008 122.41 111.756 122.41 105.62V105.464H142.69ZM122.566 103.332C123.398 97.7156 127.142 94.2316 131.562 94.2316C136.762 94.2316 139.986 97.7156 140.35 103.332H122.566ZM150.503 111.808C150.503 116.8 152.739 119.14 156.431 119.14C158.147 119.14 159.499 118.828 160.591 118.152L159.967 116.124C159.083 116.696 157.991 117.008 156.691 117.008C154.195 117.008 152.791 115.5 152.791 112.328V94.6476H159.915V92.5156H152.791V81.9076L150.503 83.4676V92.5156H145.823V94.6476H150.503V111.808ZM165.708 118.724H167.996V105.412C167.996 98.4956 171.116 94.2316 174.964 94.2316C176.264 94.2316 177.356 94.4916 178.292 95.0116L178.864 92.8276C177.72 92.3596 176.524 92.0996 175.328 92.0996C172 92.0996 169.504 93.8156 167.996 97.1436V92.5156H165.708V118.724ZM183.736 118.724H186.024V92.5156H183.736V118.724ZM182.852 84.9756C182.852 86.0676 183.788 87.0036 184.88 87.0036C186.076 87.0036 186.908 86.1716 186.908 84.9756C186.908 83.7796 186.076 82.9476 184.88 82.9476C183.684 82.9476 182.852 83.7796 182.852 84.9756ZM191.771 112.172C192.811 116.28 195.775 119.14 200.819 119.14C205.395 119.14 208.671 116.176 208.671 111.548C208.671 108.064 206.487 105.62 202.119 104.216C197.751 102.708 195.775 101.304 195.775 98.6516C195.775 95.8956 197.855 94.2316 200.403 94.2316C202.795 94.2316 204.667 95.3236 205.967 97.5076L207.579 96.1556C206.019 93.4516 203.679 92.0996 200.559 92.0996C196.555 92.0996 193.487 94.6476 193.487 98.6516C193.487 102.344 195.931 104.528 200.455 105.932C204.355 107.024 206.331 108.844 206.331 111.6C206.331 114.928 203.991 117.008 200.819 117.008C196.867 117.008 194.839 114.98 193.799 111.184L191.771 112.172ZM215.96 111.808C215.96 116.8 218.196 119.14 221.888 119.14C223.604 119.14 224.956 118.828 226.048 118.152L225.424 116.124C224.54 116.696 223.448 117.008 222.148 117.008C219.652 117.008 218.248 115.5 218.248 112.328V94.6476H225.372V92.5156H218.248V81.9076L215.96 83.4676V92.5156H211.28V94.6476H215.96V111.808Z" fill="#8C8C8C"/>
<path d="M260.496 105.62C260.496 112.796 264.604 119.14 271.832 119.14C276.876 119.14 280.308 116.748 282.076 111.912L280.048 111.132C278.54 115.084 276.044 117.008 271.832 117.008C266.008 117.008 262.888 111.808 262.888 105.62C262.888 102.396 263.668 99.6916 265.228 97.5076C266.788 95.3236 268.972 94.2316 271.832 94.2316C275.94 94.2316 278.54 96.1036 279.996 100.056L282.024 99.2756C280.308 94.4396 276.98 92.0996 271.832 92.0996C264.604 92.0996 260.496 98.4436 260.496 105.62ZM288.31 118.724H290.598V81.9076H288.31V118.724ZM298.72 118.724H301.008V92.5156H298.72V118.724ZM297.836 84.9756C297.836 86.0676 298.772 87.0036 299.864 87.0036C301.06 87.0036 301.892 86.1716 301.892 84.9756C301.892 83.7796 301.06 82.9476 299.864 82.9476C298.668 82.9476 297.836 83.7796 297.836 84.9756ZM309.13 118.724H311.418V105.932C311.418 99.0676 315.058 94.2316 320.206 94.2316C324.314 94.2316 326.394 96.6236 326.394 101.148V118.724H328.682V100.888C328.682 95.2716 325.77 92.0996 320.622 92.0996C316.514 92.0996 313.134 94.3876 311.418 98.3396V92.5156H309.13V118.724ZM336.806 118.724H339.094V92.5156H336.806V118.724ZM335.922 84.9756C335.922 86.0676 336.858 87.0036 337.95 87.0036C339.146 87.0036 339.978 86.1716 339.978 84.9756C339.978 83.7796 339.146 82.9476 337.95 82.9476C336.754 82.9476 335.922 83.7796 335.922 84.9756ZM345.656 105.62C345.656 112.796 349.764 119.14 356.992 119.14C362.036 119.14 365.468 116.748 367.236 111.912L365.208 111.132C363.7 115.084 361.204 117.008 356.992 117.008C351.168 117.008 348.048 111.808 348.048 105.62C348.048 102.396 348.828 99.6916 350.388 97.5076C351.948 95.3236 354.132 94.2316 356.992 94.2316C361.1 94.2316 363.7 96.1036 365.156 100.056L367.184 99.2756C365.468 94.4396 362.14 92.0996 356.992 92.0996C349.764 92.0996 345.656 98.4436 345.656 105.62ZM371.506 111.236C371.506 116.436 374.938 119.14 379.566 119.14C383.362 119.14 386.274 117.528 388.25 114.356L388.77 118.724H390.538V100.94C390.538 95.3756 387.002 92.0996 381.594 92.0996C377.018 92.0996 373.326 94.6476 372.442 99.0676L374.626 99.5876C375.458 96.2076 378.006 94.2316 381.594 94.2316C385.754 94.2316 388.25 96.4156 388.25 101.044V102.968H382.426C375.718 102.968 371.506 105.828 371.506 111.236ZM388.25 108.012C388.25 113.992 383.778 117.008 379.878 117.008C376.29 117.008 373.898 114.928 373.898 111.236C373.898 107.44 376.862 105.1 382.53 105.1H388.25V108.012ZM398.048 118.724H400.336V81.9076H398.048V118.724ZM421.56 129.332H423.848V115.812C423.848 114.72 423.848 113.94 423.796 113.472C425.616 116.852 428.892 119.14 433 119.14C440.124 119.14 444.388 113.316 444.388 105.62C444.388 97.9236 440.124 92.0996 433 92.0996C428.892 92.0996 425.2 94.4916 423.796 98.0276C423.848 97.4556 423.848 96.6756 423.848 95.5836V92.5156H421.56V129.332ZM442.048 105.62C442.048 112.016 438.564 117.008 432.844 117.008C427.072 117.008 423.64 112.016 423.64 105.62C423.64 102.292 424.472 99.5876 426.084 97.4556C427.696 95.3236 429.984 94.2316 432.844 94.2316C435.704 94.2316 437.94 95.3236 439.552 97.4556C441.216 99.5876 442.048 102.292 442.048 105.62ZM448.689 112.172C449.729 116.28 452.693 119.14 457.737 119.14C462.313 119.14 465.589 116.176 465.589 111.548C465.589 108.064 463.405 105.62 459.037 104.216C454.669 102.708 452.693 101.304 452.693 98.6516C452.693 95.8956 454.773 94.2316 457.321 94.2316C459.713 94.2316 461.585 95.3236 462.885 97.5076L464.497 96.1556C462.937 93.4516 460.597 92.0996 457.477 92.0996C453.473 92.0996 450.405 94.6476 450.405 98.6516C450.405 102.344 452.849 104.528 457.373 105.932C461.273 107.024 463.249 108.844 463.249 111.6C463.249 114.928 460.909 117.008 457.737 117.008C453.785 117.008 451.757 114.98 450.717 111.184L448.689 112.172ZM486.242 92.5156L478.39 114.408L470.538 92.5156H468.094L477.142 117.84L473.034 129.332H475.374L488.634 92.5156H486.242ZM491.144 105.62C491.144 112.796 495.252 119.14 502.48 119.14C507.524 119.14 510.956 116.748 512.724 111.912L510.696 111.132C509.188 115.084 506.692 117.008 502.48 117.008C496.656 117.008 493.536 111.808 493.536 105.62C493.536 102.396 494.316 99.6916 495.876 97.5076C497.436 95.3236 499.62 94.2316 502.48 94.2316C506.588 94.2316 509.188 96.1036 510.644 100.056L512.672 99.2756C510.956 94.4396 507.628 92.0996 502.48 92.0996C495.252 92.0996 491.144 98.4436 491.144 105.62ZM518.958 118.724H521.246V106.088C521.246 99.1716 525.146 94.2316 530.346 94.2316C534.558 94.2316 536.794 96.6236 536.794 101.148V118.724H539.082V100.888C539.082 95.2196 536.118 92.0996 530.762 92.0996C526.602 92.0996 522.962 94.2836 521.246 98.5996V81.9076H518.958V118.724ZM545.633 105.62C545.529 112.484 550.365 119.296 557.749 119.14C565.133 119.296 569.969 112.484 569.865 105.62C569.969 98.7556 565.133 91.9436 557.749 92.0996C550.365 91.9436 545.529 98.7556 545.633 105.62ZM567.525 105.62C567.525 111.496 563.885 117.008 557.749 117.008C551.665 117.008 548.025 111.496 548.025 105.62C548.025 99.6916 551.665 94.2316 557.749 94.2316C563.885 94.2316 567.525 99.6916 567.525 105.62ZM576.392 118.724H578.68V81.9076H576.392V118.724ZM585.242 105.62C585.138 112.484 589.974 119.296 597.358 119.14C604.742 119.296 609.578 112.484 609.474 105.62C609.578 98.7556 604.742 91.9436 597.358 92.0996C589.974 91.9436 585.138 98.7556 585.242 105.62ZM607.134 105.62C607.134 111.496 603.494 117.008 597.358 117.008C591.274 117.008 587.634 111.496 587.634 105.62C587.634 99.6916 591.274 94.2316 597.358 94.2316C603.494 94.2316 607.134 99.6916 607.134 105.62ZM613.822 121.324C613.822 126.524 617.722 129.748 624.326 129.748C630.566 129.748 634.778 126.628 634.778 121.168C634.778 116.748 631.762 114.252 627.238 114.252H620.218C618.138 114.252 616.682 113.212 616.682 111.392C616.682 109.884 617.514 108.844 619.126 108.168C620.53 109.156 622.246 109.676 624.274 109.676C629.266 109.676 632.958 106.14 632.958 100.888C632.958 98.6516 632.334 96.7276 631.034 95.1156L634.882 92.9836L633.842 91.0076L629.266 93.6076C627.81 92.6196 626.146 92.0996 624.274 92.0996C619.282 92.0996 615.59 95.6356 615.59 100.888C615.59 103.332 616.266 105.308 617.67 106.868C615.798 107.7 614.446 109.312 614.446 111.392C614.446 113.264 615.382 114.72 616.89 115.5C615.174 116.696 613.822 118.88 613.822 121.324ZM630.67 100.888C630.67 105.048 627.966 107.648 624.274 107.648C620.582 107.648 617.878 105.048 617.878 100.888C617.878 96.7276 620.582 94.1276 624.274 94.1276C627.966 94.1276 630.67 96.7276 630.67 100.888ZM632.594 121.376C632.594 125.12 629.474 127.668 624.326 127.668C618.918 127.668 616.006 125.224 616.006 121.428C616.006 119.348 617.098 117.32 618.918 116.124C619.49 116.228 620.114 116.28 620.738 116.28H626.874C630.41 116.28 632.594 117.996 632.594 121.376ZM640.326 118.724H642.614V92.5156H640.326V118.724ZM639.442 84.9756C639.442 86.0676 640.378 87.0036 641.47 87.0036C642.666 87.0036 643.498 86.1716 643.498 84.9756C643.498 83.7796 642.666 82.9476 641.47 82.9476C640.274 82.9476 639.442 83.7796 639.442 84.9756ZM648.361 112.172C649.401 116.28 652.365 119.14 657.409 119.14C661.985 119.14 665.261 116.176 665.261 111.548C665.261 108.064 663.077 105.62 658.709 104.216C654.341 102.708 652.365 101.304 652.365 98.6516C652.365 95.8956 654.445 94.2316 656.993 94.2316C659.385 94.2316 661.257 95.3236 662.557 97.5076L664.169 96.1556C662.609 93.4516 660.269 92.0996 657.149 92.0996C653.145 92.0996 650.077 94.6476 650.077 98.6516C650.077 102.344 652.521 104.528 657.045 105.932C660.945 107.024 662.921 108.844 662.921 111.6C662.921 114.928 660.581 117.008 657.409 117.008C653.457 117.008 651.429 114.98 650.389 111.184L648.361 112.172ZM672.55 111.808C672.55 116.8 674.786 119.14 678.478 119.14C680.194 119.14 681.546 118.828 682.638 118.152L682.014 116.124C681.13 116.696 680.038 117.008 678.738 117.008C676.242 117.008 674.838 115.5 674.838 112.328V94.6476H681.962V92.5156H674.838V81.9076L672.55 83.4676V92.5156H667.87V94.6476H672.55V111.808Z" fill="#8C8C8C"/>
<path d="M719.056 118.724H721.344V105.152C721.344 98.7556 725.088 94.2316 729.3 94.2316C732.888 94.2316 734.552 96.4676 734.552 100.836V118.724H736.84V105.152C736.84 98.7556 740.688 94.2316 744.796 94.2316C748.488 94.2316 750.048 96.4676 750.048 100.836V118.724H752.336V100.576C752.336 94.9076 749.944 92.0996 745.212 92.0996C741.416 92.0996 738.348 94.2836 736.632 97.9756C736.008 94.2316 733.512 92.0996 729.716 92.0996C725.816 92.0996 722.852 94.4396 721.344 97.9756V92.5156H719.056V118.724ZM760.443 118.724H762.731V92.5156H760.443V118.724ZM759.559 84.9756C759.559 86.0676 760.495 87.0036 761.587 87.0036C762.783 87.0036 763.615 86.1716 763.615 84.9756C763.615 83.7796 762.783 82.9476 761.587 82.9476C760.391 82.9476 759.559 83.7796 759.559 84.9756ZM769.293 105.62C769.293 113.316 773.557 119.14 780.681 119.14C784.789 119.14 788.481 116.748 789.885 113.212L789.833 115.656V118.724H792.121V81.9076H789.833V95.4276L789.885 97.7156C788.065 94.2316 784.945 92.0996 780.733 92.0996C773.661 92.0996 769.293 97.9236 769.293 105.62ZM790.041 105.62C790.041 108.896 789.209 111.652 787.597 113.784C785.985 115.916 783.749 117.008 780.889 117.008C778.029 117.008 775.793 115.916 774.129 113.784C772.517 111.652 771.685 108.896 771.685 105.62C771.685 99.2236 775.117 94.2316 780.889 94.2316C786.557 94.2316 790.041 99.2236 790.041 105.62ZM804.727 118.724H807.275L813.151 96.0516L819.027 118.724H821.575L829.375 92.5156H827.035L820.327 115.604L814.295 92.5156H812.007L805.975 115.604L799.267 92.5156H796.927L804.727 118.724ZM834.177 118.724H836.465V92.5156H834.177V118.724ZM833.293 84.9756C833.293 86.0676 834.229 87.0036 835.321 87.0036C836.517 87.0036 837.349 86.1716 837.349 84.9756C837.349 83.7796 836.517 82.9476 835.321 82.9476C834.125 82.9476 833.293 83.7796 833.293 84.9756ZM845.367 118.724H847.655V94.6476H853.739V92.5156H847.655V89.7596C847.655 85.8596 849.475 84.0396 852.387 84.0396C853.375 84.0396 854.259 84.2476 855.091 84.6636L855.611 82.5836C854.779 82.1156 853.739 81.9076 852.543 81.9076C848.019 81.9076 845.367 84.6116 845.367 90.0716V92.5156H841.155V94.6476H845.367V118.724ZM879.46 105.464V104.008C879.46 96.9876 874.884 92.0996 868.332 92.0996C861.832 92.0996 856.84 97.6636 856.84 105.62C856.84 113.264 861.468 119.14 868.28 119.14C873.116 119.14 876.288 117.112 878.784 112.068L876.756 111.132C874.676 115.344 872.388 117.008 868.28 117.008C862.664 117.008 859.18 111.756 859.18 105.62V105.464H879.46ZM859.336 103.332C860.168 97.7156 863.912 94.2316 868.332 94.2316C873.532 94.2316 876.756 97.7156 877.12 103.332H859.336Z" fill="#8C8C8C"/>
<path d="M916.68 118.724H919.072V102.032H928.484C935.14 102.032 939.144 98.3396 939.144 92.1516C939.144 85.9636 935.14 82.3236 928.484 82.3236H916.68V118.724ZM919.072 99.7956V84.5596H928.536C933.944 84.5596 936.648 87.3676 936.648 92.1516C936.648 96.9356 933.944 99.7956 928.536 99.7956H919.072ZM945.509 118.724H947.797V106.088C947.797 99.1716 951.697 94.2316 956.897 94.2316C961.109 94.2316 963.345 96.6236 963.345 101.148V118.724H965.633V100.888C965.633 95.2196 962.669 92.0996 957.313 92.0996C953.153 92.0996 949.513 94.2836 947.797 98.5996V81.9076H945.509V118.724ZM971.526 111.236C971.526 116.436 974.958 119.14 979.586 119.14C983.382 119.14 986.294 117.528 988.27 114.356L988.79 118.724H990.558V100.94C990.558 95.3756 987.022 92.0996 981.614 92.0996C977.038 92.0996 973.346 94.6476 972.462 99.0676L974.646 99.5876C975.478 96.2076 978.026 94.2316 981.614 94.2316C985.774 94.2316 988.27 96.4156 988.27 101.044V102.968H982.446C975.738 102.968 971.526 105.828 971.526 111.236ZM988.27 108.012C988.27 113.992 983.798 117.008 979.898 117.008C976.31 117.008 973.918 114.928 973.918 111.236C973.918 107.44 976.882 105.1 982.55 105.1H988.27V108.012ZM998.068 118.724H1000.36V105.412C1000.36 98.4956 1003.48 94.2316 1007.32 94.2316C1008.62 94.2316 1009.72 94.4916 1010.65 95.0116L1011.22 92.8276C1010.08 92.3596 1008.88 92.0996 1007.69 92.0996C1004.36 92.0996 1001.86 93.8156 1000.36 97.1436V92.5156H998.068V118.724ZM1015.89 118.724H1018.18V105.152C1018.18 98.7556 1021.92 94.2316 1026.14 94.2316C1029.72 94.2316 1031.39 96.4676 1031.39 100.836V118.724H1033.68V105.152C1033.68 98.7556 1037.52 94.2316 1041.63 94.2316C1045.32 94.2316 1046.88 96.4676 1046.88 100.836V118.724H1049.17V100.576C1049.17 94.9076 1046.78 92.0996 1042.05 92.0996C1038.25 92.0996 1035.18 94.2836 1033.47 97.9756C1032.84 94.2316 1030.35 92.0996 1026.55 92.0996C1022.65 92.0996 1019.69 94.4396 1018.18 97.9756V92.5156H1015.89V118.724ZM1055.06 111.236C1055.06 116.436 1058.49 119.14 1063.12 119.14C1066.92 119.14 1069.83 117.528 1071.8 114.356L1072.32 118.724H1074.09V100.94C1074.09 95.3756 1070.56 92.0996 1065.15 92.0996C1060.57 92.0996 1056.88 94.6476 1056 99.0676L1058.18 99.5876C1059.01 96.2076 1061.56 94.2316 1065.15 94.2316C1069.31 94.2316 1071.8 96.4156 1071.8 101.044V102.968H1065.98C1059.27 102.968 1055.06 105.828 1055.06 111.236ZM1071.8 108.012C1071.8 113.992 1067.33 117.008 1063.43 117.008C1059.84 117.008 1057.45 114.928 1057.45 111.236C1057.45 107.44 1060.42 105.1 1066.08 105.1H1071.8V108.012ZM1080.04 105.62C1080.04 112.796 1084.15 119.14 1091.38 119.14C1096.42 119.14 1099.85 116.748 1101.62 111.912L1099.59 111.132C1098.09 115.084 1095.59 117.008 1091.38 117.008C1085.55 117.008 1082.43 111.808 1082.43 105.62C1082.43 102.396 1083.21 99.6916 1084.77 97.5076C1086.33 95.3236 1088.52 94.2316 1091.38 94.2316C1095.49 94.2316 1098.09 96.1036 1099.54 100.056L1101.57 99.2756C1099.85 94.4396 1096.53 92.0996 1091.38 92.0996C1084.15 92.0996 1080.04 98.4436 1080.04 105.62ZM1107.86 118.724H1110.14V92.5156H1107.86V118.724ZM1106.97 84.9756C1106.97 86.0676 1107.91 87.0036 1109 87.0036C1110.2 87.0036 1111.03 86.1716 1111.03 84.9756C1111.03 83.7796 1110.2 82.9476 1109 82.9476C1107.8 82.9476 1106.97 83.7796 1106.97 84.9756ZM1115.89 112.172C1116.93 116.28 1119.9 119.14 1124.94 119.14C1129.52 119.14 1132.79 116.176 1132.79 111.548C1132.79 108.064 1130.61 105.62 1126.24 104.216C1121.87 102.708 1119.9 101.304 1119.9 98.6516C1119.9 95.8956 1121.98 94.2316 1124.52 94.2316C1126.92 94.2316 1128.79 95.3236 1130.09 97.5076L1131.7 96.1556C1130.14 93.4516 1127.8 92.0996 1124.68 92.0996C1120.68 92.0996 1117.61 94.6476 1117.61 98.6516C1117.61 102.344 1120.05 104.528 1124.58 105.932C1128.48 107.024 1130.45 108.844 1130.45 111.6C1130.45 114.928 1128.11 117.008 1124.94 117.008C1120.99 117.008 1118.96 114.98 1117.92 111.184L1115.89 112.172ZM1140.08 111.808C1140.08 116.8 1142.32 119.14 1146.01 119.14C1147.73 119.14 1149.08 118.828 1150.17 118.152L1149.55 116.124C1148.66 116.696 1147.57 117.008 1146.27 117.008C1143.77 117.008 1142.37 115.5 1142.37 112.328V94.6476H1149.49V92.5156H1142.37V81.9076L1140.08 83.4676V92.5156H1135.4V94.6476H1140.08V111.808ZM1153.62 112.172C1154.66 116.28 1157.63 119.14 1162.67 119.14C1167.25 119.14 1170.52 116.176 1170.52 111.548C1170.52 108.064 1168.34 105.62 1163.97 104.216C1159.6 102.708 1157.63 101.304 1157.63 98.6516C1157.63 95.8956 1159.71 94.2316 1162.25 94.2316C1164.65 94.2316 1166.52 95.3236 1167.82 97.5076L1169.43 96.1556C1167.87 93.4516 1165.53 92.0996 1162.41 92.0996C1158.41 92.0996 1155.34 94.6476 1155.34 98.6516C1155.34 102.344 1157.78 104.528 1162.31 105.932C1166.21 107.024 1168.18 108.844 1168.18 111.6C1168.18 114.928 1165.84 117.008 1162.67 117.008C1158.72 117.008 1156.69 114.98 1155.65 111.184L1153.62 112.172Z" fill="#8C8C8C"/>
<path d="M1215.43 118.724H1217.82V84.5596H1228.69V82.3236H1204.56V84.5596H1215.43V118.724ZM1234.33 118.724H1236.61V106.088C1236.61 99.1716 1240.51 94.2316 1245.71 94.2316C1249.93 94.2316 1252.16 96.6236 1252.16 101.148V118.724H1254.45V100.888C1254.45 95.2196 1251.49 92.0996 1246.13 92.0996C1241.97 92.0996 1238.33 94.2836 1236.61 98.5996V81.9076H1234.33V118.724ZM1283.62 105.464V104.008C1283.62 96.9876 1279.04 92.0996 1272.49 92.0996C1265.99 92.0996 1261 97.6636 1261 105.62C1261 113.264 1265.63 119.14 1272.44 119.14C1277.28 119.14 1280.45 117.112 1282.94 112.068L1280.92 111.132C1278.84 115.344 1276.55 117.008 1272.44 117.008C1266.82 117.008 1263.34 111.756 1263.34 105.62V105.464H1283.62ZM1263.5 103.332C1264.33 97.7156 1268.07 94.2316 1272.49 94.2316C1277.69 94.2316 1280.92 97.7156 1281.28 103.332H1263.5ZM1290.18 118.724H1292.47V105.412C1292.47 98.4956 1295.59 94.2316 1299.44 94.2316C1300.74 94.2316 1301.83 94.4916 1302.77 95.0116L1303.34 92.8276C1302.2 92.3596 1301 92.0996 1299.8 92.0996C1296.48 92.0996 1293.98 93.8156 1292.47 97.1436V92.5156H1290.18V118.724ZM1305.33 111.236C1305.33 116.436 1308.77 119.14 1313.39 119.14C1317.19 119.14 1320.1 117.528 1322.08 114.356L1322.6 118.724H1324.37V100.94C1324.37 95.3756 1320.83 92.0996 1315.42 92.0996C1310.85 92.0996 1307.15 94.6476 1306.27 99.0676L1308.45 99.5876C1309.29 96.2076 1311.83 94.2316 1315.42 94.2316C1319.58 94.2316 1322.08 96.4156 1322.08 101.044V102.968H1316.25C1309.55 102.968 1305.33 105.828 1305.33 111.236ZM1322.08 108.012C1322.08 113.992 1317.61 117.008 1313.71 117.008C1310.12 117.008 1307.73 114.928 1307.73 111.236C1307.73 107.44 1310.69 105.1 1316.36 105.1H1322.08V108.012ZM1331.88 129.332H1334.16V115.812C1334.16 114.72 1334.16 113.94 1334.11 113.472C1335.93 116.852 1339.21 119.14 1343.32 119.14C1350.44 119.14 1354.7 113.316 1354.7 105.62C1354.7 97.9236 1350.44 92.0996 1343.32 92.0996C1339.21 92.0996 1335.52 94.4916 1334.11 98.0276C1334.16 97.4556 1334.16 96.6756 1334.16 95.5836V92.5156H1331.88V129.332ZM1352.36 105.62C1352.36 112.016 1348.88 117.008 1343.16 117.008C1337.39 117.008 1333.96 112.016 1333.96 105.62C1333.96 102.292 1334.79 99.5876 1336.4 97.4556C1338.01 95.3236 1340.3 94.2316 1343.16 94.2316C1346.02 94.2316 1348.26 95.3236 1349.87 97.4556C1351.53 99.5876 1352.36 102.292 1352.36 105.62ZM1361.28 118.724H1363.57V92.5156H1361.28V118.724ZM1360.39 84.9756C1360.39 86.0676 1361.33 87.0036 1362.42 87.0036C1363.62 87.0036 1364.45 86.1716 1364.45 84.9756C1364.45 83.7796 1363.62 82.9476 1362.42 82.9476C1361.23 82.9476 1360.39 83.7796 1360.39 84.9756ZM1369.31 112.172C1370.35 116.28 1373.32 119.14 1378.36 119.14C1382.94 119.14 1386.21 116.176 1386.21 111.548C1386.21 108.064 1384.03 105.62 1379.66 104.216C1375.29 102.708 1373.32 101.304 1373.32 98.6516C1373.32 95.8956 1375.4 94.2316 1377.95 94.2316C1380.34 94.2316 1382.21 95.3236 1383.51 97.5076L1385.12 96.1556C1383.56 93.4516 1381.22 92.0996 1378.1 92.0996C1374.1 92.0996 1371.03 94.6476 1371.03 98.6516C1371.03 102.344 1373.47 104.528 1378 105.932C1381.9 107.024 1383.87 108.844 1383.87 111.6C1383.87 114.928 1381.53 117.008 1378.36 117.008C1374.41 117.008 1372.38 114.98 1371.34 111.184L1369.31 112.172ZM1393.5 111.808C1393.5 116.8 1395.74 119.14 1399.43 119.14C1401.15 119.14 1402.5 118.828 1403.59 118.152L1402.97 116.124C1402.08 116.696 1400.99 117.008 1399.69 117.008C1397.2 117.008 1395.79 115.5 1395.79 112.328V94.6476H1402.92V92.5156H1395.79V81.9076L1393.5 83.4676V92.5156H1388.82V94.6476H1393.5V111.808ZM1407.04 112.172C1408.08 116.28 1411.05 119.14 1416.09 119.14C1420.67 119.14 1423.94 116.176 1423.94 111.548C1423.94 108.064 1421.76 105.62 1417.39 104.216C1413.02 102.708 1411.05 101.304 1411.05 98.6516C1411.05 95.8956 1413.13 94.2316 1415.68 94.2316C1418.07 94.2316 1419.94 95.3236 1421.24 97.5076L1422.85 96.1556C1421.29 93.4516 1418.95 92.0996 1415.83 92.0996C1411.83 92.0996 1408.76 94.6476 1408.76 98.6516C1408.76 102.344 1411.2 104.528 1415.73 105.932C1419.63 107.024 1421.6 108.844 1421.6 111.6C1421.6 114.928 1419.26 117.008 1416.09 117.008C1412.14 117.008 1410.11 114.98 1409.07 111.184L1407.04 112.172Z" fill="#8C8C8C"/>
<path d="M-24.608 192.172C-23.568 196.28 -20.604 199.14 -15.56 199.14C-10.984 199.14 -7.708 196.176 -7.708 191.548C-7.708 188.064 -9.892 185.62 -14.26 184.216C-18.628 182.708 -20.604 181.304 -20.604 178.652C-20.604 175.896 -18.524 174.232 -15.976 174.232C-13.584 174.232 -11.712 175.324 -10.412 177.508L-8.8 176.156C-10.36 173.452 -12.7 172.1 -15.82 172.1C-19.824 172.1 -22.892 174.648 -22.892 178.652C-22.892 182.344 -20.448 184.528 -15.924 185.932C-12.024 187.024 -10.048 188.844 -10.048 191.6C-10.048 194.928 -12.388 197.008 -15.56 197.008C-19.512 197.008 -21.54 194.98 -22.58 191.184L-24.608 192.172ZM-1.76822 190.352C-1.76822 195.968 1.19578 199.14 6.34378 199.14C10.3478 199.14 13.7798 196.8 15.4958 192.848V198.724H17.7838V172.516H15.4958V185.308C15.4958 192.172 11.8558 197.008 6.75978 197.008C2.59978 197.008 0.519782 194.616 0.519782 190.092V172.516H-1.76822V190.352ZM25.9076 209.332H28.1956V195.812C28.1956 194.72 28.1956 193.94 28.1436 193.472C29.9636 196.852 33.2396 199.14 37.3476 199.14C44.4716 199.14 48.7356 193.316 48.7356 185.62C48.7356 177.924 44.4716 172.1 37.3476 172.1C33.2396 172.1 29.5476 174.492 28.1436 178.028C28.1956 177.456 28.1956 176.676 28.1956 175.584V172.516H25.9076V209.332ZM46.3956 185.62C46.3956 192.016 42.9116 197.008 37.1916 197.008C31.4196 197.008 27.9876 192.016 27.9876 185.62C27.9876 182.292 28.8196 179.588 30.4316 177.456C32.0436 175.324 34.3316 174.232 37.1916 174.232C40.0516 174.232 42.2876 175.324 43.8996 177.456C45.5636 179.588 46.3956 182.292 46.3956 185.62ZM55.3099 209.332H57.5979V195.812C57.5979 194.72 57.5979 193.94 57.5459 193.472C59.3659 196.852 62.6419 199.14 66.7499 199.14C73.8739 199.14 78.1379 193.316 78.1379 185.62C78.1379 177.924 73.8739 172.1 66.7499 172.1C62.6419 172.1 58.9499 174.492 57.5459 178.028C57.5979 177.456 57.5979 176.676 57.5979 175.584V172.516H55.3099V209.332ZM75.7979 185.62C75.7979 192.016 72.3139 197.008 66.5939 197.008C60.8219 197.008 57.3899 192.016 57.3899 185.62C57.3899 182.292 58.2219 179.588 59.8339 177.456C61.4459 175.324 63.7339 174.232 66.5939 174.232C69.4539 174.232 71.6899 175.324 73.3019 177.456C74.9659 179.588 75.7979 182.292 75.7979 185.62ZM83.1523 185.62C83.0483 192.484 87.8843 199.296 95.2683 199.14C102.652 199.296 107.488 192.484 107.384 185.62C107.488 178.756 102.652 171.944 95.2683 172.1C87.8843 171.944 83.0483 178.756 83.1523 185.62ZM105.044 185.62C105.044 191.496 101.404 197.008 95.2683 197.008C89.1843 197.008 85.5443 191.496 85.5443 185.62C85.5443 179.692 89.1843 174.232 95.2683 174.232C101.404 174.232 105.044 179.692 105.044 185.62ZM113.911 198.724H116.199V185.412C116.199 178.496 119.319 174.232 123.167 174.232C124.467 174.232 125.559 174.492 126.495 175.012L127.067 172.828C125.923 172.36 124.727 172.1 123.531 172.1C120.203 172.1 117.707 173.816 116.199 177.144V172.516H113.911V198.724ZM134.761 191.808C134.761 196.8 136.997 199.14 140.689 199.14C142.405 199.14 143.757 198.828 144.849 198.152L144.225 196.124C143.341 196.696 142.249 197.008 140.949 197.008C138.453 197.008 137.049 195.5 137.049 192.328V174.648H144.173V172.516H137.049V161.908L134.761 163.468V172.516H130.081V174.648H134.761V191.808ZM161.81 192.172C162.85 196.28 165.814 199.14 170.858 199.14C175.434 199.14 178.71 196.176 178.71 191.548C178.71 188.064 176.526 185.62 172.158 184.216C167.79 182.708 165.814 181.304 165.814 178.652C165.814 175.896 167.894 174.232 170.442 174.232C172.834 174.232 174.706 175.324 176.006 177.508L177.618 176.156C176.058 173.452 173.718 172.1 170.598 172.1C166.594 172.1 163.526 174.648 163.526 178.652C163.526 182.344 165.97 184.528 170.494 185.932C174.394 187.024 176.37 188.844 176.37 191.6C176.37 194.928 174.03 197.008 170.858 197.008C166.906 197.008 164.878 194.98 163.838 191.184L161.81 192.172ZM185.999 191.808C185.999 196.8 188.235 199.14 191.927 199.14C193.643 199.14 194.995 198.828 196.087 198.152L195.463 196.124C194.579 196.696 193.487 197.008 192.187 197.008C189.691 197.008 188.287 195.5 188.287 192.328V174.648H195.411V172.516H188.287V161.908L185.999 163.468V172.516H181.319V174.648H185.999V191.808ZM199.85 191.236C199.85 196.436 203.282 199.14 207.91 199.14C211.706 199.14 214.618 197.528 216.594 194.356L217.114 198.724H218.882V180.94C218.882 175.376 215.346 172.1 209.938 172.1C205.362 172.1 201.67 174.648 200.786 179.068L202.97 179.588C203.802 176.208 206.35 174.232 209.938 174.232C214.098 174.232 216.594 176.416 216.594 181.044V182.968H210.77C204.062 182.968 199.85 185.828 199.85 191.236ZM216.594 188.012C216.594 193.992 212.122 197.008 208.222 197.008C204.634 197.008 202.242 194.928 202.242 191.236C202.242 187.44 205.206 185.1 210.874 185.1H216.594V188.012ZM226.969 198.724H229.257V174.648H241.581V198.724H243.869V174.648H249.953V172.516H243.869V169.76C243.869 165.86 245.689 164.04 248.601 164.04C249.589 164.04 250.473 164.248 251.305 164.664L251.825 162.584C250.993 162.116 249.953 161.908 248.757 161.908C244.233 161.908 241.581 164.612 241.581 170.072V172.516H229.257V169.76C229.257 165.86 231.077 164.04 233.989 164.04C234.977 164.04 235.861 164.248 236.693 164.664L237.213 162.584C236.381 162.116 235.341 161.908 234.145 161.908C229.621 161.908 226.969 164.612 226.969 170.072V172.516H222.757V174.648H226.969V198.724Z" fill="#8C8C8C"/>
<path d="M287.056 209.332H289.344V195.812C289.344 194.72 289.344 193.94 289.292 193.472C291.112 196.852 294.388 199.14 298.496 199.14C305.62 199.14 309.884 193.316 309.884 185.62C309.884 177.924 305.62 172.1 298.496 172.1C294.388 172.1 290.696 174.492 289.292 178.028C289.344 177.456 289.344 176.676 289.344 175.584V172.516H287.056V209.332ZM307.544 185.62C307.544 192.016 304.06 197.008 298.34 197.008C292.568 197.008 289.136 192.016 289.136 185.62C289.136 182.292 289.968 179.588 291.58 177.456C293.192 175.324 295.48 174.232 298.34 174.232C301.2 174.232 303.436 175.324 305.048 177.456C306.712 179.588 307.544 182.292 307.544 185.62ZM314.698 191.236C314.698 196.436 318.13 199.14 322.758 199.14C326.554 199.14 329.466 197.528 331.442 194.356L331.962 198.724H333.73V180.94C333.73 175.376 330.194 172.1 324.786 172.1C320.21 172.1 316.518 174.648 315.634 179.068L317.818 179.588C318.65 176.208 321.198 174.232 324.786 174.232C328.946 174.232 331.442 176.416 331.442 181.044V182.968H325.618C318.91 182.968 314.698 185.828 314.698 191.236ZM331.442 188.012C331.442 193.992 326.97 197.008 323.07 197.008C319.482 197.008 317.09 194.928 317.09 191.236C317.09 187.44 320.054 185.1 325.722 185.1H331.442V188.012ZM342.488 191.808C342.488 196.8 344.724 199.14 348.416 199.14C350.132 199.14 351.484 198.828 352.576 198.152L351.952 196.124C351.068 196.696 349.976 197.008 348.676 197.008C346.18 197.008 344.776 195.5 344.776 192.328V174.648H351.9V172.516H344.776V161.908L342.488 163.468V172.516H337.808V174.648H342.488V191.808ZM358.099 198.724H360.387V172.516H358.099V198.724ZM357.215 164.976C357.215 166.068 358.151 167.004 359.243 167.004C360.439 167.004 361.271 166.172 361.271 164.976C361.271 163.78 360.439 162.948 359.243 162.948C358.047 162.948 357.215 163.78 357.215 164.976ZM389.569 185.464V184.008C389.569 176.988 384.993 172.1 378.441 172.1C371.941 172.1 366.949 177.664 366.949 185.62C366.949 193.264 371.577 199.14 378.389 199.14C383.225 199.14 386.397 197.112 388.893 192.068L386.865 191.132C384.785 195.344 382.497 197.008 378.389 197.008C372.773 197.008 369.289 191.756 369.289 185.62V185.464H389.569ZM369.445 183.332C370.277 177.716 374.021 174.232 378.441 174.232C383.641 174.232 386.865 177.716 387.229 183.332H369.445ZM396.134 198.724H398.422V185.932C398.422 179.068 402.062 174.232 407.21 174.232C411.318 174.232 413.398 176.624 413.398 181.148V198.724H415.686V180.888C415.686 175.272 412.774 172.1 407.626 172.1C403.518 172.1 400.138 174.388 398.422 178.34V172.516H396.134V198.724ZM424.652 191.808C424.652 196.8 426.888 199.14 430.58 199.14C432.296 199.14 433.648 198.828 434.74 198.152L434.116 196.124C433.232 196.696 432.14 197.008 430.84 197.008C428.344 197.008 426.94 195.5 426.94 192.328V174.648H434.064V172.516H426.94V161.908L424.652 163.468V172.516H419.972V174.648H424.652V191.808ZM451.701 192.172C452.741 196.28 455.705 199.14 460.749 199.14C465.325 199.14 468.601 196.176 468.601 191.548C468.601 188.064 466.417 185.62 462.049 184.216C457.681 182.708 455.705 181.304 455.705 178.652C455.705 175.896 457.785 174.232 460.333 174.232C462.725 174.232 464.597 175.324 465.897 177.508L467.509 176.156C465.949 173.452 463.609 172.1 460.489 172.1C456.485 172.1 453.417 174.648 453.417 178.652C453.417 182.344 455.861 184.528 460.385 185.932C464.285 187.024 466.261 188.844 466.261 191.6C466.261 194.928 463.921 197.008 460.749 197.008C456.797 197.008 454.769 194.98 453.729 191.184L451.701 192.172Z" fill="#8C8C8C"/>
<path d="M503.6 191.236C503.6 196.436 507.032 199.14 511.66 199.14C515.456 199.14 518.368 197.528 520.344 194.356L520.864 198.724H522.632V180.94C522.632 175.376 519.096 172.1 513.688 172.1C509.112 172.1 505.42 174.648 504.536 179.068L506.72 179.588C507.552 176.208 510.1 174.232 513.688 174.232C517.848 174.232 520.344 176.416 520.344 181.044V182.968H514.52C507.812 182.968 503.6 185.828 503.6 191.236ZM520.344 188.012C520.344 193.992 515.872 197.008 511.972 197.008C508.384 197.008 505.992 194.928 505.992 191.236C505.992 187.44 508.956 185.1 514.624 185.1H520.344V188.012ZM528.582 185.62C528.582 193.316 532.846 199.14 539.97 199.14C544.078 199.14 547.77 196.748 549.174 193.212L549.122 195.656V198.724H551.41V161.908H549.122V175.428L549.174 177.716C547.354 174.232 544.234 172.1 540.022 172.1C532.95 172.1 528.582 177.924 528.582 185.62ZM549.33 185.62C549.33 188.896 548.498 191.652 546.886 193.784C545.274 195.916 543.038 197.008 540.178 197.008C537.318 197.008 535.082 195.916 533.418 193.784C531.806 191.652 530.974 188.896 530.974 185.62C530.974 179.224 534.406 174.232 540.178 174.232C545.846 174.232 549.33 179.224 549.33 185.62ZM559.544 198.724H561.832V185.152C561.832 178.756 565.576 174.232 569.788 174.232C573.376 174.232 575.04 176.468 575.04 180.836V198.724H577.328V185.152C577.328 178.756 581.176 174.232 585.284 174.232C588.976 174.232 590.536 176.468 590.536 180.836V198.724H592.824V180.576C592.824 174.908 590.432 172.1 585.7 172.1C581.904 172.1 578.836 174.284 577.12 177.976C576.496 174.232 574 172.1 570.204 172.1C566.304 172.1 563.34 174.44 561.832 177.976V172.516H559.544V198.724ZM600.931 198.724H603.219V172.516H600.931V198.724ZM600.047 164.976C600.047 166.068 600.983 167.004 602.075 167.004C603.271 167.004 604.103 166.172 604.103 164.976C604.103 163.78 603.271 162.948 602.075 162.948C600.879 162.948 600.047 163.78 600.047 164.976ZM611.341 198.724H613.629V185.932C613.629 179.068 617.269 174.232 622.417 174.232C626.525 174.232 628.605 176.624 628.605 181.148V198.724H630.893V180.888C630.893 175.272 627.981 172.1 622.833 172.1C618.725 172.1 615.345 174.388 613.629 178.34V172.516H611.341V198.724ZM639.017 198.724H641.305V172.516H639.017V198.724ZM638.133 164.976C638.133 166.068 639.069 167.004 640.161 167.004C641.357 167.004 642.189 166.172 642.189 164.976C642.189 163.78 641.357 162.948 640.161 162.948C638.965 162.948 638.133 163.78 638.133 164.976ZM647.052 192.172C648.092 196.28 651.056 199.14 656.1 199.14C660.676 199.14 663.952 196.176 663.952 191.548C663.952 188.064 661.768 185.62 657.4 184.216C653.032 182.708 651.056 181.304 651.056 178.652C651.056 175.896 653.136 174.232 655.684 174.232C658.076 174.232 659.948 175.324 661.248 177.508L662.86 176.156C661.3 173.452 658.96 172.1 655.84 172.1C651.836 172.1 648.768 174.648 648.768 178.652C648.768 182.344 651.212 184.528 655.736 185.932C659.636 187.024 661.612 188.844 661.612 191.6C661.612 194.928 659.272 197.008 656.1 197.008C652.148 197.008 650.12 194.98 649.08 191.184L647.052 192.172ZM671.242 191.808C671.242 196.8 673.478 199.14 677.17 199.14C678.886 199.14 680.238 198.828 681.33 198.152L680.706 196.124C679.822 196.696 678.73 197.008 677.43 197.008C674.934 197.008 673.53 195.5 673.53 192.328V174.648H680.654V172.516H673.53V161.908L671.242 163.468V172.516H666.562V174.648H671.242V191.808ZM686.447 198.724H688.735V185.412C688.735 178.496 691.855 174.232 695.703 174.232C697.003 174.232 698.095 174.492 699.031 175.012L699.603 172.828C698.459 172.36 697.263 172.1 696.067 172.1C692.739 172.1 690.243 173.816 688.735 177.144V172.516H686.447V198.724ZM701.596 191.236C701.596 196.436 705.028 199.14 709.656 199.14C713.452 199.14 716.364 197.528 718.34 194.356L718.86 198.724H720.628V180.94C720.628 175.376 717.092 172.1 711.684 172.1C707.108 172.1 703.416 174.648 702.532 179.068L704.716 179.588C705.548 176.208 708.096 174.232 711.684 174.232C715.844 174.232 718.34 176.416 718.34 181.044V182.968H712.516C705.808 182.968 701.596 185.828 701.596 191.236ZM718.34 188.012C718.34 193.992 713.868 197.008 709.968 197.008C706.38 197.008 703.988 194.928 703.988 191.236C703.988 187.44 706.952 185.1 712.62 185.1H718.34V188.012ZM729.386 191.808C729.386 196.8 731.622 199.14 735.314 199.14C737.03 199.14 738.382 198.828 739.474 198.152L738.85 196.124C737.966 196.696 736.874 197.008 735.574 197.008C733.078 197.008 731.674 195.5 731.674 192.328V174.648H738.798V172.516H731.674V161.908L729.386 163.468V172.516H724.706V174.648H729.386V191.808ZM744.997 198.724H747.285V172.516H744.997V198.724ZM744.113 164.976C744.113 166.068 745.049 167.004 746.141 167.004C747.337 167.004 748.169 166.172 748.169 164.976C748.169 163.78 747.337 162.948 746.141 162.948C744.945 162.948 744.113 163.78 744.113 164.976ZM761.44 198.724H763.832L773.088 172.516H770.696L762.636 195.76L754.576 172.516H752.184L761.44 198.724ZM798.405 185.464V184.008C798.405 176.988 793.829 172.1 787.277 172.1C780.777 172.1 775.785 177.664 775.785 185.62C775.785 193.264 780.413 199.14 787.225 199.14C792.061 199.14 795.233 197.112 797.729 192.068L795.701 191.132C793.621 195.344 791.333 197.008 787.225 197.008C781.609 197.008 778.125 191.756 778.125 185.62V185.464H798.405ZM778.281 183.332C779.113 177.716 782.857 174.232 787.277 174.232C792.477 174.232 795.701 177.716 796.065 183.332H778.281Z" fill="#8C8C8C"/>
<path d="M835.68 198.724H838.072V182.032H847.484C854.14 182.032 858.144 178.34 858.144 172.152C858.144 165.964 854.14 162.324 847.484 162.324H835.68V198.724ZM838.072 179.796V164.56H847.536C852.944 164.56 855.648 167.368 855.648 172.152C855.648 176.936 852.944 179.796 847.536 179.796H838.072ZM864.509 198.724H866.797V186.088C866.797 179.172 870.697 174.232 875.897 174.232C880.109 174.232 882.345 176.624 882.345 181.148V198.724H884.633V180.888C884.633 175.22 881.669 172.1 876.313 172.1C872.153 172.1 868.513 174.284 866.797 178.6V161.908H864.509V198.724ZM906.137 172.516L898.285 194.408L890.433 172.516H887.989L897.037 197.84L892.929 209.332H895.269L908.529 172.516H906.137ZM910.935 192.172C911.975 196.28 914.939 199.14 919.983 199.14C924.559 199.14 927.835 196.176 927.835 191.548C927.835 188.064 925.651 185.62 921.283 184.216C916.915 182.708 914.939 181.304 914.939 178.652C914.939 175.896 917.019 174.232 919.567 174.232C921.959 174.232 923.831 175.324 925.131 177.508L926.743 176.156C925.183 173.452 922.843 172.1 919.723 172.1C915.719 172.1 912.651 174.648 912.651 178.652C912.651 182.344 915.095 184.528 919.619 185.932C923.519 187.024 925.495 188.844 925.495 191.6C925.495 194.928 923.155 197.008 919.983 197.008C916.031 197.008 914.003 194.98 912.963 191.184L910.935 192.172ZM934.283 198.724H936.571V172.516H934.283V198.724ZM933.399 164.976C933.399 166.068 934.335 167.004 935.427 167.004C936.623 167.004 937.455 166.172 937.455 164.976C937.455 163.78 936.623 162.948 935.427 162.948C934.231 162.948 933.399 163.78 933.399 164.976ZM943.133 185.62C943.133 192.796 947.241 199.14 954.469 199.14C959.513 199.14 962.945 196.748 964.713 191.912L962.685 191.132C961.177 195.084 958.681 197.008 954.469 197.008C948.645 197.008 945.525 191.808 945.525 185.62C945.525 182.396 946.305 179.692 947.865 177.508C949.425 175.324 951.609 174.232 954.469 174.232C958.577 174.232 961.177 176.104 962.633 180.056L964.661 179.276C962.945 174.44 959.617 172.1 954.469 172.1C947.241 172.1 943.133 178.444 943.133 185.62ZM970.947 198.724H973.235V172.516H970.947V198.724ZM970.063 164.976C970.063 166.068 970.999 167.004 972.091 167.004C973.287 167.004 974.119 166.172 974.119 164.976C974.119 163.78 973.287 162.948 972.091 162.948C970.895 162.948 970.063 163.78 970.063 164.976ZM979.647 191.236C979.647 196.436 983.079 199.14 987.707 199.14C991.503 199.14 994.415 197.528 996.391 194.356L996.911 198.724H998.679V180.94C998.679 175.376 995.143 172.1 989.735 172.1C985.159 172.1 981.467 174.648 980.583 179.068L982.767 179.588C983.599 176.208 986.147 174.232 989.735 174.232C993.895 174.232 996.391 176.416 996.391 181.044V182.968H990.567C983.859 182.968 979.647 185.828 979.647 191.236ZM996.391 188.012C996.391 193.992 991.919 197.008 988.019 197.008C984.431 197.008 982.039 194.928 982.039 191.236C982.039 187.44 985.003 185.1 990.671 185.1H996.391V188.012ZM1006.19 198.724H1008.48V185.932C1008.48 179.068 1012.12 174.232 1017.26 174.232C1021.37 174.232 1023.45 176.624 1023.45 181.148V198.724H1025.74V180.888C1025.74 175.272 1022.83 172.1 1017.68 172.1C1013.57 172.1 1010.19 174.388 1008.48 178.34V172.516H1006.19V198.724Z" fill="#8C8C8C"/>
<path d="M1064.06 198.724H1066.34V172.516H1064.06V198.724ZM1063.17 164.976C1063.17 166.068 1064.11 167.004 1065.2 167.004C1066.4 167.004 1067.23 166.172 1067.23 164.976C1067.23 163.78 1066.4 162.948 1065.2 162.948C1064 162.948 1063.17 163.78 1063.17 164.976ZM1074.47 198.724H1076.75V185.932C1076.75 179.068 1080.39 174.232 1085.54 174.232C1089.65 174.232 1091.73 176.624 1091.73 181.148V198.724H1094.02V180.888C1094.02 175.272 1091.11 172.1 1085.96 172.1C1081.85 172.1 1078.47 174.388 1076.75 178.34V172.516H1074.47V198.724ZM1100.58 185.62C1100.58 193.316 1104.85 199.14 1111.97 199.14C1116.08 199.14 1119.77 196.748 1121.17 193.212L1121.12 195.656V198.724H1123.41V161.908H1121.12V175.428L1121.17 177.716C1119.35 174.232 1116.23 172.1 1112.02 172.1C1104.95 172.1 1100.58 177.924 1100.58 185.62ZM1121.33 185.62C1121.33 188.896 1120.5 191.652 1118.89 193.784C1117.27 195.916 1115.04 197.008 1112.18 197.008C1109.32 197.008 1107.08 195.916 1105.42 193.784C1103.81 191.652 1102.97 188.896 1102.97 185.62C1102.97 179.224 1106.41 174.232 1112.18 174.232C1117.85 174.232 1121.33 179.224 1121.33 185.62ZM1131.54 198.724H1133.83V172.516H1131.54V198.724ZM1130.66 164.976C1130.66 166.068 1131.6 167.004 1132.69 167.004C1133.88 167.004 1134.72 166.172 1134.72 164.976C1134.72 163.78 1133.88 162.948 1132.69 162.948C1131.49 162.948 1130.66 163.78 1130.66 164.976ZM1147.99 198.724H1150.38L1159.63 172.516H1157.24L1149.18 195.76L1141.12 172.516H1138.73L1147.99 198.724ZM1164.5 198.724H1166.79V172.516H1164.5V198.724ZM1163.62 164.976C1163.62 166.068 1164.55 167.004 1165.65 167.004C1166.84 167.004 1167.67 166.172 1167.67 164.976C1167.67 163.78 1166.84 162.948 1165.65 162.948C1164.45 162.948 1163.62 163.78 1163.62 164.976ZM1173.35 185.62C1173.35 193.316 1177.62 199.14 1184.74 199.14C1188.85 199.14 1192.54 196.748 1193.94 193.212L1193.89 195.656V198.724H1196.18V161.908H1193.89V175.428L1193.94 177.716C1192.12 174.232 1189 172.1 1184.79 172.1C1177.72 172.1 1173.35 177.924 1173.35 185.62ZM1194.1 185.62C1194.1 188.896 1193.27 191.652 1191.66 193.784C1190.04 195.916 1187.81 197.008 1184.95 197.008C1182.09 197.008 1179.85 195.916 1178.19 193.784C1176.58 191.652 1175.74 188.896 1175.74 185.62C1175.74 179.224 1179.18 174.232 1184.95 174.232C1190.62 174.232 1194.1 179.224 1194.1 185.62ZM1204.31 190.352C1204.31 195.968 1207.28 199.14 1212.43 199.14C1216.43 199.14 1219.86 196.8 1221.58 192.848V198.724H1223.87V172.516H1221.58V185.308C1221.58 192.172 1217.94 197.008 1212.84 197.008C1208.68 197.008 1206.6 194.616 1206.6 190.092V172.516H1204.31V190.352ZM1230.53 191.236C1230.53 196.436 1233.97 199.14 1238.59 199.14C1242.39 199.14 1245.3 197.528 1247.28 194.356L1247.8 198.724H1249.57V180.94C1249.57 175.376 1246.03 172.1 1240.62 172.1C1236.05 172.1 1232.35 174.648 1231.47 179.068L1233.65 179.588C1234.49 176.208 1237.03 174.232 1240.62 174.232C1244.78 174.232 1247.28 176.416 1247.28 181.044V182.968H1241.45C1234.75 182.968 1230.53 185.828 1230.53 191.236ZM1247.28 188.012C1247.28 193.992 1242.81 197.008 1238.91 197.008C1235.32 197.008 1232.93 194.928 1232.93 191.236C1232.93 187.44 1235.89 185.1 1241.56 185.1H1247.28V188.012ZM1257.08 198.724H1259.36V161.908H1257.08V198.724Z" fill="#8C8C8C"/>
<path d="M1296.5 185.62C1296.39 192.484 1301.23 199.296 1308.61 199.14C1316 199.296 1320.83 192.484 1320.73 185.62C1320.83 178.756 1316 171.944 1308.61 172.1C1301.23 171.944 1296.39 178.756 1296.5 185.62ZM1318.39 185.62C1318.39 191.496 1314.75 197.008 1308.61 197.008C1302.53 197.008 1298.89 191.496 1298.89 185.62C1298.89 179.692 1302.53 174.232 1308.61 174.232C1314.75 174.232 1318.39 179.692 1318.39 185.62ZM1327.26 209.332H1329.54V195.812C1329.54 194.72 1329.54 193.94 1329.49 193.472C1331.31 196.852 1334.59 199.14 1338.7 199.14C1345.82 199.14 1350.08 193.316 1350.08 185.62C1350.08 177.924 1345.82 172.1 1338.7 172.1C1334.59 172.1 1330.9 174.492 1329.49 178.028C1329.54 177.456 1329.54 176.676 1329.54 175.584V172.516H1327.26V209.332ZM1347.74 185.62C1347.74 192.016 1344.26 197.008 1338.54 197.008C1332.77 197.008 1329.34 192.016 1329.34 185.62C1329.34 182.292 1330.17 179.588 1331.78 177.456C1333.39 175.324 1335.68 174.232 1338.54 174.232C1341.4 174.232 1343.64 175.324 1345.25 177.456C1346.91 179.588 1347.74 182.292 1347.74 185.62ZM1357.7 191.808C1357.7 196.8 1359.94 199.14 1363.63 199.14C1365.35 199.14 1366.7 198.828 1367.79 198.152L1367.17 196.124C1366.28 196.696 1365.19 197.008 1363.89 197.008C1361.39 197.008 1359.99 195.5 1359.99 192.328V174.648H1367.11V172.516H1359.99V161.908L1357.7 163.468V172.516H1353.02V174.648H1357.7V191.808ZM1373.31 198.724H1375.6V172.516H1373.31V198.724ZM1372.43 164.976C1372.43 166.068 1373.37 167.004 1374.46 167.004C1375.65 167.004 1376.49 166.172 1376.49 164.976C1376.49 163.78 1375.65 162.948 1374.46 162.948C1373.26 162.948 1372.43 163.78 1372.43 164.976ZM1382.16 185.62C1382.16 192.796 1386.27 199.14 1393.5 199.14C1398.54 199.14 1401.98 196.748 1403.74 191.912L1401.72 191.132C1400.21 195.084 1397.71 197.008 1393.5 197.008C1387.68 197.008 1384.56 191.808 1384.56 185.62C1384.56 182.396 1385.34 179.692 1386.9 177.508C1388.46 175.324 1390.64 174.232 1393.5 174.232C1397.61 174.232 1400.21 176.104 1401.66 180.056L1403.69 179.276C1401.98 174.44 1398.65 172.1 1393.5 172.1C1386.27 172.1 1382.16 178.444 1382.16 185.62ZM1409.98 198.724H1412.27V172.516H1409.98V198.724ZM1409.09 164.976C1409.09 166.068 1410.03 167.004 1411.12 167.004C1412.32 167.004 1413.15 166.172 1413.15 164.976C1413.15 163.78 1412.32 162.948 1411.12 162.948C1409.93 162.948 1409.09 163.78 1409.09 164.976ZM1418.68 191.236C1418.68 196.436 1422.11 199.14 1426.74 199.14C1430.53 199.14 1433.45 197.528 1435.42 194.356L1435.94 198.724H1437.71V180.94C1437.71 175.376 1434.17 172.1 1428.77 172.1C1424.19 172.1 1420.5 174.648 1419.61 179.068L1421.8 179.588C1422.63 176.208 1425.18 174.232 1428.77 174.232C1432.93 174.232 1435.42 176.416 1435.42 181.044V182.968H1429.6C1422.89 182.968 1418.68 185.828 1418.68 191.236ZM1435.42 188.012C1435.42 193.992 1430.95 197.008 1427.05 197.008C1423.46 197.008 1421.07 194.928 1421.07 191.236C1421.07 187.44 1424.03 185.1 1429.7 185.1H1435.42V188.012ZM1445.22 198.724H1447.51V185.932C1447.51 179.068 1451.15 174.232 1456.3 174.232C1460.4 174.232 1462.48 176.624 1462.48 181.148V198.724H1464.77V180.888C1464.77 175.272 1461.86 172.1 1456.71 172.1C1452.6 172.1 1449.22 174.388 1447.51 178.34V172.516H1445.22V198.724Z" fill="#8C8C8C"/>
</svg>
