<svg width="110" height="27" viewBox="0 0 110 27" fill="none" xmlns="http://www.w3.org/2000/svg">
<path d="M16.5616 1.5999V5.28595C14.565 4.12553 12.8756 3.54532 11.4933 3.54532C9.80386 3.54532 8.44719 4.13406 7.42329 5.31155C6.39939 6.48904 5.88744 8.05902 5.88744 10.0215C5.88744 12.1376 6.49325 13.8526 7.70486 15.1666C8.93355 16.4636 10.5377 17.112 12.5172 17.112L13.8739 17.0608V13.3492C13.8739 12.7007 13.7459 12.0266 13.4899 11.327C13.3875 11.0881 13.2681 10.8662 13.1315 10.6614C12.995 10.4396 12.7646 10.1068 12.4404 9.66313H19.275V19.1854C18.9849 19.2878 18.6947 19.3731 18.4046 19.4414C18.1316 19.5097 17.961 19.5523 17.8927 19.5694C16.9541 19.7912 15.7596 19.9789 14.309 20.1325C12.8585 20.2861 11.5701 20.3629 10.4438 20.3629C7.42329 20.3629 4.92326 19.4499 2.94372 17.624C0.98124 15.798 0 13.4772 0 10.6614C0 7.72625 0.998305 5.37128 2.99491 3.59651C5.00859 1.80469 7.65367 0.90877 10.9302 0.90877C11.8175 0.90877 12.6196 0.951433 13.3363 1.03676C14.0531 1.12208 15.1282 1.3098 16.5616 1.5999Z" fill="#282828"/>
<path d="M20.7306 6.71942L22.676 6.82181C23.3586 6.82181 23.99 6.77914 24.5703 6.69382C25.1505 6.59143 25.6112 6.49757 25.9525 6.41224C26.3109 6.32692 26.8143 6.17333 27.4628 5.95149V7.9481C28.2648 6.78768 29.4679 6.20746 31.072 6.20746C31.3451 6.20746 31.5669 6.216 31.7376 6.23306C31.9082 6.25013 32.1386 6.29279 32.4287 6.36105V10.6102C32.1215 10.3884 31.8485 10.2263 31.6096 10.1239C31.3877 10.0044 31.1488 9.91058 30.8929 9.84232C30.5515 9.72286 30.2102 9.66313 29.8689 9.66313C29.1522 9.66313 28.5635 9.93618 28.1027 10.4823C27.7785 10.8406 27.5822 11.1393 27.514 11.3782C27.4457 11.6 27.4116 12.129 27.4116 12.9652V16.9072C27.4116 17.7434 27.4884 18.3322 27.642 18.6735C27.8126 18.9977 28.2136 19.3817 28.845 19.8254H20.7562C21.3535 19.3475 21.7204 18.9806 21.8569 18.7247C22.0617 18.3322 22.1641 17.7178 22.1641 16.8816L22.1897 10.3287C22.1897 9.61194 22.1811 9.14265 22.1641 8.9208C22.147 8.69896 22.1044 8.45152 22.0361 8.17848C21.8825 7.71772 21.4474 7.23137 20.7306 6.71942Z" fill="#282828"/>
<path d="M30.5693 26.0456L33.5642 22.8715C33.9396 23.2469 34.4345 23.4346 35.0489 23.4346C35.5437 23.4346 36.0045 23.281 36.4311 22.9739C36.8748 22.6667 37.2076 22.2486 37.4294 21.7196L38.3253 19.6206L33.5642 9.71433C33.3594 9.25357 33.1717 8.87814 33.001 8.58804C32.8475 8.29793 32.7365 8.09315 32.6683 7.9737C32.3952 7.5812 31.9089 7.1887 31.2092 6.79621L33.129 6.8986C33.7604 6.8986 34.4345 6.83887 35.1512 6.71942C35.885 6.59996 36.8236 6.30985 37.967 5.8491L41.1411 13.6564L43.0609 9.35596C43.3169 8.77575 43.4449 8.39179 43.4449 8.20407C43.4449 7.62386 43.1377 7.13751 42.5233 6.74501H48.7179L40.4755 22.5387C40.066 23.3066 39.7844 23.8101 39.6308 24.049C39.4772 24.2879 39.2639 24.5694 38.9909 24.8937C37.984 26.0029 36.4311 26.5575 34.3321 26.5575C33.4277 26.5575 32.6853 26.5063 32.1051 26.4039C31.5249 26.3015 31.2263 26.2504 31.2092 26.2504C30.9532 26.165 30.7399 26.0968 30.5693 26.0456Z" fill="#282828"/>
<path d="M64.9582 1.47192V5.28595L64.0879 4.774C62.7397 3.98901 61.3233 3.59651 59.8387 3.59651C58.1663 3.59651 56.8011 4.19379 55.7431 5.38834C54.7021 6.56583 54.1816 8.12728 54.1816 10.0727C54.1816 12.1546 54.8301 13.8441 56.127 15.141C57.424 16.438 59.1134 17.0864 61.1954 17.0864C62.0827 17.0864 62.9531 16.9926 63.8063 16.8049C64.6596 16.6001 65.2824 16.4038 65.6749 16.2161C66.0845 16.0284 66.6562 15.653 67.39 15.0898L64.907 19.8254C63.7466 20.0472 62.808 20.2008 62.0913 20.2861C61.3916 20.3714 60.6066 20.4141 59.7363 20.4141C56.6987 20.4141 54.2328 19.7486 52.3386 18.4175C51.1099 17.5472 50.1287 16.4124 49.3949 15.013C48.6782 13.6137 48.3198 12.1546 48.3198 10.6358C48.3198 7.76892 49.3096 5.42247 51.2891 3.59651C53.2686 1.77055 55.8199 0.857574 58.9428 0.857574C60.0008 0.857574 60.8541 0.891705 61.5025 0.959965C62.1681 1.02823 63.32 1.19888 64.9582 1.47192Z" fill="#8A48EF"/>
<path d="M68.6234 10.6102L71.0808 6.82181L72.9494 6.59143C73.3078 6.5573 73.76 6.52317 74.3061 6.48904C74.8692 6.45491 75.3044 6.43784 75.6116 6.43784C76.6184 6.43784 77.3949 6.51464 77.941 6.66822C78.5041 6.82181 79.0161 7.10338 79.4768 7.51294C79.9376 7.90544 80.2362 8.33206 80.3727 8.79282C80.5092 9.25357 80.5775 10.0642 80.5775 11.2246V15.6274L80.6543 16.1905C80.8079 16.6342 81.2857 16.856 82.0878 16.856L82.7021 16.7793L80.6799 19.9022C79.9632 20.1411 79.3403 20.2605 78.8113 20.2605C78.1799 20.2605 77.6082 20.1667 77.0962 19.979C76.5843 19.7912 76.1918 19.5353 75.9187 19.211C75.4921 18.682 75.2788 17.7776 75.2788 16.4977V13.7331L74.8437 13.8867L74.2293 14.0915L73.5126 14.3219C72.5569 14.6461 72.0791 15.1325 72.0791 15.781C72.0791 16.7366 72.8214 17.2144 74.3061 17.2144C74.4768 17.2144 74.7242 17.1718 75.0484 17.0864L73.1798 19.979C72.8214 20.0472 72.5569 20.0899 72.3863 20.1069C72.2327 20.124 72.0279 20.1325 71.7719 20.1325C70.3385 20.1325 69.2122 19.7656 68.3931 19.0318C67.5739 18.298 67.1644 17.2912 67.1644 16.0113C67.1644 15.3117 67.3436 14.6803 67.7019 14.1171C68.0774 13.5369 68.5808 13.0932 69.2122 12.786C69.7924 12.5301 70.5347 12.2741 71.4392 12.0181C71.8658 11.9157 72.2754 11.8219 72.6679 11.7365C73.0603 11.6512 73.5894 11.5574 74.2549 11.455C74.9204 11.3355 75.2532 11.0113 75.2532 10.4823C75.2532 9.79965 74.6133 9.45835 73.3334 9.45835C72.3778 9.45835 71.4562 9.59487 70.5689 9.86792C70.1934 9.95324 69.8265 10.0727 69.4682 10.2263C69.417 10.2433 69.1354 10.3713 68.6234 10.6102Z" fill="#8A48EF"/>
<path d="M82.0998 6.71942L84.0452 6.82181C84.7278 6.82181 85.3592 6.77914 85.9394 6.69382C86.5196 6.59143 86.9804 6.49757 87.3217 6.41224C87.68 6.32692 88.1834 6.17333 88.8319 5.95149V7.9481C89.634 6.78768 90.8371 6.20746 92.4412 6.20746C92.7142 6.20746 92.9361 6.216 93.1067 6.23306C93.2774 6.25013 93.5077 6.29279 93.7978 6.36105V10.6102C93.4907 10.3884 93.2176 10.2263 92.9787 10.1239C92.7569 10.0044 92.518 9.91058 92.262 9.84232C91.9207 9.72286 91.5794 9.66313 91.2381 9.66313C90.5214 9.66313 89.9326 9.93618 89.4719 10.4823C89.1476 10.8406 88.9514 11.1393 88.8831 11.3782C88.8148 11.6 88.7807 12.129 88.7807 12.9652V16.9072C88.7807 17.7434 88.8575 18.3322 89.0111 18.6735C89.1817 18.9977 89.5828 19.3817 90.2142 19.8254H82.1254C82.7226 19.3475 83.0895 18.9806 83.2261 18.7247C83.4308 18.3322 83.5332 17.7178 83.5332 16.8816L83.5588 10.3287C83.5588 9.61194 83.5503 9.14265 83.5332 8.9208C83.5162 8.69896 83.4735 8.45152 83.4052 8.17848C83.2516 7.71772 82.8165 7.23137 82.0998 6.71942Z" fill="#8A48EF"/>
<path d="M109.435 14.4755H99.0165C99.2213 15.2775 99.7247 15.9516 100.527 16.4977C101.346 17.0438 102.25 17.3168 103.24 17.3168C103.564 17.3168 103.974 17.2827 104.469 17.2144C104.964 17.1462 105.535 17.0352 106.184 16.8816C106.389 16.8475 106.628 16.7963 106.901 16.7281C107.174 16.6598 107.438 16.5915 107.694 16.5233C107.967 16.438 108.198 16.3612 108.385 16.2929C108.573 16.2246 108.863 16.0881 109.256 15.8833L106.798 19.8254L106.209 19.9278C105.134 20.1496 104.332 20.2947 103.803 20.3629C103.274 20.4312 102.66 20.4653 101.96 20.4653C99.4346 20.4653 97.4722 19.9107 96.0728 18.8015C95.3049 18.153 94.682 17.3253 94.2042 16.3185C93.7434 15.3117 93.5131 14.3048 93.5131 13.298C93.5131 12.3935 93.7178 11.4891 94.1274 10.5846C94.554 9.66313 95.1342 8.86961 95.868 8.20407C97.3698 6.83887 99.3322 6.15627 101.755 6.15627C104.23 6.15627 106.141 6.79621 107.489 8.07609C108.837 9.35596 109.512 11.1819 109.512 13.554L109.435 14.4755ZM98.7862 11.7621H104.366C104.366 10.8236 104.128 10.0727 103.65 9.50955C103.172 8.9464 102.523 8.66483 101.704 8.66483C100.885 8.66483 100.194 8.95494 99.6309 9.53515C99.0677 10.1154 98.7862 10.8577 98.7862 11.7621Z" fill="#8A48EF"/>
</svg>
