<svg width="190" height="57" viewBox="0 0 190 57" fill="none" xmlns="http://www.w3.org/2000/svg">
<g clip-path="url(#clip0_16_2219)">
<path d="M95.9102 31.2693C92.627 31.2693 89.951 33.7666 89.951 37.2062C89.951 40.6248 92.627 43.1431 95.9102 43.1431C99.1948 43.1431 101.871 40.6248 101.871 37.2062C101.869 33.7666 99.1934 31.2693 95.9102 31.2693ZM95.9102 40.8063C94.1109 40.8063 92.56 39.3224 92.56 37.2076C92.56 35.0704 94.1123 33.6089 95.9102 33.6089C97.7096 33.6089 99.2604 35.0704 99.2604 37.2076C99.2604 39.321 97.7096 40.8063 95.9102 40.8063ZM82.9085 31.2693C79.6253 31.2693 76.9493 33.7666 76.9493 37.2062C76.9493 40.6248 79.6253 43.1431 82.9085 43.1431C86.1931 43.1431 88.8692 40.6248 88.8692 37.2062C88.8692 33.7666 86.1931 31.2693 82.9085 31.2693ZM82.9085 40.8063C81.1092 40.8063 79.5583 39.3224 79.5583 37.2076C79.5583 35.0704 81.1106 33.6089 82.9085 33.6089C84.7079 33.6089 86.2588 35.0704 86.2588 37.2076C86.2602 39.321 84.7079 40.8063 82.9085 40.8063ZM67.4444 33.0924V35.6107H73.4721C73.292 37.0275 72.8202 38.0619 72.0999 38.7808C71.2232 39.6575 69.851 40.6248 67.4444 40.6248C63.7341 40.6248 60.8333 37.6334 60.8333 33.923C60.8333 30.2126 63.7341 27.2211 67.4444 27.2211C69.4462 27.2211 70.9077 28.0084 71.9868 29.0205L73.7638 27.2435C72.2562 25.8043 70.2558 24.7029 67.4444 24.7029C62.3619 24.7029 58.0889 28.8404 58.0889 33.923C58.0889 39.0056 62.3619 43.1431 67.4444 43.1431C70.1874 43.1431 72.2576 42.2427 73.8755 40.5564C75.5394 38.8925 76.0573 36.5529 76.0573 34.6642C76.0573 34.0807 76.0126 33.5405 75.9219 33.091H67.4444V33.0924ZM130.691 35.0481C130.197 33.722 128.689 31.2693 125.609 31.2693C122.55 31.2693 120.008 33.6759 120.008 37.2062C120.008 40.5341 122.528 43.1431 125.9 43.1431C128.621 43.1431 130.196 41.4791 130.849 40.5118L128.825 39.1619C128.151 40.1516 127.228 40.8035 125.9 40.8035C124.574 40.8035 123.629 40.1963 123.022 39.0042L130.961 35.7209L130.691 35.0481ZM122.595 37.0275C122.528 34.7326 124.372 33.5642 125.699 33.5642C126.734 33.5642 127.61 34.0821 127.903 34.8234L122.595 37.0275ZM116.141 42.7843H118.749V25.3338H116.141V42.7843ZM111.867 32.5969H111.778C111.193 31.8989 110.068 31.2693 108.652 31.2693C105.683 31.2693 102.962 33.8783 102.962 37.2299C102.962 40.5578 105.683 43.1445 108.652 43.1445C110.069 43.1445 111.193 42.5149 111.778 41.796H111.867V42.6503C111.867 44.9215 110.653 46.136 108.697 46.136C107.1 46.136 106.11 44.9899 105.705 44.0225L103.434 44.9676C104.086 46.5408 105.817 48.4755 108.697 48.4755C111.755 48.4755 114.342 46.6762 114.342 42.2902V31.6309H111.868V32.5969H111.867ZM108.877 40.8063C107.078 40.8063 105.571 39.2987 105.571 37.2299C105.571 35.1374 107.078 33.6089 108.877 33.6089C110.653 33.6089 112.047 35.1374 112.047 37.2299C112.047 39.2987 110.653 40.8063 108.877 40.8063ZM142.911 25.3338H136.67V42.7843H139.273V36.1732H142.91C145.797 36.1732 148.636 34.0835 148.636 30.7542C148.636 27.4249 145.798 25.3338 142.911 25.3338ZM142.978 33.7443H139.273V27.7628H142.978C144.925 27.7628 146.031 29.3751 146.031 30.7542C146.031 32.1055 144.925 33.7443 142.978 33.7443ZM159.076 31.2386C157.19 31.2386 155.237 32.0692 154.429 33.9104L156.741 34.875C157.235 33.9104 158.156 33.5949 159.121 33.5949C160.468 33.5949 161.837 34.4032 161.859 35.8396V36.0197C161.388 35.7503 160.377 35.3468 159.143 35.3468C156.651 35.3468 154.113 36.7162 154.113 39.275C154.113 41.6104 156.157 43.1138 158.446 43.1138C160.197 43.1138 161.163 42.3279 161.769 41.4066H161.858V42.7536H164.374V36.0629C164.375 32.9668 162.06 31.2386 159.076 31.2386ZM158.76 40.8021C157.909 40.8021 156.718 40.375 156.718 39.3196C156.718 37.9726 158.201 37.4561 159.481 37.4561C160.624 37.4561 161.164 37.7032 161.859 38.0396C161.657 39.6575 160.265 40.8021 158.76 40.8021ZM173.534 31.6197L170.548 39.1856H170.458L167.359 31.6197H164.554L169.201 42.1939L166.551 48.0763H169.268L176.43 31.6197H173.534ZM150.074 42.7843H152.677V25.3338H150.074V42.7843Z" fill="#8A48EF"/>
<path fill-rule="evenodd" clip-rule="evenodd" d="M14.9749 12.0265C14.81 12.4 14.7189 12.8576 14.7189 13.3898V44.2622C14.7189 44.7955 14.8101 45.2531 14.9751 45.6263L31.7737 28.8253L14.9749 12.0265ZM15.9452 46.6303C16.5679 46.8968 17.3802 46.8123 18.2659 46.31L38.0284 35.08L32.7607 29.8124L15.9452 46.6303ZM39.2881 34.3656L45.4879 30.8431C47.438 29.7334 47.438 27.9201 45.4879 26.8117L39.2851 23.2871L33.7477 28.8253L39.2881 34.3656ZM38.0263 22.5718L18.2659 11.3434C17.3802 10.8401 16.568 10.7561 15.9453 11.0228L32.7607 27.8382L38.0263 22.5718Z" fill="#8A48EF"/>
<path d="M7.77688 2.30218H182.268V-0.489678H7.77688V2.30218ZM187.852 7.88589V49.7637H190.643V7.88589H187.852ZM182.268 55.3475H7.77689V58.1393H182.268V55.3475ZM2.19317 49.7637V7.88589H-0.598687V49.7637H2.19317ZM7.77689 55.3475C4.69309 55.3475 2.19317 52.8475 2.19317 49.7637H-0.598687C-0.598687 54.3894 3.15119 58.1393 7.77689 58.1393V55.3475ZM187.852 49.7637C187.852 52.8475 185.352 55.3475 182.268 55.3475V58.1393C186.894 58.1393 190.643 54.3894 190.643 49.7637H187.852ZM182.268 2.30218C185.352 2.30218 187.852 4.80209 187.852 7.88589H190.643C190.643 3.26019 186.894 -0.489678 182.268 -0.489678V2.30218ZM7.77688 -0.489678C3.15118 -0.489678 -0.598687 3.26019 -0.598687 7.88589H2.19317C2.19317 4.80209 4.69308 2.30218 7.77688 2.30218V-0.489678Z" fill="#8A48EF"/>
<path d="M64.979 17.8375C66.189 17.8375 67.249 17.2275 67.879 16.3075L66.659 15.4575C66.299 16.0175 65.769 16.3575 65.039 16.3575C63.859 16.3575 63.059 15.3975 63.059 14.2575C63.059 13.1175 63.889 12.1875 65.049 12.1875C65.769 12.1875 66.299 12.5275 66.659 13.0875L67.879 12.2375C67.249 11.3175 66.189 10.7075 64.979 10.7075C63.039 10.7075 61.479 12.3175 61.479 14.2575C61.479 16.2175 63.039 17.8375 64.979 17.8375ZM70.9319 17.8375C72.2619 17.8375 73.4719 16.8575 73.4719 15.3875C73.4719 13.9075 72.2619 12.9275 70.9319 12.9275C69.6019 12.9275 68.4019 13.9075 68.4019 15.3875C68.4019 16.8575 69.6019 17.8375 70.9319 17.8375ZM70.9319 16.4675C70.3619 16.4675 69.9019 16.0275 69.9019 15.3875C69.9019 14.7475 70.3619 14.2975 70.9319 14.2975C71.5019 14.2975 71.9619 14.7475 71.9619 15.3875C71.9619 16.0275 71.5019 16.4675 70.9319 16.4675ZM80.1836 12.9275C79.6936 12.9275 78.9736 13.1975 78.6536 13.8175C78.3736 13.2575 77.8636 12.9275 77.1736 12.9275C76.7036 12.9275 76.0036 13.2475 75.9136 13.9575V13.0475H74.4336V17.7175H75.9136V15.2775C75.9136 14.4975 76.3236 14.2975 76.7236 14.2975C77.0936 14.2975 77.4536 14.5575 77.4536 15.2775V17.7175H78.9336V15.4375C78.9336 14.6175 79.2736 14.2975 79.7336 14.2975C80.1136 14.2975 80.4736 14.5275 80.4736 15.2475V17.7175H81.9536V15.2075C81.9536 13.7775 81.3536 12.9275 80.1836 12.9275ZM83.8748 12.3475C84.3748 12.3475 84.7748 11.9575 84.7748 11.4875C84.7748 10.9975 84.3748 10.6275 83.8748 10.6275C83.3748 10.6275 82.9548 10.9975 82.9548 11.4875C82.9548 11.9575 83.3748 12.3475 83.8748 12.3475ZM83.1348 17.7175H84.6148V13.0475H83.1348V17.7175ZM88.6794 12.9275C88.2394 12.9275 87.4994 13.2275 87.3394 13.8875V13.0475H85.8594V17.7175H87.3394V15.2875C87.3394 14.5075 87.8394 14.2975 88.2394 14.2975C88.6094 14.2975 89.0494 14.5775 89.0494 15.2975V17.7175H90.5294V15.2075C90.5294 13.7775 89.9194 12.9275 88.6794 12.9275ZM95.159 13.0475V13.5575C94.809 13.1175 94.189 12.9275 93.709 12.9275C92.549 12.9275 91.449 13.8675 91.449 15.3775C91.449 16.8875 92.549 17.8375 93.709 17.8375C94.189 17.8375 94.809 17.6375 95.159 17.1975V17.3375C95.159 18.4075 94.669 18.8375 93.899 18.8375C93.409 18.8375 92.959 18.5275 92.789 18.1475L91.569 18.6375C91.939 19.5175 92.839 20.1375 93.899 20.1375C95.589 20.1375 96.629 19.1375 96.629 17.1575V13.0475H95.159ZM94.029 16.4675C93.449 16.4675 92.949 15.9675 92.949 15.3775C92.949 14.7875 93.449 14.2975 94.029 14.2975C94.589 14.2975 95.099 14.7775 95.099 15.3775C95.099 15.9775 94.599 16.4675 94.029 16.4675ZM101.975 17.8375C102.915 17.8375 103.985 17.3475 103.985 16.3175C103.985 15.9975 103.885 15.2575 102.715 14.9375L101.905 14.7175C101.665 14.6575 101.505 14.5575 101.505 14.3775C101.505 14.1775 101.715 14.0575 101.965 14.0575C102.255 14.0575 102.465 14.2075 102.465 14.5075H103.865C103.885 13.3375 102.815 12.9275 101.935 12.9275C100.805 12.9275 100.025 13.6375 100.025 14.3275C100.025 14.7175 100.065 15.4975 101.435 15.8675L102.045 16.0275C102.395 16.1075 102.505 16.1775 102.505 16.3275C102.505 16.5475 102.245 16.7075 101.935 16.7075C101.515 16.7075 101.345 16.4375 101.345 16.2075H99.9451C99.9451 17.2675 100.935 17.8375 101.975 17.8375ZM107.221 17.8375C108.551 17.8375 109.761 16.8575 109.761 15.3875C109.761 13.9075 108.551 12.9275 107.221 12.9275C105.891 12.9275 104.691 13.9075 104.691 15.3875C104.691 16.8575 105.891 17.8375 107.221 17.8375ZM107.221 16.4675C106.651 16.4675 106.191 16.0275 106.191 15.3875C106.191 14.7475 106.651 14.2975 107.221 14.2975C107.791 14.2975 108.251 14.7475 108.251 15.3875C108.251 16.0275 107.791 16.4675 107.221 16.4675ZM112.983 17.8375C114.313 17.8375 115.523 16.8575 115.523 15.3875C115.523 13.9075 114.313 12.9275 112.983 12.9275C111.653 12.9275 110.453 13.9075 110.453 15.3875C110.453 16.8575 111.653 17.8375 112.983 17.8375ZM112.983 16.4675C112.413 16.4675 111.953 16.0275 111.953 15.3875C111.953 14.7475 112.413 14.2975 112.983 14.2975C113.553 14.2975 114.013 14.7475 114.013 15.3875C114.013 16.0275 113.553 16.4675 112.983 16.4675ZM119.304 12.9275C118.864 12.9275 118.124 13.2275 117.964 13.8875V13.0475H116.484V17.7175H117.964V15.2875C117.964 14.5075 118.464 14.2975 118.864 14.2975C119.234 14.2975 119.674 14.5775 119.674 15.2975V17.7175H121.154V15.2075C121.154 13.7775 120.544 12.9275 119.304 12.9275Z" fill="#8A48EF"/>
</g>
<defs>
<clipPath id="clip0_16_2219">
<rect width="188.45" height="55.8371" fill="white" transform="translate(0.797241 0.90625)"/>
</clipPath>
</defs>
</svg>
