<svg width="144" height="43" viewBox="0 0 144 43" fill="none" xmlns="http://www.w3.org/2000/svg">
<g clip-path="url(#clip0_34_2560)">
<rect width="142.582" height="42.2465" transform="translate(0.797241 0.701569)" fill="white"/>
<path d="M0.797241 5.98239C0.797241 3.06588 3.16154 0.701569 6.07806 0.701569H138.098C141.015 0.701569 143.379 3.06587 143.379 5.98238V37.6673C143.379 40.5838 141.015 42.9481 138.098 42.9481H6.07804C3.16153 42.9481 0.797241 40.5838 0.797241 37.6673V5.98239Z" fill="#8A48EF"/>
<path d="M72.76 23.6743C70.2759 23.6743 68.2512 25.5638 68.2512 28.1662C68.2512 30.7527 70.2759 32.658 72.76 32.658C75.2451 32.658 77.2698 30.7527 77.2698 28.1662C77.2687 25.5638 75.2441 23.6743 72.76 23.6743ZM72.76 30.89C71.3986 30.89 70.2252 29.7673 70.2252 28.1672C70.2252 26.5502 71.3996 25.4444 72.76 25.4444C74.1214 25.4444 75.2948 26.5502 75.2948 28.1672C75.2948 29.7662 74.1214 30.89 72.76 30.89ZM62.9229 23.6743C60.4388 23.6743 58.4141 25.5638 58.4141 28.1662C58.4141 30.7527 60.4388 32.658 62.9229 32.658C65.408 32.658 67.4327 30.7527 67.4327 28.1662C67.4327 25.5638 65.408 23.6743 62.9229 23.6743ZM62.9229 30.89C61.5615 30.89 60.3881 29.7673 60.3881 28.1672C60.3881 26.5502 61.5625 25.4444 62.9229 25.4444C64.2843 25.4444 65.4577 26.5502 65.4577 28.1672C65.4587 29.7662 64.2843 30.89 62.9229 30.89ZM51.2227 25.0536V26.959H55.7832C55.647 28.031 55.29 28.8136 54.745 29.3575C54.0817 30.0208 53.0435 30.7527 51.2227 30.7527C48.4154 30.7527 46.2207 28.4893 46.2207 25.6821C46.2207 22.8748 48.4154 20.6114 51.2227 20.6114C52.7372 20.6114 53.843 21.2071 54.6594 21.9728L56.0039 20.6283C54.8633 19.5394 53.3498 18.7061 51.2227 18.7061C47.3772 18.7061 44.1443 21.8366 44.1443 25.6821C44.1443 29.5275 47.3772 32.658 51.2227 32.658C53.298 32.658 54.8643 31.9768 56.0884 30.7009C57.3474 29.442 57.7392 27.6719 57.7392 26.2429C57.7392 25.8014 57.7054 25.3927 57.6368 25.0526H51.2227V25.0536ZM99.0753 26.5333C98.7014 25.53 97.5608 23.6743 95.2298 23.6743C92.9158 23.6743 90.9925 25.4951 90.9925 28.1662C90.9925 30.684 92.8989 32.658 95.4506 32.658C97.509 32.658 98.7004 31.3991 99.1947 30.6671L97.6632 29.6458C97.1531 30.3947 96.455 30.8879 95.4506 30.8879C94.4472 30.8879 93.7322 30.4285 93.2728 29.5265L99.2792 27.0424L99.0753 26.5333ZM92.9496 28.031C92.8989 26.2946 94.2941 25.4106 95.2985 25.4106C96.0811 25.4106 96.7444 25.8025 96.9662 26.3633L92.9496 28.031ZM88.0669 32.3866H90.0398V19.1835H88.0669V32.3866ZM84.833 24.6787H84.7654C84.3228 24.1506 83.4716 23.6743 82.4006 23.6743C80.1542 23.6743 78.0957 25.6483 78.0957 28.1841C78.0957 30.702 80.1542 32.6591 82.4006 32.6591C83.4726 32.6591 84.3228 32.1827 84.7654 31.6388H84.833V32.2852C84.833 34.0036 83.9141 34.9224 82.4344 34.9224C81.2262 34.9224 80.4773 34.0553 80.1711 33.3234L78.4527 34.0384C78.9459 35.2287 80.2555 36.6926 82.4344 36.6926C84.7485 36.6926 86.7055 35.3312 86.7055 32.0127V23.9478H84.834V24.6787H84.833ZM82.5707 30.89C81.2093 30.89 80.0697 29.7493 80.0697 28.1841C80.0697 26.6009 81.2093 25.4444 82.5707 25.4444C83.9141 25.4444 84.9692 26.6009 84.9692 28.1841C84.9692 29.7493 83.9141 30.89 82.5707 30.89ZM108.321 19.1835H103.599V32.3866H105.569V27.3846H108.32C110.504 27.3846 112.652 25.8035 112.652 23.2846C112.652 20.7656 110.505 19.1835 108.321 19.1835ZM108.372 25.5469H105.569V21.0212H108.372C109.845 21.0212 110.681 22.2411 110.681 23.2846C110.681 24.3069 109.845 25.5469 108.372 25.5469ZM120.551 23.6511C119.124 23.6511 117.647 24.2795 117.035 25.6726L118.784 26.4024C119.158 25.6726 119.855 25.4339 120.585 25.4339C121.604 25.4339 122.64 26.0454 122.657 27.1322V27.2684C122.3 27.0646 121.536 26.7593 120.602 26.7593C118.717 26.7593 116.797 27.7954 116.797 29.7314C116.797 31.4983 118.343 32.6358 120.075 32.6358C121.399 32.6358 122.13 32.0412 122.589 31.3441H122.656V32.3633H124.559V27.3012C124.561 24.9586 122.809 23.6511 120.551 23.6511ZM120.313 30.8868C119.668 30.8868 118.767 30.5636 118.767 29.7652C118.767 28.746 119.889 28.3552 120.858 28.3552C121.723 28.3552 122.131 28.5421 122.657 28.7967C122.504 30.0208 121.451 30.8868 120.313 30.8868ZM131.49 23.9394L129.231 29.6638H129.163L126.819 23.9394H124.696L128.212 31.9398L126.207 36.3905H128.262L133.682 23.9394H131.49ZM113.74 32.3866H115.71V19.1835H113.74V32.3866Z" fill="#FAFAFA"/>
<path fill-rule="evenodd" clip-rule="evenodd" d="M11.524 9.11541C11.3992 9.39794 11.3303 9.74414 11.3303 10.1468V33.5049C11.3303 33.9085 11.3993 34.2547 11.5242 34.5372L24.2341 21.8255L11.524 9.11541ZM12.2583 35.2967C12.7294 35.4983 13.3439 35.4343 14.014 35.0543L28.9663 26.5577L24.9809 22.5723L12.2583 35.2967ZM29.9194 26.0172L34.6103 23.352C36.0857 22.5124 36.0857 21.1404 34.6103 20.3019L29.9173 17.6352L25.7277 21.8254L29.9194 26.0172ZM28.9649 17.094L14.014 8.59851C13.3439 8.2177 12.7293 8.15415 12.2582 8.35598L24.9809 21.0786L28.9649 17.094Z" fill="#FAFAFA"/>
<path d="M6.07806 1.75773H138.098V-0.354594H6.07806V1.75773ZM142.323 5.98238V37.6673H144.435V5.98238H142.323ZM138.098 41.8919H6.07804V44.0042H138.098V41.8919ZM1.8534 37.6673V5.98239H-0.258922V37.6673H1.8534ZM6.07804 41.8919C3.74484 41.8919 1.8534 40.0005 1.8534 37.6673H-0.258922C-0.258922 41.1671 2.57823 44.0042 6.07804 44.0042V41.8919ZM142.323 37.6673C142.323 40.0005 140.432 41.8919 138.098 41.8919V44.0042C141.598 44.0042 144.435 41.1671 144.435 37.6673H142.323ZM138.098 1.75773C140.432 1.75773 142.323 3.64917 142.323 5.98238H144.435C144.435 2.48257 141.598 -0.354594 138.098 -0.354594V1.75773ZM6.07806 -0.354594C2.57824 -0.354594 -0.258922 2.48258 -0.258922 5.98239H1.8534C1.8534 3.64918 3.74485 1.75773 6.07806 1.75773V-0.354594Z" fill="#8A48EF"/>
<path d="M49.3574 13.4062C50.2729 13.4062 51.0749 12.9446 51.5515 12.2486L50.6285 11.6054C50.3561 12.0291 49.9551 12.2864 49.4028 12.2864C48.51 12.2864 47.9047 11.5601 47.9047 10.6975C47.9047 9.835 48.5327 9.13136 49.4103 9.13136C49.9551 9.13136 50.3561 9.3886 50.6285 9.8123L51.5515 9.16919C51.0749 8.47311 50.2729 8.01158 49.3574 8.01158C47.8896 8.01158 46.7093 9.22971 46.7093 10.6975C46.7093 12.1805 47.8896 13.4062 49.3574 13.4062ZM53.8613 13.4062C54.8676 13.4062 55.7831 12.6647 55.7831 11.5525C55.7831 10.4327 54.8676 9.69124 53.8613 9.69124C52.8551 9.69124 51.9471 10.4327 51.9471 11.5525C51.9471 12.6647 52.8551 13.4062 53.8613 13.4062ZM53.8613 12.3696C53.4301 12.3696 53.082 12.0367 53.082 11.5525C53.082 11.0683 53.4301 10.7278 53.8613 10.7278C54.2926 10.7278 54.6406 11.0683 54.6406 11.5525C54.6406 12.0367 54.2926 12.3696 53.8613 12.3696ZM60.8612 9.69124C60.4905 9.69124 59.9457 9.89553 59.7036 10.3646C59.4918 9.94092 59.1059 9.69124 58.5838 9.69124C58.2282 9.69124 57.6986 9.93336 57.6305 10.4705V9.78203H56.5108V13.3154H57.6305V11.4693C57.6305 10.8791 57.9407 10.7278 58.2434 10.7278C58.5233 10.7278 58.7957 10.9245 58.7957 11.4693V13.3154H59.9155V11.5903C59.9155 10.9699 60.1727 10.7278 60.5207 10.7278C60.8083 10.7278 61.0806 10.9018 61.0806 11.4466V13.3154H62.2004V11.4163C62.2004 10.3344 61.7464 9.69124 60.8612 9.69124ZM63.654 9.25241C64.0323 9.25241 64.3349 8.95734 64.3349 8.60173C64.3349 8.231 64.0323 7.95106 63.654 7.95106C63.2757 7.95106 62.9579 8.231 62.9579 8.60173C62.9579 8.95734 63.2757 9.25241 63.654 9.25241ZM63.0941 13.3154H64.2139V9.78203H63.0941V13.3154ZM67.2891 9.69124C66.9562 9.69124 66.3964 9.91822 66.2753 10.4176V9.78203H65.1555V13.3154H66.2753V11.4768C66.2753 10.8867 66.6536 10.7278 66.9562 10.7278C67.2362 10.7278 67.5691 10.9396 67.5691 11.4844V13.3154H68.6889V11.4163C68.6889 10.3344 68.2273 9.69124 67.2891 9.69124ZM72.1916 9.78203V10.1679C71.9268 9.835 71.4577 9.69124 71.0946 9.69124C70.2169 9.69124 69.3846 10.4024 69.3846 11.5449C69.3846 12.6874 70.2169 13.4062 71.0946 13.4062C71.4577 13.4062 71.9268 13.2548 72.1916 12.9219V13.0279C72.1916 13.8374 71.8209 14.1628 71.2383 14.1628C70.8676 14.1628 70.5271 13.9282 70.3985 13.6407L69.4754 14.0114C69.7554 14.6773 70.4363 15.1463 71.2383 15.1463C72.517 15.1463 73.3038 14.3897 73.3038 12.8917V9.78203H72.1916ZM71.3367 12.3696C70.8978 12.3696 70.5195 11.9913 70.5195 11.5449C70.5195 11.0985 70.8978 10.7278 71.3367 10.7278C71.7604 10.7278 72.1462 11.091 72.1462 11.5449C72.1462 11.9989 71.7679 12.3696 71.3367 12.3696ZM77.3487 13.4062C78.0599 13.4062 78.8695 13.0354 78.8695 12.2561C78.8695 12.014 78.7938 11.4541 77.9086 11.212L77.2957 11.0456C77.1142 11.0002 76.9931 10.9245 76.9931 10.7883C76.9931 10.637 77.152 10.5462 77.3411 10.5462C77.5606 10.5462 77.7194 10.6597 77.7194 10.8867H78.7787C78.7938 10.0014 77.9843 9.69124 77.3184 9.69124C76.4635 9.69124 75.8733 10.2284 75.8733 10.7505C75.8733 11.0456 75.9036 11.6357 76.9401 11.9157L77.4017 12.0367C77.6665 12.0972 77.7497 12.1502 77.7497 12.2637C77.7497 12.4301 77.553 12.5512 77.3184 12.5512C77.0007 12.5512 76.872 12.3469 76.872 12.1729H75.8128C75.8128 12.9749 76.5618 13.4062 77.3487 13.4062ZM81.3177 13.4062C82.324 13.4062 83.2395 12.6647 83.2395 11.5525C83.2395 10.4327 82.324 9.69124 81.3177 9.69124C80.3115 9.69124 79.4035 10.4327 79.4035 11.5525C79.4035 12.6647 80.3115 13.4062 81.3177 13.4062ZM81.3177 12.3696C80.8865 12.3696 80.5384 12.0367 80.5384 11.5525C80.5384 11.0683 80.8865 10.7278 81.3177 10.7278C81.749 10.7278 82.097 11.0683 82.097 11.5525C82.097 12.0367 81.749 12.3696 81.3177 12.3696ZM85.6771 13.4062C86.6834 13.4062 87.5988 12.6647 87.5988 11.5525C87.5988 10.4327 86.6834 9.69124 85.6771 9.69124C84.6708 9.69124 83.7629 10.4327 83.7629 11.5525C83.7629 12.6647 84.6708 13.4062 85.6771 13.4062ZM85.6771 12.3696C85.2458 12.3696 84.8978 12.0367 84.8978 11.5525C84.8978 11.0683 85.2458 10.7278 85.6771 10.7278C86.1083 10.7278 86.4564 11.0683 86.4564 11.5525C86.4564 12.0367 86.1083 12.3696 85.6771 12.3696ZM90.4601 9.69124C90.1272 9.69124 89.5673 9.91822 89.4462 10.4176V9.78203H88.3265V13.3154H89.4462V11.4768C89.4462 10.8867 89.8246 10.7278 90.1272 10.7278C90.4071 10.7278 90.74 10.9396 90.74 11.4844V13.3154H91.8598V11.4163C91.8598 10.3344 91.3983 9.69124 90.4601 9.69124Z" fill="#FAFAFA"/>
</g>
<defs>
<clipPath id="clip0_34_2560">
<rect width="142.582" height="42.2465" fill="white" transform="translate(0.797241 0.701569)"/>
</clipPath>
</defs>
</svg>
