<svg width="37" height="37" viewBox="0 0 37 37" fill="none" xmlns="http://www.w3.org/2000/svg">
<circle cx="18.188" cy="18.247" r="18" fill="#EEDAFE"/>
<path fill-rule="evenodd" clip-rule="evenodd" d="M18.1213 13.4069C16.6607 12.4027 14.6468 12.5499 13.3484 13.8484C11.8839 15.3128 11.8839 17.6872 13.3484 19.1517L17.591 23.3943C17.7316 23.5349 17.9224 23.614 18.1213 23.614C18.3202 23.614 18.511 23.5349 18.6517 23.3943L22.8943 19.1517C24.3588 17.6872 24.3588 15.3128 22.8943 13.8484C21.5958 12.5499 19.582 12.4027 18.1213 13.4069ZM17.591 14.909C16.7123 14.0303 15.2877 14.0303 14.409 14.909C13.5303 15.7877 13.5303 17.2123 14.409 18.091L18.1213 21.8033L21.8336 18.091C22.7123 17.2123 22.7123 15.7877 21.8336 14.909C20.955 14.0303 19.5303 14.0303 18.6517 14.909C18.3588 15.2019 17.8839 15.2019 17.591 14.909ZM16.2263 8.12801C16.3296 8.52915 16.0881 8.93803 15.6869 9.04128C15.1906 9.16904 14.7103 9.33699 14.2498 9.5415C13.8712 9.70961 13.4281 9.53901 13.2599 9.16045C13.0918 8.78188 13.2624 8.33871 13.641 8.1706C14.1767 7.93271 14.7355 7.73728 15.3131 7.58862C15.7142 7.48538 16.1231 7.72687 16.2263 8.12801ZM11.7563 10.1524C12.0378 10.4563 12.0197 10.9308 11.7158 11.2123C10.9715 11.9017 10.3409 12.7118 9.85525 13.6111C9.65841 13.9756 9.2034 14.1115 8.83894 13.9146C8.47448 13.7178 8.33859 13.2628 8.53543 12.8983C9.1 11.853 9.83243 10.9122 10.6965 10.1118C11.0003 9.83036 11.4749 9.84851 11.7563 10.1524ZM8.25612 15.619C8.66481 15.6865 8.94142 16.0725 8.87396 16.4812C8.79247 16.9748 8.75 17.4821 8.75 17.9999C8.75 18.5177 8.79247 19.025 8.87396 19.5186C8.94142 19.9273 8.66481 20.3133 8.25612 20.3808C7.84744 20.4482 7.46145 20.1716 7.39399 19.7629C7.29922 19.1888 7.25 18.5998 7.25 17.9999C7.25 17.4 7.29922 16.811 7.39399 16.2369C7.46145 15.8282 7.84744 15.5516 8.25612 15.619ZM8.83894 22.0851C9.2034 21.8883 9.65841 22.0242 9.85525 22.3887C10.3409 23.288 10.9715 24.0981 11.7158 24.7875C12.0197 25.069 12.0378 25.5435 11.7563 25.8474C11.4749 26.1513 11.0003 26.1694 10.6964 25.888C9.83243 25.0876 9.1 24.1468 8.53543 23.1015C8.33859 22.737 8.47448 22.282 8.83894 22.0851ZM13.2599 26.8394C13.4281 26.4608 13.8712 26.2902 14.2498 26.4583C14.7103 26.6628 15.1906 26.8308 15.6869 26.9585C16.0881 27.0618 16.3296 27.4707 16.2263 27.8718C16.1231 28.2729 15.7142 28.5144 15.3131 28.4112C14.7355 28.2625 14.1767 28.0671 13.641 27.8292C13.2624 27.6611 13.0918 27.2179 13.2599 26.8394Z" fill="#8A48EF"/>
<path fill-rule="evenodd" clip-rule="evenodd" d="M17.25 8.00001C17.25 7.5858 17.5858 7.25001 18 7.25001C23.9371 7.25001 28.75 12.0629 28.75 18C28.75 18.4142 28.4142 18.75 28 18.75C27.5858 18.75 27.25 18.4142 27.25 18C27.25 12.8914 23.1086 8.75001 18 8.75001C17.5858 8.75001 17.25 8.41422 17.25 8.00001ZM27.4682 21.3127C27.8478 21.4786 28.021 21.9207 27.8552 22.3003C26.197 26.0954 22.4094 28.75 18 28.75C17.5858 28.75 17.25 28.4142 17.25 28C17.25 27.5858 17.5858 27.25 18 27.25C21.7919 27.25 25.0526 24.9682 26.4806 21.6997C26.6465 21.3202 27.0886 21.1469 27.4682 21.3127Z" fill="#8A48EF"/>
</svg>
