<svg width="37" height="37" viewBox="0 0 37 37" fill="none" xmlns="http://www.w3.org/2000/svg">
<circle cx="18.7859" cy="18.2459" r="18" fill="#EEDAFE"/>
<path d="M19 27C23.9706 27 28 22.9706 28 18C28 13.0294 23.9706 9 19 9C14.0294 9 10 13.0294 10 18C10 22.9706 14.0294 27 19 27Z" stroke="#8A48EF" stroke-linecap="round" stroke-linejoin="round"/>
<path d="M19 15C19.4142 15 19.75 14.6642 19.75 14.25C19.75 13.8358 19.4142 13.5 19 13.5C18.5858 13.5 18.25 13.8358 18.25 14.25C18.25 14.6642 18.5858 15 19 15Z" fill="#8A48EF"/>
<path d="M19 22.125V16.5H17.5" stroke="#8A48EF" stroke-linecap="round" stroke-linejoin="round"/>
</svg>
