<svg width="37" height="37" viewBox="0 0 37 37" fill="none" xmlns="http://www.w3.org/2000/svg">
<circle cx="18.7859" cy="18.2459" r="18" fill="#EEDAFE"/>
<path d="M10.375 27H27.625C28.6585 27 29.5 26.1585 29.5 25.125V13.875C29.5 12.8415 28.6585 12 27.625 12H23.7925L23.398 10.4205C23.297 10.0145 23.0629 9.65405 22.7331 9.39659C22.4034 9.13913 21.9969 8.99951 21.5785 9H16.4207C16.0025 8.99955 15.5961 9.1392 15.2665 9.39666C14.9368 9.65413 14.7029 10.0146 14.602 10.4205L14.2075 12H10.375C9.8779 12.0006 9.40133 12.1983 9.04983 12.5498C8.69833 12.9013 8.5006 13.3779 8.5 13.875V25.125C8.5 26.1585 9.3415 27 10.375 27ZM27.625 26.25H10.375C9.75475 26.25 9.25 25.7453 9.25 25.125V17.3775L17.125 19.7108V22.125C17.125 22.2245 17.1645 22.3198 17.2348 22.3902C17.3052 22.4605 17.4005 22.5 17.5 22.5H20.5C20.5995 22.5 20.6948 22.4605 20.7652 22.3902C20.8355 22.3198 20.875 22.2245 20.875 22.125V19.7108L28.75 17.3775V25.125C28.75 25.7453 28.2453 26.25 27.625 26.25ZM19 21C18.9005 21 18.8052 21.0395 18.7348 21.1098C18.6645 21.1802 18.625 21.2755 18.625 21.375V21.75H17.875V20.25H20.125V21.75H19.375V21.375C19.375 21.2755 19.3355 21.1802 19.2652 21.1098C19.1948 21.0395 19.0995 21 19 21ZM20.125 19.4303V19.5H17.875V18.75H20.125V19.4303ZM15.3295 10.602C15.3902 10.3584 15.5307 10.1421 15.7286 9.98771C15.9265 9.83329 16.1705 9.7496 16.4215 9.75H21.5792C21.8302 9.74986 22.074 9.83365 22.2719 9.98803C22.4698 10.1424 22.6103 10.3585 22.6713 10.602L23.02 12H14.98L15.3295 10.602ZM9.25 13.875C9.25 13.2548 9.75475 12.75 10.375 12.75H27.625C28.2453 12.75 28.75 13.2548 28.75 13.875V16.5945L20.875 18.9278V18.375C20.875 18.2755 20.8355 18.1802 20.7652 18.1098C20.6948 18.0395 20.5995 18 20.5 18H17.5C17.4005 18 17.3052 18.0395 17.2348 18.1098C17.1645 18.1802 17.125 18.2755 17.125 18.375V18.9285L9.25 16.5945V13.875Z" fill="#8A48EF" stroke="#8A48EF" stroke-width="0.3"/>
</svg>
