<svg width="37" height="37" viewBox="0 0 37 37" fill="none" xmlns="http://www.w3.org/2000/svg">
<circle cx="18.188" cy="18.247" r="18" fill="#EEDAFE"/>
<path d="M11.25 27.375C11.1997 27.3749 11.15 27.3647 11.1037 27.345C11.036 27.3163 10.9781 27.2683 10.9375 27.2069C10.8968 27.1456 10.8751 27.0736 10.875 27V23.625H9.375C8.87772 23.625 8.40081 23.4275 8.04917 23.0758C7.69754 22.7242 7.5 22.2473 7.5 21.75V12.75C7.5 12.2527 7.69754 11.7758 8.04917 11.4242C8.40081 11.0726 8.87772 10.875 9.375 10.875H24.375C24.8723 10.875 25.3492 11.0726 25.7008 11.4242C26.0525 11.7758 26.25 12.2527 26.25 12.75V21.75C26.25 22.2473 26.0525 22.7242 25.7008 23.0758C25.3492 23.4275 24.8723 23.625 24.375 23.625H15.315L11.5087 27.27C11.4392 27.337 11.3466 27.3746 11.25 27.375ZM9.375 11.625C9.07663 11.625 8.79048 11.7435 8.5795 11.9545C8.36853 12.1655 8.25 12.4516 8.25 12.75V21.75C8.25 22.0484 8.36853 22.3345 8.5795 22.5455C8.79048 22.7565 9.07663 22.875 9.375 22.875H11.25C11.3495 22.875 11.4448 22.9145 11.5152 22.9848C11.5855 23.0552 11.625 23.1506 11.625 23.25V26.1225L14.9062 22.98C14.9758 22.913 15.0684 22.8754 15.165 22.875H24.375C24.6734 22.875 24.9595 22.7565 25.1705 22.5455C25.3815 22.3345 25.5 22.0484 25.5 21.75V12.75C25.5 12.4516 25.3815 12.1655 25.1705 11.9545C24.9595 11.7435 24.6734 11.625 24.375 11.625H9.375ZM28.5 19.5V10.5C28.5 10.0027 28.3025 9.52582 27.9508 9.17419C27.5992 8.82256 27.1223 8.62502 26.625 8.62502H11.625C11.1277 8.62502 10.6508 8.82256 10.2992 9.17419C9.94754 9.52582 9.75 10.0027 9.75 10.5H10.5C10.5 10.2016 10.6185 9.9155 10.8295 9.70452C11.0405 9.49354 11.3266 9.37502 11.625 9.37502H26.625C26.9234 9.37502 27.2095 9.49354 27.4205 9.70452C27.6315 9.9155 27.75 10.2016 27.75 10.5V19.5C27.75 19.7984 27.6315 20.0845 27.4205 20.2955C27.2095 20.5065 26.9234 20.625 26.625 20.625V21.375C26.8712 21.375 27.115 21.3265 27.3425 21.2323C27.57 21.1381 27.7767 21 27.9508 20.8258C28.1249 20.6517 28.263 20.445 28.3573 20.2175C28.4515 19.9901 28.5 19.7462 28.5 19.5ZM17.25 17.97C17.6729 17.8985 18.0666 17.7077 18.3846 17.4199C18.7027 17.1321 18.9318 16.7594 19.0451 16.3457C19.1584 15.932 19.1511 15.4946 19.024 15.0849C18.8969 14.6753 18.6554 14.3105 18.3279 14.0335C18.0004 13.7565 17.6006 13.5789 17.1755 13.5216C16.7504 13.4644 16.3179 13.5298 15.9287 13.7101C15.5396 13.8905 15.2101 14.1784 14.9791 14.5398C14.7482 14.9012 14.6253 15.3211 14.625 15.75H15.375C15.375 15.4533 15.463 15.1633 15.6278 14.9167C15.7926 14.67 16.0269 14.4777 16.301 14.3642C16.5751 14.2507 16.8767 14.221 17.1676 14.2788C17.4586 14.3367 17.7259 14.4796 17.9357 14.6894C18.1454 14.8991 18.2883 15.1664 18.3462 15.4574C18.4041 15.7484 18.3744 16.05 18.2608 16.324C18.1473 16.5981 17.955 16.8324 17.7084 16.9972C17.4617 17.162 17.1717 17.25 16.875 17.25C16.7755 17.25 16.6802 17.2895 16.6098 17.3598C16.5395 17.4302 16.5 17.5256 16.5 17.625V19.5H17.25V17.97ZM17.25 20.25H16.5V21H17.25V20.25Z" fill="#8A48EF" stroke="#8A48EF" stroke-width="0.4"/>
</svg>
