<svg width="37" height="37" viewBox="0 0 37 37" fill="none" xmlns="http://www.w3.org/2000/svg">
<circle cx="18.7859" cy="18.2459" r="18" fill="#EEDAFE"/>
<g clip-path="url(#clip0_37_2746)">
<path d="M17.9495 20.5H15.05C14.917 20.5 14.79 20.4475 14.6965 20.3535L12.646 18.303C12.5525 18.2095 12.5 18.0825 12.5 17.9495V15.05C12.5 14.9175 12.5525 14.79 12.6465 14.6965L14.697 12.646C14.7905 12.5525 14.9175 12.5 15.0505 12.5H17.95C18.083 12.5 18.21 12.5525 18.3035 12.6465L20.354 14.697C20.4475 14.7905 20.5 14.9175 20.5 15.0505V17.95C20.5 18.0825 20.4475 18.21 20.3535 18.3035L18.303 20.354C18.2095 20.4475 18.0825 20.5 17.9495 20.5ZM15.2575 19.5H17.743L19.5 17.7425V15.257L17.7425 13.5H15.257L13.5 15.2575V17.743L15.2575 19.5Z" fill="#8A48EF"/>
<path d="M18 24.5C17.903 24.5 17.806 24.4715 17.7225 24.416L16.5 23.601L15.2775 24.416C15.124 24.5185 14.9265 24.528 14.7645 24.441C14.6015 24.354 14.5 24.1845 14.5 24V20C14.5 19.7235 14.7235 19.5 15 19.5H18C18.2765 19.5 18.5 19.7235 18.5 20V24C18.5 24.1845 18.3985 24.354 18.236 24.441C18.162 24.4805 18.081 24.5 18 24.5ZM16.5 22.5C16.5965 22.5 16.6935 22.528 16.7775 22.584L17.5 23.066V20.5H15.5V23.066L16.2225 22.584C16.3065 22.528 16.4035 22.5 16.5 22.5ZM23.5 29.5H11.5C10.397 29.5 9.5 28.603 9.5 27.5V26C9.5 25.7235 9.7235 25.5 10 25.5H22C22.2765 25.5 22.5 25.7235 22.5 26V27.5C22.5 28.0515 22.9485 28.5 23.5 28.5C23.7765 28.5 24 28.7235 24 29C24 29.2765 23.7765 29.5 23.5 29.5ZM10.5 26.5V27.5C10.5 28.0515 10.9485 28.5 11.5 28.5H21.7685C21.5975 28.2055 21.5 27.864 21.5 27.5V26.5H10.5ZM22 13.5C21.7235 13.5 21.5 13.276 21.5 13V10.5C21.5 10.224 21.7235 10 22 10C22.2765 10 22.5 10.224 22.5 10.5V13C22.5 13.276 22.2765 13.5 22 13.5Z" fill="#8A48EF"/>
<path d="M25 13.5H22C21.7235 13.5 21.5 13.276 21.5 13C21.5 12.724 21.7235 12.5 22 12.5H25C25.2765 12.5 25.5 12.724 25.5 13C25.5 13.276 25.2765 13.5 25 13.5Z" fill="#8A48EF"/>
<path d="M23.5 29.5C22.397 29.5 21.5 28.603 21.5 27.5V26.5H11C10.7235 26.5 10.5 26.2765 10.5 26V10C10.5 9.72402 10.7235 9.50002 11 9.50002H22C22.133 9.50002 22.26 9.55252 22.3535 9.64652L25.3535 12.6465C25.4475 12.74 25.5 12.8675 25.5 13V27.5C25.5 28.484 24.798 29.3115 23.83 29.469C23.7285 29.496 23.591 29.5 23.5 29.5ZM11.5 25.5H22C22.2765 25.5 22.5 25.7235 22.5 26V27.5C22.5 28.0515 22.9485 28.5 23.5 28.5C23.522 28.5 23.589 28.5 23.629 28.49C24.151 28.4035 24.5 27.9905 24.5 27.5V13.207L21.793 10.5H11.5V25.5Z" fill="#8A48EF"/>
<path d="M26.5 26C25.397 26 24.5 25.103 24.5 24V13.207L21.793 10.5H14C13.7235 10.5 13.5 10.276 13.5 10V7.00002C13.5 6.72402 13.7235 6.50002 14 6.50002H25C25.133 6.50002 25.26 6.55252 25.3535 6.64652L28.3535 9.64652C28.4475 9.74002 28.5 9.86752 28.5 10V24C28.5 24.984 27.798 25.8115 26.83 25.969C26.7285 25.996 26.591 26 26.5 26ZM14.5 9.50002H22C22.133 9.50002 22.26 9.55252 22.3535 9.64652L25.3535 12.6465C25.4475 12.74 25.5 12.8675 25.5 13V24C25.5 24.5515 25.9485 25 26.5 25C26.522 25 26.589 25 26.629 24.99C27.151 24.9035 27.5 24.4905 27.5 24V10.207L24.793 7.50002H14.5V9.50002Z" fill="#8A48EF"/>
<path d="M25 10.5C24.7235 10.5 24.5 10.276 24.5 10V7.50002C24.5 7.22402 24.7235 7.00002 25 7.00002C25.2765 7.00002 25.5 7.22402 25.5 7.50002V10C25.5 10.276 25.2765 10.5 25 10.5Z" fill="#8A48EF"/>
<path d="M28 10.5H25C24.7235 10.5 24.5 10.276 24.5 10C24.5 9.72402 24.7235 9.50002 25 9.50002H28C28.2765 9.50002 28.5 9.72402 28.5 10C28.5 10.276 28.2765 10.5 28 10.5Z" fill="#8A48EF"/>
</g>
<defs>
<clipPath id="clip0_37_2746">
<rect width="24" height="24" fill="white" transform="translate(7 6.00002)"/>
</clipPath>
</defs>
</svg>
