<svg width="37" height="37" viewBox="0 0 37 37" fill="none" xmlns="http://www.w3.org/2000/svg">
<circle cx="18.188" cy="18.247" r="18" fill="#EEDAFE"/>
<g clip-path="url(#clip0_37_2741)">
<path d="M26.938 10.3303H26.1047V9.49698C26.1047 9.16546 25.973 8.84752 25.7385 8.6131C25.5041 8.37867 25.1862 8.24698 24.8547 8.24698H19.0213C18.6898 8.24698 18.3719 8.37867 18.1374 8.6131C17.903 8.84752 17.7713 9.16546 17.7713 9.49698V10.3303H9.43799C9.10647 10.3303 8.78853 10.462 8.5541 10.6964C8.31968 10.9308 8.18799 11.2488 8.18799 11.5803V24.0803C8.18799 24.4118 8.31968 24.7298 8.5541 24.9642C8.78853 25.1986 9.10647 25.3303 9.43799 25.3303H15.738L15.3422 27.4136H14.8547C14.7441 27.4136 14.6382 27.4575 14.56 27.5357C14.4819 27.6138 14.438 27.7198 14.438 27.8303C14.438 27.9408 14.4819 28.0468 14.56 28.1249C14.6382 28.2031 14.7441 28.247 14.8547 28.247H21.5213C21.6318 28.247 21.7378 28.2031 21.8159 28.1249C21.8941 28.0468 21.938 27.9408 21.938 27.8303C21.938 27.7198 21.8941 27.6138 21.8159 27.5357C21.7378 27.4575 21.6318 27.4136 21.5213 27.4136H21.0338L20.638 25.3303H26.938C27.2695 25.3303 27.5875 25.1986 27.8219 24.9642C28.0563 24.7298 28.188 24.4118 28.188 24.0803V11.5803C28.188 11.2488 28.0563 10.9308 27.8219 10.6964C27.5875 10.462 27.2695 10.3303 26.938 10.3303ZM18.6047 9.49698C18.6047 9.38647 18.6486 9.28049 18.7267 9.20235C18.8048 9.12421 18.9108 9.08031 19.0213 9.08031H24.8547C24.9652 9.08031 25.0711 9.12421 25.1493 9.20235C25.2274 9.28049 25.2713 9.38647 25.2713 9.49698V12.8303C25.2713 12.9408 25.2274 13.0468 25.1493 13.1249C25.0711 13.2031 24.9652 13.247 24.8547 13.247H19.8547C19.7213 13.247 19.7797 13.247 18.6047 13.822V9.49698ZM9.02132 11.5803C9.02132 11.4698 9.06522 11.3638 9.14336 11.2857C9.2215 11.2075 9.32748 11.1636 9.43799 11.1636H17.7713C17.7713 14.822 17.7005 14.6845 17.9672 14.8511C18.2338 15.0178 18.2755 14.9178 19.9547 14.0803H24.8547C25.1862 14.0803 25.5041 13.9486 25.7385 13.7142C25.973 13.4798 26.1047 13.1618 26.1047 12.8303V11.1636H26.938C27.0485 11.1636 27.1545 11.2075 27.2326 11.2857C27.3108 11.3638 27.3547 11.4698 27.3547 11.5803V21.997H9.02132V11.5803ZM20.1838 27.4136H16.1922L16.588 25.3303H19.788L20.1838 27.4136ZM27.3547 24.0803C27.3547 24.1908 27.3108 24.2968 27.2326 24.3749C27.1545 24.4531 27.0485 24.497 26.938 24.497H9.43799C9.32748 24.497 9.2215 24.4531 9.14336 24.3749C9.06522 24.2968 9.02132 24.1908 9.02132 24.0803V22.8303H27.3547V24.0803Z" fill="#8A48EF" stroke="#8A48EF" stroke-width="0.1"/>
<path d="M19.8546 12.4136H20.6879C20.7984 12.4136 20.9044 12.3697 20.9825 12.2916C21.0607 12.2135 21.1046 12.1075 21.1046 11.997C21.1046 11.8865 21.0607 11.7805 20.9825 11.7023C20.9044 11.6242 20.7984 11.5803 20.6879 11.5803V10.3303C20.6879 10.2198 20.644 10.1138 20.5659 10.0357C20.4877 9.95754 20.3817 9.91364 20.2712 9.91364H19.8546C19.7441 9.91364 19.6381 9.95754 19.5599 10.0357C19.4818 10.1138 19.4379 10.2198 19.4379 10.3303C19.4379 10.4408 19.4818 10.5468 19.5599 10.6249C19.6381 10.7031 19.7441 10.747 19.8546 10.747V11.5803C19.7441 11.5803 19.6381 11.6242 19.5599 11.7023C19.4818 11.7805 19.4379 11.8865 19.4379 11.997C19.4379 12.1075 19.4818 12.2135 19.5599 12.2916C19.6381 12.3697 19.7441 12.4136 19.8546 12.4136ZM22.7712 11.997V11.0053C23.2337 11.2345 23.1879 11.2011 23.6046 11.0053V11.997C23.6046 12.1075 23.6485 12.2135 23.7266 12.2916C23.8048 12.3697 23.9107 12.4136 24.0212 12.4136C24.1317 12.4136 24.2377 12.3697 24.3159 12.2916C24.394 12.2135 24.4379 12.1075 24.4379 11.997C24.4379 10.197 24.5004 10.1345 24.2421 9.97614C23.9837 9.81781 23.8546 9.94697 23.1879 10.2803C22.4879 9.93031 22.3796 9.82614 22.1337 9.97614C21.8879 10.1261 21.9379 10.2303 21.9379 11.997C21.9379 12.1075 21.9818 12.2135 22.0599 12.2916C22.1381 12.3697 22.2441 12.4136 22.3546 12.4136C22.4651 12.4136 22.5711 12.3697 22.6492 12.2916C22.7273 12.2135 22.7712 12.1075 22.7712 11.997ZM16.5212 15.3303H11.5212C11.1897 15.3303 10.8718 15.462 10.6374 15.6964C10.4029 15.9308 10.2712 16.2488 10.2712 16.5803V19.9136C10.2712 20.2452 10.4029 20.5631 10.6374 20.7975C10.8718 21.0319 11.1897 21.1636 11.5212 21.1636H16.5212C16.8528 21.1636 17.1707 21.0319 17.4051 20.7975C17.6395 20.5631 17.7712 20.2452 17.7712 19.9136V16.5803C17.7712 16.2488 17.6395 15.9308 17.4051 15.6964C17.1707 15.462 16.8528 15.3303 16.5212 15.3303ZM16.9379 19.9136C16.9379 20.0241 16.894 20.1301 16.8159 20.2083C16.7377 20.2864 16.6317 20.3303 16.5212 20.3303H11.5212C11.4107 20.3303 11.3048 20.2864 11.2266 20.2083C11.1485 20.1301 11.1046 20.0241 11.1046 19.9136V16.5803C11.1046 16.4698 11.1485 16.3638 11.2266 16.2857C11.3048 16.2075 11.4107 16.1636 11.5212 16.1636H16.5212C16.6317 16.1636 16.7377 16.2075 16.8159 16.2857C16.894 16.3638 16.9379 16.4698 16.9379 16.5803V19.9136Z" fill="#8A48EF" stroke="#8A48EF" stroke-width="0.1"/>
<path d="M15.1296 17.5011C14.0421 16.9553 13.6796 16.647 13.1671 16.9636C12.6546 17.2803 12.7712 17.8303 12.7712 18.822C12.7712 19.043 12.859 19.255 13.0153 19.4112C13.1716 19.5675 13.3836 19.6553 13.6046 19.6553C13.8837 19.6553 14.0004 19.5553 15.1296 18.9928C15.2682 18.9237 15.3849 18.8173 15.4664 18.6855C15.548 18.5538 15.5912 18.4019 15.5912 18.247C15.5912 18.092 15.548 17.9402 15.4664 17.8084C15.3849 17.6767 15.2682 17.5703 15.1296 17.5011ZM13.6046 18.8261V17.672L14.7546 18.247L13.6046 18.8261ZM10.6879 12.8303H14.0212C14.1317 12.8303 14.2377 12.7864 14.3159 12.7083C14.394 12.6301 14.4379 12.5242 14.4379 12.4136C14.4379 12.3031 14.394 12.1972 14.3159 12.119C14.2377 12.0409 14.1317 11.997 14.0212 11.997H10.6879C10.5774 11.997 10.4714 12.0409 10.3933 12.119C10.3151 12.1972 10.2712 12.3031 10.2712 12.4136C10.2712 12.5242 10.3151 12.6301 10.3933 12.7083C10.4714 12.7864 10.5774 12.8303 10.6879 12.8303ZM10.6879 14.497H16.1046C16.2151 14.497 16.3211 14.4531 16.3992 14.3749C16.4773 14.2968 16.5212 14.1908 16.5212 14.0803C16.5212 13.9698 16.4773 13.8638 16.3992 13.7857C16.3211 13.7075 16.2151 13.6636 16.1046 13.6636H10.6879C10.5774 13.6636 10.4714 13.7075 10.3933 13.7857C10.3151 13.8638 10.2712 13.9698 10.2712 14.0803C10.2712 14.1908 10.3151 14.2968 10.3933 14.3749C10.4714 14.4531 10.5774 14.497 10.6879 14.497ZM25.6879 16.1636H19.4379C19.3274 16.1636 19.2214 16.2075 19.1433 16.2857C19.0651 16.3638 19.0212 16.4698 19.0212 16.5803C19.0212 16.6908 19.0651 16.7968 19.1433 16.8749C19.2214 16.9531 19.3274 16.997 19.4379 16.997H25.6879C25.7984 16.997 25.9044 16.9531 25.9825 16.8749C26.0607 16.7968 26.1046 16.6908 26.1046 16.5803C26.1046 16.4698 26.0607 16.3638 25.9825 16.2857C25.9044 16.2075 25.7984 16.1636 25.6879 16.1636ZM25.6879 17.8303H19.4379C19.3274 17.8303 19.2214 17.8742 19.1433 17.9524C19.0651 18.0305 19.0212 18.1365 19.0212 18.247C19.0212 18.3575 19.0651 18.4635 19.1433 18.5416C19.2214 18.6197 19.3274 18.6636 19.4379 18.6636H25.6879C25.7984 18.6636 25.9044 18.6197 25.9825 18.5416C26.0607 18.4635 26.1046 18.3575 26.1046 18.247C26.1046 18.1365 26.0607 18.0305 25.9825 17.9524C25.9044 17.8742 25.7984 17.8303 25.6879 17.8303ZM23.6046 19.497H19.4379C19.3274 19.497 19.2214 19.5409 19.1433 19.619C19.0651 19.6972 19.0212 19.8031 19.0212 19.9136C19.0212 20.0242 19.0651 20.1301 19.1433 20.2083C19.2214 20.2864 19.3274 20.3303 19.4379 20.3303H23.6046C23.7151 20.3303 23.8211 20.2864 23.8992 20.2083C23.9773 20.1301 24.0212 20.0242 24.0212 19.9136C24.0212 19.8031 23.9773 19.6972 23.8992 19.619C23.8211 19.5409 23.7151 19.497 23.6046 19.497Z" fill="#8A48EF" stroke="#8A48EF" stroke-width="0.1"/>
</g>
<defs>
<clipPath id="clip0_37_2741">
<rect width="20" height="20" fill="white" transform="translate(8.18799 8.24698)"/>
</clipPath>
</defs>
</svg>
