<svg width="37" height="37" viewBox="0 0 37 37" fill="none" xmlns="http://www.w3.org/2000/svg">
<circle cx="18.7859" cy="18.2459" r="18" fill="#EEDAFE"/>
<g clip-path="url(#clip0_37_2744)">
<path d="M12.3858 13.4459H9.18579V25.8459C9.18579 26.9487 10.083 27.8459 11.1858 27.8459H26.3858C27.4886 27.8459 28.3858 26.9487 28.3858 25.8459V8.64591H12.3858V13.4459ZM9.98579 25.8459V14.2459H12.3858V25.8459C12.3858 26.5075 11.8474 27.0459 11.1858 27.0459C10.5242 27.0459 9.98579 26.5075 9.98579 25.8459ZM13.1858 9.44591H27.5858V25.8459C27.5858 26.5075 27.0474 27.0459 26.3858 27.0459H12.785C12.797 27.0303 12.8054 27.0123 12.8166 26.9963C12.8394 26.9639 12.8594 26.9299 12.8802 26.8959C12.9895 26.7207 13.0704 26.5292 13.1198 26.3287C13.129 26.2911 13.1406 26.2551 13.1478 26.2167C13.171 26.0963 13.1858 25.9731 13.1858 25.8459V9.44591Z" fill="#8A48EF" stroke="#8A48EF" stroke-width="0.2"/>
<path d="M14.7859 11.4459H25.9859V12.2459H14.7859V11.4459ZM16.3859 13.4459H24.3859V14.2459H16.3859V13.4459ZM21.1859 16.6459H25.9859V17.4459H21.1859V16.6459ZM21.1859 18.6459H25.9859V19.4459H21.1859V18.6459ZM19.5859 16.6459H14.7859V21.4459H19.5859V16.6459ZM18.7859 20.6459H15.5859V17.4459H18.7859V20.6459ZM21.1859 20.6459H25.9859V21.4459H21.1859V20.6459ZM14.7859 22.6459H19.5859V23.4459H14.7859V22.6459ZM21.1859 22.6459H25.9859V23.4459H21.1859V22.6459ZM14.7859 24.6459H19.5859V25.4459H14.7859V24.6459ZM21.1859 24.6459H25.9859V25.4459H21.1859V24.6459Z" fill="#8A48EF" stroke="#8A48EF" stroke-width="0.2"/>
</g>
<defs>
<clipPath id="clip0_37_2744">
<rect width="20" height="20" fill="white" transform="translate(8.78589 8.24591)"/>
</clipPath>
</defs>
</svg>
